<svg width="219" height="211" viewBox="0 0 219 211" fill="none" xmlns="http://www.w3.org/2000/svg">
<g filter="url(#filter0_d_1_41)">
<mask id="path-1-outside-1_1_41" maskUnits="userSpaceOnUse" x="4" y="0" width="211" height="203" fill="black">
<rect fill="white" x="4" width="211" height="203"/>
<path d="M14 15H205V193H14V15Z"/>
</mask>
<path d="M14 15H205V193H14V15Z" fill="#FFE8F0"/>
<path d="M14 15V0C8.47715 0 4 4.47715 4 10V15H14ZM205 15H215V10C215 4.47715 210.523 0 205 0V15ZM205 193V203C210.523 203 215 198.523 215 193H205ZM14 193H4C4 198.523 8.47715 203 14 203L14 193ZM14 30H205V0H14V30ZM195 15V193H215V15H195ZM205 183H14V203H205V183ZM24 193V15H4V193H24Z" fill="#FFA3BE" mask="url(#path-1-outside-1_1_41)"/>
</g>
<defs>
<filter id="filter0_d_1_41" x="0" y="0" width="219" height="211" filterUnits="userSpaceOnUse" color-interpolation-filters="sRGB">
<feFlood flood-opacity="0" result="BackgroundImageFix"/>
<feColorMatrix in="SourceAlpha" type="matrix" values="0 0 0 0 0 0 0 0 0 0 0 0 0 0 0 0 0 0 127 0" result="hardAlpha"/>
<feOffset dy="4"/>
<feGaussianBlur stdDeviation="2"/>
<feComposite in2="hardAlpha" operator="out"/>
<feColorMatrix type="matrix" values="0 0 0 0 0.996078 0 0 0 0 0.866667 0 0 0 0 0.94902 0 0 0 1 0"/>
<feBlend mode="normal" in2="BackgroundImageFix" result="effect1_dropShadow_1_41"/>
<feBlend mode="normal" in="SourceGraphic" in2="effect1_dropShadow_1_41" result="shape"/>
</filter>
</defs>
</svg>
