<svg width="416" height="211" viewBox="0 0 416 211" fill="none" xmlns="http://www.w3.org/2000/svg">
<g filter="url(#filter0_d_2_2)">
<mask id="path-1-outside-1_2_2" maskUnits="userSpaceOnUse" x="4" y="0" width="408" height="203" fill="black">
<rect fill="white" x="4" width="408" height="203"/>
<path d="M14 15H402V193H14V15Z"/>
</mask>
<path d="M14 15H402V193H14V15Z" fill="#FFE8F0" shape-rendering="crispEdges"/>
<path d="M14 15V0C8.47715 0 4 4.47715 4 10V15H14ZM402 15H412V10C412 4.47715 407.523 0 402 0V15ZM402 193V203C407.523 203 412 198.523 412 193H402ZM14 193H4C4 198.523 8.47715 203 14 203L14 193ZM14 30H402V0H14V30ZM392 15V193H412V15H392ZM402 183H14V203H402V183ZM24 193V15H4V193H24Z" fill="#EC8FBE" fill-opacity="0.73" mask="url(#path-1-outside-1_2_2)"/>
</g>
<defs>
<filter id="filter0_d_2_2" x="0" y="0" width="416" height="211" filterUnits="userSpaceOnUse" color-interpolation-filters="sRGB">
<feFlood flood-opacity="0" result="BackgroundImageFix"/>
<feColorMatrix in="SourceAlpha" type="matrix" values="0 0 0 0 0 0 0 0 0 0 0 0 0 0 0 0 0 0 127 0" result="hardAlpha"/>
<feOffset dy="4"/>
<feGaussianBlur stdDeviation="2"/>
<feComposite in2="hardAlpha" operator="out"/>
<feColorMatrix type="matrix" values="0 0 0 0 0.996078 0 0 0 0 0.866667 0 0 0 0 0.94902 0 0 0 1 0"/>
<feBlend mode="normal" in2="BackgroundImageFix" result="effect1_dropShadow_2_2"/>
<feBlend mode="normal" in="SourceGraphic" in2="effect1_dropShadow_2_2" result="shape"/>
</filter>
</defs>
</svg>
