<svg width="108" height="18" viewBox="0 0 108 18" fill="none" xmlns="http://www.w3.org/2000/svg">
<mask id="path-1-outside-1_10_5" maskUnits="userSpaceOnUse" x="0" y="0" width="108" height="18" fill="black">
<rect fill="white" width="108" height="18"/>
<path d="M7.374 13.168V8.1H6.114V6.84H4.84V4.166H6.254V6.7H7.514V7.974H8.662V6.7H9.922V4.166H11.35V6.84H10.062V8.1H8.802V13.168H7.374ZM13.3328 13.168V11.908H12.0588V7.974H13.3328V6.7H17.2808V7.974H18.5688V9.36H17.1408V8.1H13.4728V9.22H16.0208V10.634H13.4728V11.768H17.1408V10.48H18.5688V11.894H17.2808V13.168H13.3328ZM21.5359 13.168V11.908H20.2619V7.974H21.5359V6.7H25.4839V7.974H26.7719V9.36H25.3439V8.1H21.6759V9.22H24.2239V10.634H21.6759V11.768H25.3439V10.48H26.7719V11.894H25.4839V13.168H21.5359ZM30.999 13.168V11.908H29.739V8.1H28.465V6.7H29.739V4.166H31.139V6.7H34.975V8.1H31.139V11.768H34.835V10.494H36.249V11.908H34.975V13.168H30.999ZM40.2243 10.2V8.786H44.1723V10.2H40.2243ZM50.7412 13.168V11.908H49.4812V8.1H48.2072V6.7H49.4812V4.166H50.8812V6.7H54.7172V8.1H50.8812V11.768H54.5772V10.494H55.9912V11.908H54.7172V13.168H50.7412ZM57.4084 13.168V5.44H58.6824V4.166H62.6304V5.44H63.9184V6.84H62.4904V5.58H58.8224V7.974H61.3704V9.36H58.8224V13.168H57.4084ZM64.6271 13.168V6.7H69.8491V7.974H71.1371V13.168H69.7091V8.1H66.0411V13.168H64.6271ZM73.6804 13.168V11.908H72.4064V7.974H73.6804V6.7H77.6284V7.974H78.9164V11.908H77.6284V13.168H73.6804ZM73.8204 11.768H77.4884V8.1H73.8204V11.768ZM83.0175 13.168V11.908H81.7435V9.36H80.4695V6.7H81.8835V9.22H83.1435V11.768H84.2915V9.22H85.5515V6.7H86.9795V9.36H85.6915V11.908H84.4315V13.168H83.0175ZM89.9499 13.168V11.908H88.6759V9.22H89.9499V7.974H93.7579V5.58H90.0899V6.84H88.6759V5.44H89.9499V4.166H93.8979V5.44H95.1859V8.1H93.8979V9.36H90.0899V11.768H93.7579V10.494H95.1859V11.908H93.8979V13.168H89.9499ZM96.8791 13.168V4.166H98.2931V9.22H99.4131V7.974H101.961V6.7H103.389V8.1H102.101V9.36H99.5531V10.494H102.101V11.768H103.389V13.168H101.961V11.908H99.4131V10.634H98.2931V13.168H96.8791Z"/>
</mask>
<path d="M7.374 13.168V8.1H6.114V6.84H4.84V4.166H6.254V6.7H7.514V7.974H8.662V6.7H9.922V4.166H11.35V6.84H10.062V8.1H8.802V13.168H7.374ZM13.3328 13.168V11.908H12.0588V7.974H13.3328V6.7H17.2808V7.974H18.5688V9.36H17.1408V8.1H13.4728V9.22H16.0208V10.634H13.4728V11.768H17.1408V10.48H18.5688V11.894H17.2808V13.168H13.3328ZM21.5359 13.168V11.908H20.2619V7.974H21.5359V6.7H25.4839V7.974H26.7719V9.36H25.3439V8.1H21.6759V9.22H24.2239V10.634H21.6759V11.768H25.3439V10.48H26.7719V11.894H25.4839V13.168H21.5359ZM30.999 13.168V11.908H29.739V8.1H28.465V6.7H29.739V4.166H31.139V6.7H34.975V8.1H31.139V11.768H34.835V10.494H36.249V11.908H34.975V13.168H30.999ZM40.2243 10.2V8.786H44.1723V10.2H40.2243ZM50.7412 13.168V11.908H49.4812V8.1H48.2072V6.7H49.4812V4.166H50.8812V6.7H54.7172V8.1H50.8812V11.768H54.5772V10.494H55.9912V11.908H54.7172V13.168H50.7412ZM57.4084 13.168V5.44H58.6824V4.166H62.6304V5.44H63.9184V6.84H62.4904V5.58H58.8224V7.974H61.3704V9.36H58.8224V13.168H57.4084ZM64.6271 13.168V6.7H69.8491V7.974H71.1371V13.168H69.7091V8.1H66.0411V13.168H64.6271ZM73.6804 13.168V11.908H72.4064V7.974H73.6804V6.7H77.6284V7.974H78.9164V11.908H77.6284V13.168H73.6804ZM73.8204 11.768H77.4884V8.1H73.8204V11.768ZM83.0175 13.168V11.908H81.7435V9.36H80.4695V6.7H81.8835V9.22H83.1435V11.768H84.2915V9.22H85.5515V6.7H86.9795V9.36H85.6915V11.908H84.4315V13.168H83.0175ZM89.9499 13.168V11.908H88.6759V9.22H89.9499V7.974H93.7579V5.58H90.0899V6.84H88.6759V5.44H89.9499V4.166H93.8979V5.44H95.1859V8.1H93.8979V9.36H90.0899V11.768H93.7579V10.494H95.1859V11.908H93.8979V13.168H89.9499ZM96.8791 13.168V4.166H98.2931V9.22H99.4131V7.974H101.961V6.7H103.389V8.1H102.101V9.36H99.5531V10.494H102.101V11.768H103.389V13.168H101.961V11.908H99.4131V10.634H98.2931V13.168H96.8791Z" fill="#DEE5FF"/>
<path d="M7.374 13.168H3.374L7.374 17.168V13.168ZM7.374 8.1H11.374L7.374 4.1V8.1ZM6.114 8.1H2.114L6.114 12.1V8.1ZM6.114 6.84H10.114L6.114 2.84V6.84ZM4.84 6.84H0.84L4.84 10.84V6.84ZM4.84 4.166V0.165999L0.84 4.166H4.84ZM6.254 4.166H10.254L6.254 0.165999V4.166ZM6.254 6.7H2.254L6.254 10.7V6.7ZM7.514 6.7H11.514L7.514 2.7V6.7ZM7.514 7.974H3.514L7.514 11.974V7.974ZM8.662 7.974V11.974L12.662 7.974H8.662ZM8.662 6.7V2.7L4.662 6.7H8.662ZM9.922 6.7V10.7L13.922 6.7H9.922ZM9.922 4.166V0.165999L5.922 4.166H9.922ZM11.35 4.166H15.35L11.35 0.165999V4.166ZM11.35 6.84V10.84L15.35 6.84H11.35ZM10.062 6.84V2.84L6.062 6.84H10.062ZM10.062 8.1V12.1L14.062 8.1H10.062ZM8.802 8.1V4.1L4.802 8.1H8.802ZM8.802 13.168V17.168L12.802 13.168H8.802ZM11.374 13.168V8.1H3.374V13.168H11.374ZM7.374 4.1H6.114V12.1H7.374V4.1ZM10.114 8.1V6.84H2.114V8.1H10.114ZM6.114 2.84H4.84V10.84H6.114V2.84ZM8.84 6.84V4.166H0.84V6.84H8.84ZM4.84 8.166H6.254V0.165999H4.84V8.166ZM2.254 4.166V6.7H10.254V4.166H2.254ZM6.254 10.7H7.514V2.7H6.254V10.7ZM3.514 6.7V7.974H11.514V6.7H3.514ZM7.514 11.974H8.662V3.974H7.514V11.974ZM12.662 7.974V6.7H4.662V7.974H12.662ZM8.662 10.7H9.922V2.7H8.662V10.7ZM13.922 6.7V4.166H5.922V6.7H13.922ZM9.922 8.166H11.35V0.165999H9.922V8.166ZM7.35 4.166V6.84H15.35V4.166H7.35ZM11.35 2.84H10.062V10.84H11.35V2.84ZM6.062 6.84V8.1H14.062V6.84H6.062ZM10.062 4.1H8.802V12.1H10.062V4.1ZM4.802 8.1V13.168H12.802V8.1H4.802ZM8.802 9.168H7.374V17.168H8.802V9.168ZM13.3328 13.168H9.33275L13.3328 17.168V13.168ZM13.3328 11.908H17.3328L13.3328 7.908V11.908ZM12.0588 11.908H8.05875L12.0588 15.908V11.908ZM12.0588 7.974V3.974L8.05875 7.974H12.0588ZM13.3328 7.974V11.974L17.3328 7.974H13.3328ZM13.3328 6.7V2.7L9.33275 6.7H13.3328ZM17.2808 6.7H21.2808L17.2808 2.7V6.7ZM17.2808 7.974H13.2808L17.2808 11.974V7.974ZM18.5688 7.974H22.5688L18.5688 3.974V7.974ZM18.5688 9.36V13.36L22.5688 9.36H18.5688ZM17.1407 9.36H13.1407L17.1407 13.36V9.36ZM17.1407 8.1H21.1408L17.1407 4.1V8.1ZM13.4727 8.1V4.1L9.47275 8.1H13.4727ZM13.4727 9.22H9.47275L13.4727 13.22V9.22ZM16.0208 9.22H20.0208L16.0208 5.22V9.22ZM16.0208 10.634V14.634L20.0208 10.634H16.0208ZM13.4727 10.634V6.634L9.47275 10.634H13.4727ZM13.4727 11.768H9.47275L13.4727 15.768V11.768ZM17.1407 11.768V15.768L21.1408 11.768H17.1407ZM17.1407 10.48V6.48L13.1407 10.48H17.1407ZM18.5688 10.48H22.5688L18.5688 6.48V10.48ZM18.5688 11.894V15.894L22.5688 11.894H18.5688ZM17.2808 11.894V7.894L13.2808 11.894H17.2808ZM17.2808 13.168V17.168L21.2808 13.168H17.2808ZM17.3328 13.168V11.908H9.33275V13.168H17.3328ZM13.3328 7.908H12.0588V15.908H13.3328V7.908ZM16.0588 11.908V7.974H8.05875V11.908H16.0588ZM12.0588 11.974H13.3328V3.974H12.0588V11.974ZM17.3328 7.974V6.7H9.33275V7.974H17.3328ZM13.3328 10.7H17.2808V2.7H13.3328V10.7ZM13.2808 6.7V7.974H21.2808V6.7H13.2808ZM17.2808 11.974H18.5688V3.974H17.2808V11.974ZM14.5688 7.974V9.36H22.5688V7.974H14.5688ZM18.5688 5.36H17.1407V13.36H18.5688V5.36ZM21.1408 9.36V8.1H13.1407V9.36H21.1408ZM17.1407 4.1H13.4727V12.1H17.1407V4.1ZM9.47275 8.1V9.22H17.4727V8.1H9.47275ZM13.4727 13.22H16.0208V5.22H13.4727V13.22ZM12.0208 9.22V10.634H20.0208V9.22H12.0208ZM16.0208 6.634H13.4727V14.634H16.0208V6.634ZM9.47275 10.634V11.768H17.4727V10.634H9.47275ZM13.4727 15.768H17.1407V7.768H13.4727V15.768ZM21.1408 11.768V10.48H13.1407V11.768H21.1408ZM17.1407 14.48H18.5688V6.48H17.1407V14.48ZM14.5688 10.48V11.894H22.5688V10.48H14.5688ZM18.5688 7.894H17.2808V15.894H18.5688V7.894ZM13.2808 11.894V13.168H21.2808V11.894H13.2808ZM17.2808 9.168H13.3328V17.168H17.2808V9.168ZM21.5359 13.168H17.5359L21.5359 17.168V13.168ZM21.5359 11.908H25.5359L21.5359 7.908V11.908ZM20.2619 11.908H16.2619L20.2619 15.908V11.908ZM20.2619 7.974V3.974L16.2619 7.974H20.2619ZM21.5359 7.974V11.974L25.5359 7.974H21.5359ZM21.5359 6.7V2.7L17.5359 6.7H21.5359ZM25.4839 6.7H29.4839L25.4839 2.7V6.7ZM25.4839 7.974H21.4839L25.4839 11.974V7.974ZM26.7719 7.974H30.7719L26.7719 3.974V7.974ZM26.7719 9.36V13.36L30.7719 9.36H26.7719ZM25.3439 9.36H21.3439L25.3439 13.36V9.36ZM25.3439 8.1H29.3439L25.3439 4.1V8.1ZM21.6759 8.1V4.1L17.6759 8.1H21.6759ZM21.6759 9.22H17.6759L21.6759 13.22V9.22ZM24.2239 9.22H28.2239L24.2239 5.22V9.22ZM24.2239 10.634V14.634L28.2239 10.634H24.2239ZM21.6759 10.634V6.634L17.6759 10.634H21.6759ZM21.6759 11.768H17.6759L21.6759 15.768V11.768ZM25.3439 11.768V15.768L29.3439 11.768H25.3439ZM25.3439 10.48V6.48L21.3439 10.48H25.3439ZM26.7719 10.48H30.7719L26.7719 6.48V10.48ZM26.7719 11.894V15.894L30.7719 11.894H26.7719ZM25.4839 11.894V7.894L21.4839 11.894H25.4839ZM25.4839 13.168V17.168L29.4839 13.168H25.4839ZM25.5359 13.168V11.908H17.5359V13.168H25.5359ZM21.5359 7.908H20.2619V15.908H21.5359V7.908ZM24.2619 11.908V7.974H16.2619V11.908H24.2619ZM20.2619 11.974H21.5359V3.974H20.2619V11.974ZM25.5359 7.974V6.7H17.5359V7.974H25.5359ZM21.5359 10.7H25.4839V2.7H21.5359V10.7ZM21.4839 6.7V7.974H29.4839V6.7H21.4839ZM25.4839 11.974H26.7719V3.974H25.4839V11.974ZM22.7719 7.974V9.36H30.7719V7.974H22.7719ZM26.7719 5.36H25.3439V13.36H26.7719V5.36ZM29.3439 9.36V8.1H21.3439V9.36H29.3439ZM25.3439 4.1H21.6759V12.1H25.3439V4.1ZM17.6759 8.1V9.22H25.6759V8.1H17.6759ZM21.6759 13.22H24.2239V5.22H21.6759V13.22ZM20.2239 9.22V10.634H28.2239V9.22H20.2239ZM24.2239 6.634H21.6759V14.634H24.2239V6.634ZM17.6759 10.634V11.768H25.6759V10.634H17.6759ZM21.6759 15.768H25.3439V7.768H21.6759V15.768ZM29.3439 11.768V10.48H21.3439V11.768H29.3439ZM25.3439 14.48H26.7719V6.48H25.3439V14.48ZM22.7719 10.48V11.894H30.7719V10.48H22.7719ZM26.7719 7.894H25.4839V15.894H26.7719V7.894ZM21.4839 11.894V13.168H29.4839V11.894H21.4839ZM25.4839 9.168H21.5359V17.168H25.4839V9.168ZM30.999 13.168H26.999L30.999 17.168V13.168ZM30.999 11.908H34.999L30.999 7.908V11.908ZM29.739 11.908H25.739L29.739 15.908V11.908ZM29.739 8.1H33.739L29.739 4.1V8.1ZM28.465 8.1H24.465L28.465 12.1V8.1ZM28.465 6.7V2.7L24.465 6.7H28.465ZM29.739 6.7V10.7L33.739 6.7H29.739ZM29.739 4.166V0.165999L25.739 4.166H29.739ZM31.139 4.166H35.139L31.139 0.165999V4.166ZM31.139 6.7H27.139L31.139 10.7V6.7ZM34.975 6.7H38.975L34.975 2.7V6.7ZM34.975 8.1V12.1L38.975 8.1H34.975ZM31.139 8.1V4.1L27.139 8.1H31.139ZM31.139 11.768H27.139L31.139 15.768V11.768ZM34.835 11.768V15.768L38.835 11.768H34.835ZM34.835 10.494V6.494L30.835 10.494H34.835ZM36.249 10.494H40.249L36.249 6.494V10.494ZM36.249 11.908V15.908L40.249 11.908H36.249ZM34.975 11.908V7.908L30.975 11.908H34.975ZM34.975 13.168V17.168L38.975 13.168H34.975ZM34.999 13.168V11.908H26.999V13.168H34.999ZM30.999 7.908H29.739V15.908H30.999V7.908ZM33.739 11.908V8.1H25.739V11.908H33.739ZM29.739 4.1H28.465V12.1H29.739V4.1ZM32.465 8.1V6.7H24.465V8.1H32.465ZM28.465 10.7H29.739V2.7H28.465V10.7ZM33.739 6.7V4.166H25.739V6.7H33.739ZM29.739 8.166H31.139V0.165999H29.739V8.166ZM27.139 4.166V6.7H35.139V4.166H27.139ZM31.139 10.7H34.975V2.7H31.139V10.7ZM30.975 6.7V8.1H38.975V6.7H30.975ZM34.975 4.1H31.139V12.1H34.975V4.1ZM27.139 8.1V11.768H35.139V8.1H27.139ZM31.139 15.768H34.835V7.768H31.139V15.768ZM38.835 11.768V10.494H30.835V11.768H38.835ZM34.835 14.494H36.249V6.494H34.835V14.494ZM32.249 10.494V11.908H40.249V10.494H32.249ZM36.249 7.908H34.975V15.908H36.249V7.908ZM30.975 11.908V13.168H38.975V11.908H30.975ZM34.975 9.168H30.999V17.168H34.975V9.168ZM40.2243 10.2H36.2243L40.2243 14.2V10.2ZM40.2243 8.786V4.786L36.2243 8.786H40.2243ZM44.1723 8.786H48.1723L44.1723 4.786V8.786ZM44.1723 10.2V14.2L48.1723 10.2H44.1723ZM44.2243 10.2V8.786H36.2243V10.2H44.2243ZM40.2243 12.786H44.1723V4.786H40.2243V12.786ZM40.1723 8.786V10.2H48.1723V8.786H40.1723ZM44.1723 6.2H40.2243V14.2H44.1723V6.2ZM50.7412 13.168H46.7412L50.7412 17.168V13.168ZM50.7412 11.908H54.7412L50.7412 7.908V11.908ZM49.4812 11.908H45.4812L49.4812 15.908V11.908ZM49.4812 8.1H53.4812L49.4812 4.1V8.1ZM48.2072 8.1H44.2072L48.2072 12.1V8.1ZM48.2072 6.7V2.7L44.2072 6.7H48.2072ZM49.4812 6.7V10.7L53.4812 6.7H49.4812ZM49.4812 4.166V0.165999L45.4812 4.166H49.4812ZM50.8812 4.166H54.8812L50.8812 0.165999V4.166ZM50.8812 6.7H46.8812L50.8812 10.7V6.7ZM54.7172 6.7H58.7172L54.7172 2.7V6.7ZM54.7172 8.1V12.1L58.7172 8.1H54.7172ZM50.8812 8.1V4.1L46.8812 8.1H50.8812ZM50.8812 11.768H46.8812L50.8812 15.768V11.768ZM54.5772 11.768V15.768L58.5772 11.768H54.5772ZM54.5772 10.494V6.494L50.5772 10.494H54.5772ZM55.9912 10.494H59.9912L55.9912 6.494V10.494ZM55.9912 11.908V15.908L59.9912 11.908H55.9912ZM54.7172 11.908V7.908L50.7172 11.908H54.7172ZM54.7172 13.168V17.168L58.7172 13.168H54.7172ZM54.7412 13.168V11.908H46.7412V13.168H54.7412ZM50.7412 7.908H49.4812V15.908H50.7412V7.908ZM53.4812 11.908V8.1H45.4812V11.908H53.4812ZM49.4812 4.1H48.2072V12.1H49.4812V4.1ZM52.2072 8.1V6.7H44.2072V8.1H52.2072ZM48.2072 10.7H49.4812V2.7H48.2072V10.7ZM53.4812 6.7V4.166H45.4812V6.7H53.4812ZM49.4812 8.166H50.8812V0.165999H49.4812V8.166ZM46.8812 4.166V6.7H54.8812V4.166H46.8812ZM50.8812 10.7H54.7172V2.7H50.8812V10.7ZM50.7172 6.7V8.1H58.7172V6.7H50.7172ZM54.7172 4.1H50.8812V12.1H54.7172V4.1ZM46.8812 8.1V11.768H54.8812V8.1H46.8812ZM50.8812 15.768H54.5772V7.768H50.8812V15.768ZM58.5772 11.768V10.494H50.5772V11.768H58.5772ZM54.5772 14.494H55.9912V6.494H54.5772V14.494ZM51.9912 10.494V11.908H59.9912V10.494H51.9912ZM55.9912 7.908H54.7172V15.908H55.9912V7.908ZM50.7172 11.908V13.168H58.7172V11.908H50.7172ZM54.7172 9.168H50.7412V17.168H54.7172V9.168ZM57.4084 13.168H53.4084L57.4084 17.168V13.168ZM57.4084 5.44V1.44L53.4084 5.44H57.4084ZM58.6824 5.44V9.44L62.6824 5.44H58.6824ZM58.6824 4.166V0.165999L54.6824 4.166H58.6824ZM62.6304 4.166H66.6304L62.6304 0.165999V4.166ZM62.6304 5.44H58.6304L62.6304 9.44V5.44ZM63.9184 5.44H67.9184L63.9184 1.44V5.44ZM63.9184 6.84V10.84L67.9184 6.84H63.9184ZM62.4904 6.84H58.4904L62.4904 10.84V6.84ZM62.4904 5.58H66.4904L62.4904 1.58V5.58ZM58.8224 5.58V1.58L54.8224 5.58H58.8224ZM58.8224 7.974H54.8224L58.8224 11.974V7.974ZM61.3704 7.974H65.3704L61.3704 3.974V7.974ZM61.3704 9.36V13.36L65.3704 9.36H61.3704ZM58.8224 9.36V5.36L54.8224 9.36H58.8224ZM58.8224 13.168V17.168L62.8224 13.168H58.8224ZM61.4084 13.168V5.44H53.4084V13.168H61.4084ZM57.4084 9.44H58.6824V1.44H57.4084V9.44ZM62.6824 5.44V4.166H54.6824V5.44H62.6824ZM58.6824 8.166H62.6304V0.165999H58.6824V8.166ZM58.6304 4.166V5.44H66.6304V4.166H58.6304ZM62.6304 9.44H63.9184V1.44H62.6304V9.44ZM59.9184 5.44V6.84H67.9184V5.44H59.9184ZM63.9184 2.84H62.4904V10.84H63.9184V2.84ZM66.4904 6.84V5.58H58.4904V6.84H66.4904ZM62.4904 1.58H58.8224V9.58H62.4904V1.58ZM54.8224 5.58V7.974H62.8224V5.58H54.8224ZM58.8224 11.974H61.3704V3.974H58.8224V11.974ZM57.3704 7.974V9.36H65.3704V7.974H57.3704ZM61.3704 5.36H58.8224V13.36H61.3704V5.36ZM54.8224 9.36V13.168H62.8224V9.36H54.8224ZM58.8224 9.168H57.4084V17.168H58.8224V9.168ZM64.6271 13.168H60.6271L64.6271 17.168V13.168ZM64.6271 6.7V2.7L60.6271 6.7H64.6271ZM69.8491 6.7H73.8491L69.8491 2.7V6.7ZM69.8491 7.974H65.8491L69.8491 11.974V7.974ZM71.1371 7.974H75.1371L71.1371 3.974V7.974ZM71.1371 13.168V17.168L75.1371 13.168H71.1371ZM69.7091 13.168H65.7091L69.7091 17.168V13.168ZM69.7091 8.1H73.7091L69.7091 4.1V8.1ZM66.0411 8.1V4.1L62.0411 8.1H66.0411ZM66.0411 13.168V17.168L70.0411 13.168H66.0411ZM68.6271 13.168V6.7H60.6271V13.168H68.6271ZM64.6271 10.7H69.8491V2.7H64.6271V10.7ZM65.8491 6.7V7.974H73.8491V6.7H65.8491ZM69.8491 11.974H71.1371V3.974H69.8491V11.974ZM67.1371 7.974V13.168H75.1371V7.974H67.1371ZM71.1371 9.168H69.7091V17.168H71.1371V9.168ZM73.7091 13.168V8.1H65.7091V13.168H73.7091ZM69.7091 4.1H66.0411V12.1H69.7091V4.1ZM62.0411 8.1V13.168H70.0411V8.1H62.0411ZM66.0411 9.168H64.6271V17.168H66.0411V9.168ZM73.6804 13.168H69.6804L73.6804 17.168V13.168ZM73.6804 11.908H77.6804L73.6804 7.908V11.908ZM72.4064 11.908H68.4064L72.4064 15.908V11.908ZM72.4064 7.974V3.974L68.4064 7.974H72.4064ZM73.6804 7.974V11.974L77.6804 7.974H73.6804ZM73.6804 6.7V2.7L69.6804 6.7H73.6804ZM77.6284 6.7H81.6284L77.6284 2.7V6.7ZM77.6284 7.974H73.6284L77.6284 11.974V7.974ZM78.9164 7.974H82.9164L78.9164 3.974V7.974ZM78.9164 11.908V15.908L82.9164 11.908H78.9164ZM77.6284 11.908V7.908L73.6284 11.908H77.6284ZM77.6284 13.168V17.168L81.6284 13.168H77.6284ZM73.8204 11.768H69.8204L73.8204 15.768V11.768ZM77.4884 11.768V15.768L81.4884 11.768H77.4884ZM77.4884 8.1H81.4884L77.4884 4.1V8.1ZM73.8204 8.1V4.1L69.8204 8.1H73.8204ZM77.6804 13.168V11.908H69.6804V13.168H77.6804ZM73.6804 7.908H72.4064V15.908H73.6804V7.908ZM76.4064 11.908V7.974H68.4064V11.908H76.4064ZM72.4064 11.974H73.6804V3.974H72.4064V11.974ZM77.6804 7.974V6.7H69.6804V7.974H77.6804ZM73.6804 10.7H77.6284V2.7H73.6804V10.7ZM73.6284 6.7V7.974H81.6284V6.7H73.6284ZM77.6284 11.974H78.9164V3.974H77.6284V11.974ZM74.9164 7.974V11.908H82.9164V7.974H74.9164ZM78.9164 7.908H77.6284V15.908H78.9164V7.908ZM73.6284 11.908V13.168H81.6284V11.908H73.6284ZM77.6284 9.168H73.6804V17.168H77.6284V9.168ZM73.8204 15.768H77.4884V7.768H73.8204V15.768ZM81.4884 11.768V8.1H73.4884V11.768H81.4884ZM77.4884 4.1H73.8204V12.1H77.4884V4.1ZM69.8204 8.1V11.768H77.8204V8.1H69.8204ZM83.0175 13.168H79.0175L83.0175 17.168V13.168ZM83.0175 11.908H87.0175L83.0175 7.908V11.908ZM81.7435 11.908H77.7435L81.7435 15.908V11.908ZM81.7435 9.36H85.7435L81.7435 5.36V9.36ZM80.4695 9.36H76.4695L80.4695 13.36V9.36ZM80.4695 6.7V2.7L76.4695 6.7H80.4695ZM81.8835 6.7H85.8835L81.8835 2.7V6.7ZM81.8835 9.22H77.8835L81.8835 13.22V9.22ZM83.1435 9.22H87.1435L83.1435 5.22V9.22ZM83.1435 11.768H79.1435L83.1435 15.768V11.768ZM84.2915 11.768V15.768L88.2915 11.768H84.2915ZM84.2915 9.22V5.22L80.2915 9.22H84.2915ZM85.5515 9.22V13.22L89.5515 9.22H85.5515ZM85.5515 6.7V2.7L81.5515 6.7H85.5515ZM86.9795 6.7H90.9795L86.9795 2.7V6.7ZM86.9795 9.36V13.36L90.9795 9.36H86.9795ZM85.6915 9.36V5.36L81.6915 9.36H85.6915ZM85.6915 11.908V15.908L89.6915 11.908H85.6915ZM84.4315 11.908V7.908L80.4315 11.908H84.4315ZM84.4315 13.168V17.168L88.4315 13.168H84.4315ZM87.0175 13.168V11.908H79.0175V13.168H87.0175ZM83.0175 7.908H81.7435V15.908H83.0175V7.908ZM85.7435 11.908V9.36H77.7435V11.908H85.7435ZM81.7435 5.36H80.4695V13.36H81.7435V5.36ZM84.4695 9.36V6.7H76.4695V9.36H84.4695ZM80.4695 10.7H81.8835V2.7H80.4695V10.7ZM77.8835 6.7V9.22H85.8835V6.7H77.8835ZM81.8835 13.22H83.1435V5.22H81.8835V13.22ZM79.1435 9.22V11.768H87.1435V9.22H79.1435ZM83.1435 15.768H84.2915V7.768H83.1435V15.768ZM88.2915 11.768V9.22H80.2915V11.768H88.2915ZM84.2915 13.22H85.5515V5.22H84.2915V13.22ZM89.5515 9.22V6.7H81.5515V9.22H89.5515ZM85.5515 10.7H86.9795V2.7H85.5515V10.7ZM82.9795 6.7V9.36H90.9795V6.7H82.9795ZM86.9795 5.36H85.6915V13.36H86.9795V5.36ZM81.6915 9.36V11.908H89.6915V9.36H81.6915ZM85.6915 7.908H84.4315V15.908H85.6915V7.908ZM80.4315 11.908V13.168H88.4315V11.908H80.4315ZM84.4315 9.168H83.0175V17.168H84.4315V9.168ZM89.9499 13.168H85.9499L89.9499 17.168V13.168ZM89.9499 11.908H93.9499L89.9499 7.908V11.908ZM88.6759 11.908H84.6759L88.6759 15.908V11.908ZM88.6759 9.22V5.22L84.6759 9.22H88.6759ZM89.9499 9.22V13.22L93.9499 9.22H89.9499ZM89.9499 7.974V3.974L85.9499 7.974H89.9499ZM93.7579 7.974V11.974L97.7579 7.974H93.7579ZM93.7579 5.58H97.7579L93.7579 1.58V5.58ZM90.0899 5.58V1.58L86.0899 5.58H90.0899ZM90.0899 6.84V10.84L94.0899 6.84H90.0899ZM88.6759 6.84H84.6759L88.6759 10.84V6.84ZM88.6759 5.44V1.44L84.6759 5.44H88.6759ZM89.9499 5.44V9.44L93.9499 5.44H89.9499ZM89.9499 4.166V0.165999L85.9499 4.166H89.9499ZM93.8979 4.166H97.8979L93.8979 0.165999V4.166ZM93.8979 5.44H89.8979L93.8979 9.44V5.44ZM95.1859 5.44H99.1859L95.1859 1.44V5.44ZM95.1859 8.1V12.1L99.1859 8.1H95.1859ZM93.8979 8.1V4.1L89.8979 8.1H93.8979ZM93.8979 9.36V13.36L97.8979 9.36H93.8979ZM90.0899 9.36V5.36L86.0899 9.36H90.0899ZM90.0899 11.768H86.0899L90.0899 15.768V11.768ZM93.7579 11.768V15.768L97.7579 11.768H93.7579ZM93.7579 10.494V6.494L89.7579 10.494H93.7579ZM95.1859 10.494H99.1859L95.1859 6.494V10.494ZM95.1859 11.908V15.908L99.1859 11.908H95.1859ZM93.8979 11.908V7.908L89.8979 11.908H93.8979ZM93.8979 13.168V17.168L97.8979 13.168H93.8979ZM93.9499 13.168V11.908H85.9499V13.168H93.9499ZM89.9499 7.908H88.6759V15.908H89.9499V7.908ZM92.6759 11.908V9.22H84.6759V11.908H92.6759ZM88.6759 13.22H89.9499V5.22H88.6759V13.22ZM93.9499 9.22V7.974H85.9499V9.22H93.9499ZM89.9499 11.974H93.7579V3.974H89.9499V11.974ZM97.7579 7.974V5.58H89.7579V7.974H97.7579ZM93.7579 1.58H90.0899V9.58H93.7579V1.58ZM86.0899 5.58V6.84H94.0899V5.58H86.0899ZM90.0899 2.84H88.6759V10.84H90.0899V2.84ZM92.6759 6.84V5.44H84.6759V6.84H92.6759ZM88.6759 9.44H89.9499V1.44H88.6759V9.44ZM93.9499 5.44V4.166H85.9499V5.44H93.9499ZM89.9499 8.166H93.8979V0.165999H89.9499V8.166ZM89.8979 4.166V5.44H97.8979V4.166H89.8979ZM93.8979 9.44H95.1859V1.44H93.8979V9.44ZM91.1859 5.44V8.1H99.1859V5.44H91.1859ZM95.1859 4.1H93.8979V12.1H95.1859V4.1ZM89.8979 8.1V9.36H97.8979V8.1H89.8979ZM93.8979 5.36H90.0899V13.36H93.8979V5.36ZM86.0899 9.36V11.768H94.0899V9.36H86.0899ZM90.0899 15.768H93.7579V7.768H90.0899V15.768ZM97.7579 11.768V10.494H89.7579V11.768H97.7579ZM93.7579 14.494H95.1859V6.494H93.7579V14.494ZM91.1859 10.494V11.908H99.1859V10.494H91.1859ZM95.1859 7.908H93.8979V15.908H95.1859V7.908ZM89.8979 11.908V13.168H97.8979V11.908H89.8979ZM93.8979 9.168H89.9499V17.168H93.8979V9.168ZM96.8791 13.168H92.8791L96.8791 17.168V13.168ZM96.8791 4.166V0.165999L92.8791 4.166H96.8791ZM98.2931 4.166H102.293L98.2931 0.165999V4.166ZM98.2931 9.22H94.2931L98.2931 13.22V9.22ZM99.4131 9.22V13.22L103.413 9.22H99.4131ZM99.4131 7.974V3.974L95.4131 7.974H99.4131ZM101.961 7.974V11.974L105.961 7.974H101.961ZM101.961 6.7V2.7L97.9611 6.7H101.961ZM103.389 6.7H107.389L103.389 2.7V6.7ZM103.389 8.1V12.1L107.389 8.1H103.389ZM102.101 8.1V4.1L98.1011 8.1H102.101ZM102.101 9.36V13.36L106.101 9.36H102.101ZM99.5531 9.36V5.36L95.5531 9.36H99.5531ZM99.5531 10.494H95.5531L99.5531 14.494V10.494ZM102.101 10.494H106.101L102.101 6.494V10.494ZM102.101 11.768H98.1011L102.101 15.768V11.768ZM103.389 11.768H107.389L103.389 7.768V11.768ZM103.389 13.168V17.168L107.389 13.168H103.389ZM101.961 13.168H97.9611L101.961 17.168V13.168ZM101.961 11.908H105.961L101.961 7.908V11.908ZM99.4131 11.908H95.4131L99.4131 15.908V11.908ZM99.4131 10.634H103.413L99.4131 6.634V10.634ZM98.2931 10.634V6.634L94.2931 10.634H98.2931ZM98.2931 13.168V17.168L102.293 13.168H98.2931ZM100.879 13.168V4.166H92.8791V13.168H100.879ZM96.8791 8.166H98.2931V0.165999H96.8791V8.166ZM94.2931 4.166V9.22H102.293V4.166H94.2931ZM98.2931 13.22H99.4131V5.22H98.2931V13.22ZM103.413 9.22V7.974H95.4131V9.22H103.413ZM99.4131 11.974H101.961V3.974H99.4131V11.974ZM105.961 7.974V6.7H97.9611V7.974H105.961ZM101.961 10.7H103.389V2.7H101.961V10.7ZM99.3891 6.7V8.1H107.389V6.7H99.3891ZM103.389 4.1H102.101V12.1H103.389V4.1ZM98.1011 8.1V9.36H106.101V8.1H98.1011ZM102.101 5.36H99.5531V13.36H102.101V5.36ZM95.5531 9.36V10.494H103.553V9.36H95.5531ZM99.5531 14.494H102.101V6.494H99.5531V14.494ZM98.1011 10.494V11.768H106.101V10.494H98.1011ZM102.101 15.768H103.389V7.768H102.101V15.768ZM99.3891 11.768V13.168H107.389V11.768H99.3891ZM103.389 9.168H101.961V17.168H103.389V9.168ZM105.961 13.168V11.908H97.9611V13.168H105.961ZM101.961 7.908H99.4131V15.908H101.961V7.908ZM103.413 11.908V10.634H95.4131V11.908H103.413ZM99.4131 6.634H98.2931V14.634H99.4131V6.634ZM94.2931 10.634V13.168H102.293V10.634H94.2931ZM98.2931 9.168H96.8791V17.168H98.2931V9.168Z" fill="#819EF5" fill-opacity="0.5" mask="url(#path-1-outside-1_10_5)"/>
</svg>
