<svg width="128" height="38" viewBox="0 0 128 38" fill="none" xmlns="http://www.w3.org/2000/svg">
<g filter="url(#filter0_d_10_5)">
<mask id="path-1-outside-1_10_5" maskUnits="userSpaceOnUse" x="10" y="6" width="108" height="18" fill="black">
<rect fill="white" x="10" y="6" width="108" height="18"/>
<path d="M17.374 19.168V14.1H16.114V12.84H14.84V10.166H16.254V12.7H17.514V13.974H18.662V12.7H19.922V10.166H21.35V12.84H20.062V14.1H18.802V19.168H17.374ZM23.3328 19.168V17.908H22.0588V13.974H23.3328V12.7H27.2808V13.974H28.5688V15.36H27.1408V14.1H23.4728V15.22H26.0208V16.634H23.4728V17.768H27.1408V16.48H28.5688V17.894H27.2808V19.168H23.3328ZM31.5359 19.168V17.908H30.2619V13.974H31.5359V12.7H35.4839V13.974H36.7719V15.36H35.3439V14.1H31.6759V15.22H34.2239V16.634H31.6759V17.768H35.3439V16.48H36.7719V17.894H35.4839V19.168H31.5359ZM40.999 19.168V17.908H39.739V14.1H38.465V12.7H39.739V10.166H41.139V12.7H44.975V14.1H41.139V17.768H44.835V16.494H46.249V17.908H44.975V19.168H40.999ZM50.2243 16.2V14.786H54.1723V16.2H50.2243ZM60.7412 19.168V17.908H59.4812V14.1H58.2072V12.7H59.4812V10.166H60.8812V12.7H64.7172V14.1H60.8812V17.768H64.5772V16.494H65.9912V17.908H64.7172V19.168H60.7412ZM67.4084 19.168V11.44H68.6824V10.166H72.6304V11.44H73.9184V12.84H72.4904V11.58H68.8224V13.974H71.3704V15.36H68.8224V19.168H67.4084ZM74.6271 19.168V12.7H79.8491V13.974H81.1371V19.168H79.7091V14.1H76.0411V19.168H74.6271ZM83.6804 19.168V17.908H82.4064V13.974H83.6804V12.7H87.6284V13.974H88.9164V17.908H87.6284V19.168H83.6804ZM83.8204 17.768H87.4884V14.1H83.8204V17.768ZM93.0175 19.168V17.908H91.7435V15.36H90.4695V12.7H91.8835V15.22H93.1435V17.768H94.2915V15.22H95.5515V12.7H96.9795V15.36H95.6915V17.908H94.4315V19.168H93.0175ZM99.9499 19.168V17.908H98.6759V15.22H99.9499V13.974H103.758V11.58H100.09V12.84H98.6759V11.44H99.9499V10.166H103.898V11.44H105.186V14.1H103.898V15.36H100.09V17.768H103.758V16.494H105.186V17.908H103.898V19.168H99.9499ZM106.879 19.168V10.166H108.293V15.22H109.413V13.974H111.961V12.7H113.389V14.1H112.101V15.36H109.553V16.494H112.101V17.768H113.389V19.168H111.961V17.908H109.413V16.634H108.293V19.168H106.879Z"/>
</mask>
<path d="M17.374 19.168V14.1H16.114V12.84H14.84V10.166H16.254V12.7H17.514V13.974H18.662V12.7H19.922V10.166H21.35V12.84H20.062V14.1H18.802V19.168H17.374ZM23.3328 19.168V17.908H22.0588V13.974H23.3328V12.7H27.2808V13.974H28.5688V15.36H27.1408V14.1H23.4728V15.22H26.0208V16.634H23.4728V17.768H27.1408V16.48H28.5688V17.894H27.2808V19.168H23.3328ZM31.5359 19.168V17.908H30.2619V13.974H31.5359V12.7H35.4839V13.974H36.7719V15.36H35.3439V14.1H31.6759V15.22H34.2239V16.634H31.6759V17.768H35.3439V16.48H36.7719V17.894H35.4839V19.168H31.5359ZM40.999 19.168V17.908H39.739V14.1H38.465V12.7H39.739V10.166H41.139V12.7H44.975V14.1H41.139V17.768H44.835V16.494H46.249V17.908H44.975V19.168H40.999ZM50.2243 16.2V14.786H54.1723V16.2H50.2243ZM60.7412 19.168V17.908H59.4812V14.1H58.2072V12.7H59.4812V10.166H60.8812V12.7H64.7172V14.1H60.8812V17.768H64.5772V16.494H65.9912V17.908H64.7172V19.168H60.7412ZM67.4084 19.168V11.44H68.6824V10.166H72.6304V11.44H73.9184V12.84H72.4904V11.58H68.8224V13.974H71.3704V15.36H68.8224V19.168H67.4084ZM74.6271 19.168V12.7H79.8491V13.974H81.1371V19.168H79.7091V14.1H76.0411V19.168H74.6271ZM83.6804 19.168V17.908H82.4064V13.974H83.6804V12.7H87.6284V13.974H88.9164V17.908H87.6284V19.168H83.6804ZM83.8204 17.768H87.4884V14.1H83.8204V17.768ZM93.0175 19.168V17.908H91.7435V15.36H90.4695V12.7H91.8835V15.22H93.1435V17.768H94.2915V15.22H95.5515V12.7H96.9795V15.36H95.6915V17.908H94.4315V19.168H93.0175ZM99.9499 19.168V17.908H98.6759V15.22H99.9499V13.974H103.758V11.58H100.09V12.84H98.6759V11.44H99.9499V10.166H103.898V11.44H105.186V14.1H103.898V15.36H100.09V17.768H103.758V16.494H105.186V17.908H103.898V19.168H99.9499ZM106.879 19.168V10.166H108.293V15.22H109.413V13.974H111.961V12.7H113.389V14.1H112.101V15.36H109.553V16.494H112.101V17.768H113.389V19.168H111.961V17.908H109.413V16.634H108.293V19.168H106.879Z" fill="#DEE5FF"/>
<path d="M17.374 19.168H13.374L17.374 23.168V19.168ZM17.374 14.1H21.374L17.374 10.1V14.1ZM16.114 14.1H12.114L16.114 18.1V14.1ZM16.114 12.84H20.114L16.114 8.84V12.84ZM14.84 12.84H10.84L14.84 16.84V12.84ZM14.84 10.166V6.166L10.84 10.166H14.84ZM16.254 10.166H20.254L16.254 6.166V10.166ZM16.254 12.7H12.254L16.254 16.7V12.7ZM17.514 12.7H21.514L17.514 8.7V12.7ZM17.514 13.974H13.514L17.514 17.974V13.974ZM18.662 13.974V17.974L22.662 13.974H18.662ZM18.662 12.7V8.7L14.662 12.7H18.662ZM19.922 12.7V16.7L23.922 12.7H19.922ZM19.922 10.166V6.166L15.922 10.166H19.922ZM21.35 10.166H25.35L21.35 6.166V10.166ZM21.35 12.84V16.84L25.35 12.84H21.35ZM20.062 12.84V8.84L16.062 12.84H20.062ZM20.062 14.1V18.1L24.062 14.1H20.062ZM18.802 14.1V10.1L14.802 14.1H18.802ZM18.802 19.168V23.168L22.802 19.168H18.802ZM21.374 19.168V14.1H13.374V19.168H21.374ZM17.374 10.1H16.114V18.1H17.374V10.1ZM20.114 14.1V12.84H12.114V14.1H20.114ZM16.114 8.84H14.84V16.84H16.114V8.84ZM18.84 12.84V10.166H10.84V12.84H18.84ZM14.84 14.166H16.254V6.166H14.84V14.166ZM12.254 10.166V12.7H20.254V10.166H12.254ZM16.254 16.7H17.514V8.7H16.254V16.7ZM13.514 12.7V13.974H21.514V12.7H13.514ZM17.514 17.974H18.662V9.974H17.514V17.974ZM22.662 13.974V12.7H14.662V13.974H22.662ZM18.662 16.7H19.922V8.7H18.662V16.7ZM23.922 12.7V10.166H15.922V12.7H23.922ZM19.922 14.166H21.35V6.166H19.922V14.166ZM17.35 10.166V12.84H25.35V10.166H17.35ZM21.35 8.84H20.062V16.84H21.35V8.84ZM16.062 12.84V14.1H24.062V12.84H16.062ZM20.062 10.1H18.802V18.1H20.062V10.1ZM14.802 14.1V19.168H22.802V14.1H14.802ZM18.802 15.168H17.374V23.168H18.802V15.168ZM23.3328 19.168H19.3328L23.3328 23.168V19.168ZM23.3328 17.908H27.3328L23.3328 13.908V17.908ZM22.0588 17.908H18.0588L22.0588 21.908V17.908ZM22.0588 13.974V9.974L18.0588 13.974H22.0588ZM23.3328 13.974V17.974L27.3328 13.974H23.3328ZM23.3328 12.7V8.7L19.3328 12.7H23.3328ZM27.2808 12.7H31.2808L27.2808 8.7V12.7ZM27.2808 13.974H23.2808L27.2808 17.974V13.974ZM28.5688 13.974H32.5688L28.5688 9.974V13.974ZM28.5688 15.36V19.36L32.5688 15.36H28.5688ZM27.1407 15.36H23.1407L27.1407 19.36V15.36ZM27.1407 14.1H31.1408L27.1407 10.1V14.1ZM23.4727 14.1V10.1L19.4728 14.1H23.4727ZM23.4727 15.22H19.4728L23.4727 19.22V15.22ZM26.0208 15.22H30.0208L26.0208 11.22V15.22ZM26.0208 16.634V20.634L30.0208 16.634H26.0208ZM23.4727 16.634V12.634L19.4728 16.634H23.4727ZM23.4727 17.768H19.4728L23.4727 21.768V17.768ZM27.1407 17.768V21.768L31.1408 17.768H27.1407ZM27.1407 16.48V12.48L23.1407 16.48H27.1407ZM28.5688 16.48H32.5688L28.5688 12.48V16.48ZM28.5688 17.894V21.894L32.5688 17.894H28.5688ZM27.2808 17.894V13.894L23.2808 17.894H27.2808ZM27.2808 19.168V23.168L31.2808 19.168H27.2808ZM27.3328 19.168V17.908H19.3328V19.168H27.3328ZM23.3328 13.908H22.0588V21.908H23.3328V13.908ZM26.0588 17.908V13.974H18.0588V17.908H26.0588ZM22.0588 17.974H23.3328V9.974H22.0588V17.974ZM27.3328 13.974V12.7H19.3328V13.974H27.3328ZM23.3328 16.7H27.2808V8.7H23.3328V16.7ZM23.2808 12.7V13.974H31.2808V12.7H23.2808ZM27.2808 17.974H28.5688V9.974H27.2808V17.974ZM24.5688 13.974V15.36H32.5688V13.974H24.5688ZM28.5688 11.36H27.1407V19.36H28.5688V11.36ZM31.1408 15.36V14.1H23.1407V15.36H31.1408ZM27.1407 10.1H23.4727V18.1H27.1407V10.1ZM19.4728 14.1V15.22H27.4727V14.1H19.4728ZM23.4727 19.22H26.0208V11.22H23.4727V19.22ZM22.0208 15.22V16.634H30.0208V15.22H22.0208ZM26.0208 12.634H23.4727V20.634H26.0208V12.634ZM19.4728 16.634V17.768H27.4727V16.634H19.4728ZM23.4727 21.768H27.1407V13.768H23.4727V21.768ZM31.1408 17.768V16.48H23.1407V17.768H31.1408ZM27.1407 20.48H28.5688V12.48H27.1407V20.48ZM24.5688 16.48V17.894H32.5688V16.48H24.5688ZM28.5688 13.894H27.2808V21.894H28.5688V13.894ZM23.2808 17.894V19.168H31.2808V17.894H23.2808ZM27.2808 15.168H23.3328V23.168H27.2808V15.168ZM31.5359 19.168H27.5359L31.5359 23.168V19.168ZM31.5359 17.908H35.5359L31.5359 13.908V17.908ZM30.2619 17.908H26.2619L30.2619 21.908V17.908ZM30.2619 13.974V9.974L26.2619 13.974H30.2619ZM31.5359 13.974V17.974L35.5359 13.974H31.5359ZM31.5359 12.7V8.7L27.5359 12.7H31.5359ZM35.4839 12.7H39.4839L35.4839 8.7V12.7ZM35.4839 13.974H31.4839L35.4839 17.974V13.974ZM36.7719 13.974H40.7719L36.7719 9.974V13.974ZM36.7719 15.36V19.36L40.7719 15.36H36.7719ZM35.3439 15.36H31.3439L35.3439 19.36V15.36ZM35.3439 14.1H39.3439L35.3439 10.1V14.1ZM31.6759 14.1V10.1L27.6759 14.1H31.6759ZM31.6759 15.22H27.6759L31.6759 19.22V15.22ZM34.2239 15.22H38.2239L34.2239 11.22V15.22ZM34.2239 16.634V20.634L38.2239 16.634H34.2239ZM31.6759 16.634V12.634L27.6759 16.634H31.6759ZM31.6759 17.768H27.6759L31.6759 21.768V17.768ZM35.3439 17.768V21.768L39.3439 17.768H35.3439ZM35.3439 16.48V12.48L31.3439 16.48H35.3439ZM36.7719 16.48H40.7719L36.7719 12.48V16.48ZM36.7719 17.894V21.894L40.7719 17.894H36.7719ZM35.4839 17.894V13.894L31.4839 17.894H35.4839ZM35.4839 19.168V23.168L39.4839 19.168H35.4839ZM35.5359 19.168V17.908H27.5359V19.168H35.5359ZM31.5359 13.908H30.2619V21.908H31.5359V13.908ZM34.2619 17.908V13.974H26.2619V17.908H34.2619ZM30.2619 17.974H31.5359V9.974H30.2619V17.974ZM35.5359 13.974V12.7H27.5359V13.974H35.5359ZM31.5359 16.7H35.4839V8.7H31.5359V16.7ZM31.4839 12.7V13.974H39.4839V12.7H31.4839ZM35.4839 17.974H36.7719V9.974H35.4839V17.974ZM32.7719 13.974V15.36H40.7719V13.974H32.7719ZM36.7719 11.36H35.3439V19.36H36.7719V11.36ZM39.3439 15.36V14.1H31.3439V15.36H39.3439ZM35.3439 10.1H31.6759V18.1H35.3439V10.1ZM27.6759 14.1V15.22H35.6759V14.1H27.6759ZM31.6759 19.22H34.2239V11.22H31.6759V19.22ZM30.2239 15.22V16.634H38.2239V15.22H30.2239ZM34.2239 12.634H31.6759V20.634H34.2239V12.634ZM27.6759 16.634V17.768H35.6759V16.634H27.6759ZM31.6759 21.768H35.3439V13.768H31.6759V21.768ZM39.3439 17.768V16.48H31.3439V17.768H39.3439ZM35.3439 20.48H36.7719V12.48H35.3439V20.48ZM32.7719 16.48V17.894H40.7719V16.48H32.7719ZM36.7719 13.894H35.4839V21.894H36.7719V13.894ZM31.4839 17.894V19.168H39.4839V17.894H31.4839ZM35.4839 15.168H31.5359V23.168H35.4839V15.168ZM40.999 19.168H36.999L40.999 23.168V19.168ZM40.999 17.908H44.999L40.999 13.908V17.908ZM39.739 17.908H35.739L39.739 21.908V17.908ZM39.739 14.1H43.739L39.739 10.1V14.1ZM38.465 14.1H34.465L38.465 18.1V14.1ZM38.465 12.7V8.7L34.465 12.7H38.465ZM39.739 12.7V16.7L43.739 12.7H39.739ZM39.739 10.166V6.166L35.739 10.166H39.739ZM41.139 10.166H45.139L41.139 6.166V10.166ZM41.139 12.7H37.139L41.139 16.7V12.7ZM44.975 12.7H48.975L44.975 8.7V12.7ZM44.975 14.1V18.1L48.975 14.1H44.975ZM41.139 14.1V10.1L37.139 14.1H41.139ZM41.139 17.768H37.139L41.139 21.768V17.768ZM44.835 17.768V21.768L48.835 17.768H44.835ZM44.835 16.494V12.494L40.835 16.494H44.835ZM46.249 16.494H50.249L46.249 12.494V16.494ZM46.249 17.908V21.908L50.249 17.908H46.249ZM44.975 17.908V13.908L40.975 17.908H44.975ZM44.975 19.168V23.168L48.975 19.168H44.975ZM44.999 19.168V17.908H36.999V19.168H44.999ZM40.999 13.908H39.739V21.908H40.999V13.908ZM43.739 17.908V14.1H35.739V17.908H43.739ZM39.739 10.1H38.465V18.1H39.739V10.1ZM42.465 14.1V12.7H34.465V14.1H42.465ZM38.465 16.7H39.739V8.7H38.465V16.7ZM43.739 12.7V10.166H35.739V12.7H43.739ZM39.739 14.166H41.139V6.166H39.739V14.166ZM37.139 10.166V12.7H45.139V10.166H37.139ZM41.139 16.7H44.975V8.7H41.139V16.7ZM40.975 12.7V14.1H48.975V12.7H40.975ZM44.975 10.1H41.139V18.1H44.975V10.1ZM37.139 14.1V17.768H45.139V14.1H37.139ZM41.139 21.768H44.835V13.768H41.139V21.768ZM48.835 17.768V16.494H40.835V17.768H48.835ZM44.835 20.494H46.249V12.494H44.835V20.494ZM42.249 16.494V17.908H50.249V16.494H42.249ZM46.249 13.908H44.975V21.908H46.249V13.908ZM40.975 17.908V19.168H48.975V17.908H40.975ZM44.975 15.168H40.999V23.168H44.975V15.168ZM50.2243 16.2H46.2243L50.2243 20.2V16.2ZM50.2243 14.786V10.786L46.2243 14.786H50.2243ZM54.1723 14.786H58.1723L54.1723 10.786V14.786ZM54.1723 16.2V20.2L58.1723 16.2H54.1723ZM54.2243 16.2V14.786H46.2243V16.2H54.2243ZM50.2243 18.786H54.1723V10.786H50.2243V18.786ZM50.1723 14.786V16.2H58.1723V14.786H50.1723ZM54.1723 12.2H50.2243V20.2H54.1723V12.2ZM60.7412 19.168H56.7412L60.7412 23.168V19.168ZM60.7412 17.908H64.7412L60.7412 13.908V17.908ZM59.4812 17.908H55.4812L59.4812 21.908V17.908ZM59.4812 14.1H63.4812L59.4812 10.1V14.1ZM58.2072 14.1H54.2072L58.2072 18.1V14.1ZM58.2072 12.7V8.7L54.2072 12.7H58.2072ZM59.4812 12.7V16.7L63.4812 12.7H59.4812ZM59.4812 10.166V6.166L55.4812 10.166H59.4812ZM60.8812 10.166H64.8812L60.8812 6.166V10.166ZM60.8812 12.7H56.8812L60.8812 16.7V12.7ZM64.7172 12.7H68.7172L64.7172 8.7V12.7ZM64.7172 14.1V18.1L68.7172 14.1H64.7172ZM60.8812 14.1V10.1L56.8812 14.1H60.8812ZM60.8812 17.768H56.8812L60.8812 21.768V17.768ZM64.5772 17.768V21.768L68.5772 17.768H64.5772ZM64.5772 16.494V12.494L60.5772 16.494H64.5772ZM65.9912 16.494H69.9912L65.9912 12.494V16.494ZM65.9912 17.908V21.908L69.9912 17.908H65.9912ZM64.7172 17.908V13.908L60.7172 17.908H64.7172ZM64.7172 19.168V23.168L68.7172 19.168H64.7172ZM64.7412 19.168V17.908H56.7412V19.168H64.7412ZM60.7412 13.908H59.4812V21.908H60.7412V13.908ZM63.4812 17.908V14.1H55.4812V17.908H63.4812ZM59.4812 10.1H58.2072V18.1H59.4812V10.1ZM62.2072 14.1V12.7H54.2072V14.1H62.2072ZM58.2072 16.7H59.4812V8.7H58.2072V16.7ZM63.4812 12.7V10.166H55.4812V12.7H63.4812ZM59.4812 14.166H60.8812V6.166H59.4812V14.166ZM56.8812 10.166V12.7H64.8812V10.166H56.8812ZM60.8812 16.7H64.7172V8.7H60.8812V16.7ZM60.7172 12.7V14.1H68.7172V12.7H60.7172ZM64.7172 10.1H60.8812V18.1H64.7172V10.1ZM56.8812 14.1V17.768H64.8812V14.1H56.8812ZM60.8812 21.768H64.5772V13.768H60.8812V21.768ZM68.5772 17.768V16.494H60.5772V17.768H68.5772ZM64.5772 20.494H65.9912V12.494H64.5772V20.494ZM61.9912 16.494V17.908H69.9912V16.494H61.9912ZM65.9912 13.908H64.7172V21.908H65.9912V13.908ZM60.7172 17.908V19.168H68.7172V17.908H60.7172ZM64.7172 15.168H60.7412V23.168H64.7172V15.168ZM67.4084 19.168H63.4084L67.4084 23.168V19.168ZM67.4084 11.44V7.44L63.4084 11.44H67.4084ZM68.6824 11.44V15.44L72.6824 11.44H68.6824ZM68.6824 10.166V6.166L64.6824 10.166H68.6824ZM72.6304 10.166H76.6304L72.6304 6.166V10.166ZM72.6304 11.44H68.6304L72.6304 15.44V11.44ZM73.9184 11.44H77.9184L73.9184 7.44V11.44ZM73.9184 12.84V16.84L77.9184 12.84H73.9184ZM72.4904 12.84H68.4904L72.4904 16.84V12.84ZM72.4904 11.58H76.4904L72.4904 7.58V11.58ZM68.8224 11.58V7.58L64.8224 11.58H68.8224ZM68.8224 13.974H64.8224L68.8224 17.974V13.974ZM71.3704 13.974H75.3704L71.3704 9.974V13.974ZM71.3704 15.36V19.36L75.3704 15.36H71.3704ZM68.8224 15.36V11.36L64.8224 15.36H68.8224ZM68.8224 19.168V23.168L72.8224 19.168H68.8224ZM71.4084 19.168V11.44H63.4084V19.168H71.4084ZM67.4084 15.44H68.6824V7.44H67.4084V15.44ZM72.6824 11.44V10.166H64.6824V11.44H72.6824ZM68.6824 14.166H72.6304V6.166H68.6824V14.166ZM68.6304 10.166V11.44H76.6304V10.166H68.6304ZM72.6304 15.44H73.9184V7.44H72.6304V15.44ZM69.9184 11.44V12.84H77.9184V11.44H69.9184ZM73.9184 8.84H72.4904V16.84H73.9184V8.84ZM76.4904 12.84V11.58H68.4904V12.84H76.4904ZM72.4904 7.58H68.8224V15.58H72.4904V7.58ZM64.8224 11.58V13.974H72.8224V11.58H64.8224ZM68.8224 17.974H71.3704V9.974H68.8224V17.974ZM67.3704 13.974V15.36H75.3704V13.974H67.3704ZM71.3704 11.36H68.8224V19.36H71.3704V11.36ZM64.8224 15.36V19.168H72.8224V15.36H64.8224ZM68.8224 15.168H67.4084V23.168H68.8224V15.168ZM74.6271 19.168H70.6271L74.6271 23.168V19.168ZM74.6271 12.7V8.7L70.6271 12.7H74.6271ZM79.8491 12.7H83.8491L79.8491 8.7V12.7ZM79.8491 13.974H75.8491L79.8491 17.974V13.974ZM81.1371 13.974H85.1371L81.1371 9.974V13.974ZM81.1371 19.168V23.168L85.1371 19.168H81.1371ZM79.7091 19.168H75.7091L79.7091 23.168V19.168ZM79.7091 14.1H83.7091L79.7091 10.1V14.1ZM76.0411 14.1V10.1L72.0411 14.1H76.0411ZM76.0411 19.168V23.168L80.0411 19.168H76.0411ZM78.6271 19.168V12.7H70.6271V19.168H78.6271ZM74.6271 16.7H79.8491V8.7H74.6271V16.7ZM75.8491 12.7V13.974H83.8491V12.7H75.8491ZM79.8491 17.974H81.1371V9.974H79.8491V17.974ZM77.1371 13.974V19.168H85.1371V13.974H77.1371ZM81.1371 15.168H79.7091V23.168H81.1371V15.168ZM83.7091 19.168V14.1H75.7091V19.168H83.7091ZM79.7091 10.1H76.0411V18.1H79.7091V10.1ZM72.0411 14.1V19.168H80.0411V14.1H72.0411ZM76.0411 15.168H74.6271V23.168H76.0411V15.168ZM83.6804 19.168H79.6804L83.6804 23.168V19.168ZM83.6804 17.908H87.6804L83.6804 13.908V17.908ZM82.4064 17.908H78.4064L82.4064 21.908V17.908ZM82.4064 13.974V9.974L78.4064 13.974H82.4064ZM83.6804 13.974V17.974L87.6804 13.974H83.6804ZM83.6804 12.7V8.7L79.6804 12.7H83.6804ZM87.6284 12.7H91.6284L87.6284 8.7V12.7ZM87.6284 13.974H83.6284L87.6284 17.974V13.974ZM88.9164 13.974H92.9164L88.9164 9.974V13.974ZM88.9164 17.908V21.908L92.9164 17.908H88.9164ZM87.6284 17.908V13.908L83.6284 17.908H87.6284ZM87.6284 19.168V23.168L91.6284 19.168H87.6284ZM83.8204 17.768H79.8204L83.8204 21.768V17.768ZM87.4884 17.768V21.768L91.4884 17.768H87.4884ZM87.4884 14.1H91.4884L87.4884 10.1V14.1ZM83.8204 14.1V10.1L79.8204 14.1H83.8204ZM87.6804 19.168V17.908H79.6804V19.168H87.6804ZM83.6804 13.908H82.4064V21.908H83.6804V13.908ZM86.4064 17.908V13.974H78.4064V17.908H86.4064ZM82.4064 17.974H83.6804V9.974H82.4064V17.974ZM87.6804 13.974V12.7H79.6804V13.974H87.6804ZM83.6804 16.7H87.6284V8.7H83.6804V16.7ZM83.6284 12.7V13.974H91.6284V12.7H83.6284ZM87.6284 17.974H88.9164V9.974H87.6284V17.974ZM84.9164 13.974V17.908H92.9164V13.974H84.9164ZM88.9164 13.908H87.6284V21.908H88.9164V13.908ZM83.6284 17.908V19.168H91.6284V17.908H83.6284ZM87.6284 15.168H83.6804V23.168H87.6284V15.168ZM83.8204 21.768H87.4884V13.768H83.8204V21.768ZM91.4884 17.768V14.1H83.4884V17.768H91.4884ZM87.4884 10.1H83.8204V18.1H87.4884V10.1ZM79.8204 14.1V17.768H87.8204V14.1H79.8204ZM93.0175 19.168H89.0175L93.0175 23.168V19.168ZM93.0175 17.908H97.0175L93.0175 13.908V17.908ZM91.7435 17.908H87.7435L91.7435 21.908V17.908ZM91.7435 15.36H95.7435L91.7435 11.36V15.36ZM90.4695 15.36H86.4695L90.4695 19.36V15.36ZM90.4695 12.7V8.7L86.4695 12.7H90.4695ZM91.8835 12.7H95.8835L91.8835 8.7V12.7ZM91.8835 15.22H87.8835L91.8835 19.22V15.22ZM93.1435 15.22H97.1435L93.1435 11.22V15.22ZM93.1435 17.768H89.1435L93.1435 21.768V17.768ZM94.2915 17.768V21.768L98.2915 17.768H94.2915ZM94.2915 15.22V11.22L90.2915 15.22H94.2915ZM95.5515 15.22V19.22L99.5515 15.22H95.5515ZM95.5515 12.7V8.7L91.5515 12.7H95.5515ZM96.9795 12.7H100.98L96.9795 8.7V12.7ZM96.9795 15.36V19.36L100.98 15.36H96.9795ZM95.6915 15.36V11.36L91.6915 15.36H95.6915ZM95.6915 17.908V21.908L99.6915 17.908H95.6915ZM94.4315 17.908V13.908L90.4315 17.908H94.4315ZM94.4315 19.168V23.168L98.4315 19.168H94.4315ZM97.0175 19.168V17.908H89.0175V19.168H97.0175ZM93.0175 13.908H91.7435V21.908H93.0175V13.908ZM95.7435 17.908V15.36H87.7435V17.908H95.7435ZM91.7435 11.36H90.4695V19.36H91.7435V11.36ZM94.4695 15.36V12.7H86.4695V15.36H94.4695ZM90.4695 16.7H91.8835V8.7H90.4695V16.7ZM87.8835 12.7V15.22H95.8835V12.7H87.8835ZM91.8835 19.22H93.1435V11.22H91.8835V19.22ZM89.1435 15.22V17.768H97.1435V15.22H89.1435ZM93.1435 21.768H94.2915V13.768H93.1435V21.768ZM98.2915 17.768V15.22H90.2915V17.768H98.2915ZM94.2915 19.22H95.5515V11.22H94.2915V19.22ZM99.5515 15.22V12.7H91.5515V15.22H99.5515ZM95.5515 16.7H96.9795V8.7H95.5515V16.7ZM92.9795 12.7V15.36H100.98V12.7H92.9795ZM96.9795 11.36H95.6915V19.36H96.9795V11.36ZM91.6915 15.36V17.908H99.6915V15.36H91.6915ZM95.6915 13.908H94.4315V21.908H95.6915V13.908ZM90.4315 17.908V19.168H98.4315V17.908H90.4315ZM94.4315 15.168H93.0175V23.168H94.4315V15.168ZM99.9499 19.168H95.9499L99.9499 23.168V19.168ZM99.9499 17.908H103.95L99.9499 13.908V17.908ZM98.6759 17.908H94.6759L98.6759 21.908V17.908ZM98.6759 15.22V11.22L94.6759 15.22H98.6759ZM99.9499 15.22V19.22L103.95 15.22H99.9499ZM99.9499 13.974V9.974L95.9499 13.974H99.9499ZM103.758 13.974V17.974L107.758 13.974H103.758ZM103.758 11.58H107.758L103.758 7.58V11.58ZM100.09 11.58V7.58L96.0899 11.58H100.09ZM100.09 12.84V16.84L104.09 12.84H100.09ZM98.6759 12.84H94.6759L98.6759 16.84V12.84ZM98.6759 11.44V7.44L94.6759 11.44H98.6759ZM99.9499 11.44V15.44L103.95 11.44H99.9499ZM99.9499 10.166V6.166L95.9499 10.166H99.9499ZM103.898 10.166H107.898L103.898 6.166V10.166ZM103.898 11.44H99.8979L103.898 15.44V11.44ZM105.186 11.44H109.186L105.186 7.44V11.44ZM105.186 14.1V18.1L109.186 14.1H105.186ZM103.898 14.1V10.1L99.8979 14.1H103.898ZM103.898 15.36V19.36L107.898 15.36H103.898ZM100.09 15.36V11.36L96.0899 15.36H100.09ZM100.09 17.768H96.0899L100.09 21.768V17.768ZM103.758 17.768V21.768L107.758 17.768H103.758ZM103.758 16.494V12.494L99.7579 16.494H103.758ZM105.186 16.494H109.186L105.186 12.494V16.494ZM105.186 17.908V21.908L109.186 17.908H105.186ZM103.898 17.908V13.908L99.8979 17.908H103.898ZM103.898 19.168V23.168L107.898 19.168H103.898ZM103.95 19.168V17.908H95.9499V19.168H103.95ZM99.9499 13.908H98.6759V21.908H99.9499V13.908ZM102.676 17.908V15.22H94.6759V17.908H102.676ZM98.6759 19.22H99.9499V11.22H98.6759V19.22ZM103.95 15.22V13.974H95.9499V15.22H103.95ZM99.9499 17.974H103.758V9.974H99.9499V17.974ZM107.758 13.974V11.58H99.7579V13.974H107.758ZM103.758 7.58H100.09V15.58H103.758V7.58ZM96.0899 11.58V12.84H104.09V11.58H96.0899ZM100.09 8.84H98.6759V16.84H100.09V8.84ZM102.676 12.84V11.44H94.6759V12.84H102.676ZM98.6759 15.44H99.9499V7.44H98.6759V15.44ZM103.95 11.44V10.166H95.9499V11.44H103.95ZM99.9499 14.166H103.898V6.166H99.9499V14.166ZM99.8979 10.166V11.44H107.898V10.166H99.8979ZM103.898 15.44H105.186V7.44H103.898V15.44ZM101.186 11.44V14.1H109.186V11.44H101.186ZM105.186 10.1H103.898V18.1H105.186V10.1ZM99.8979 14.1V15.36H107.898V14.1H99.8979ZM103.898 11.36H100.09V19.36H103.898V11.36ZM96.0899 15.36V17.768H104.09V15.36H96.0899ZM100.09 21.768H103.758V13.768H100.09V21.768ZM107.758 17.768V16.494H99.7579V17.768H107.758ZM103.758 20.494H105.186V12.494H103.758V20.494ZM101.186 16.494V17.908H109.186V16.494H101.186ZM105.186 13.908H103.898V21.908H105.186V13.908ZM99.8979 17.908V19.168H107.898V17.908H99.8979ZM103.898 15.168H99.9499V23.168H103.898V15.168ZM106.879 19.168H102.879L106.879 23.168V19.168ZM106.879 10.166V6.166L102.879 10.166H106.879ZM108.293 10.166H112.293L108.293 6.166V10.166ZM108.293 15.22H104.293L108.293 19.22V15.22ZM109.413 15.22V19.22L113.413 15.22H109.413ZM109.413 13.974V9.974L105.413 13.974H109.413ZM111.961 13.974V17.974L115.961 13.974H111.961ZM111.961 12.7V8.7L107.961 12.7H111.961ZM113.389 12.7H117.389L113.389 8.7V12.7ZM113.389 14.1V18.1L117.389 14.1H113.389ZM112.101 14.1V10.1L108.101 14.1H112.101ZM112.101 15.36V19.36L116.101 15.36H112.101ZM109.553 15.36V11.36L105.553 15.36H109.553ZM109.553 16.494H105.553L109.553 20.494V16.494ZM112.101 16.494H116.101L112.101 12.494V16.494ZM112.101 17.768H108.101L112.101 21.768V17.768ZM113.389 17.768H117.389L113.389 13.768V17.768ZM113.389 19.168V23.168L117.389 19.168H113.389ZM111.961 19.168H107.961L111.961 23.168V19.168ZM111.961 17.908H115.961L111.961 13.908V17.908ZM109.413 17.908H105.413L109.413 21.908V17.908ZM109.413 16.634H113.413L109.413 12.634V16.634ZM108.293 16.634V12.634L104.293 16.634H108.293ZM108.293 19.168V23.168L112.293 19.168H108.293ZM110.879 19.168V10.166H102.879V19.168H110.879ZM106.879 14.166H108.293V6.166H106.879V14.166ZM104.293 10.166V15.22H112.293V10.166H104.293ZM108.293 19.22H109.413V11.22H108.293V19.22ZM113.413 15.22V13.974H105.413V15.22H113.413ZM109.413 17.974H111.961V9.974H109.413V17.974ZM115.961 13.974V12.7H107.961V13.974H115.961ZM111.961 16.7H113.389V8.7H111.961V16.7ZM109.389 12.7V14.1H117.389V12.7H109.389ZM113.389 10.1H112.101V18.1H113.389V10.1ZM108.101 14.1V15.36H116.101V14.1H108.101ZM112.101 11.36H109.553V19.36H112.101V11.36ZM105.553 15.36V16.494H113.553V15.36H105.553ZM109.553 20.494H112.101V12.494H109.553V20.494ZM108.101 16.494V17.768H116.101V16.494H108.101ZM112.101 21.768H113.389V13.768H112.101V21.768ZM109.389 17.768V19.168H117.389V17.768H109.389ZM113.389 15.168H111.961V23.168H113.389V15.168ZM115.961 19.168V17.908H107.961V19.168H115.961ZM111.961 13.908H109.413V21.908H111.961V13.908ZM113.413 17.908V16.634H105.413V17.908H113.413ZM109.413 12.634H108.293V20.634H109.413V12.634ZM104.293 16.634V19.168H112.293V16.634H104.293ZM108.293 15.168H106.879V23.168H108.293V15.168Z" fill="#819EF5" mask="url(#path-1-outside-1_10_5)"/>
</g>
<defs>
<filter id="filter0_d_10_5" x="0.84" y="0.166" width="126.549" height="37.002" filterUnits="userSpaceOnUse" color-interpolation-filters="sRGB">
<feFlood flood-opacity="0" result="BackgroundImageFix"/>
<feColorMatrix in="SourceAlpha" type="matrix" values="0 0 0 0 0 0 0 0 0 0 0 0 0 0 0 0 0 0 127 0" result="hardAlpha"/>
<feOffset dy="4"/>
<feGaussianBlur stdDeviation="5"/>
<feComposite in2="hardAlpha" operator="out"/>
<feColorMatrix type="matrix" values="0 0 0 0 0.870588 0 0 0 0 0.898039 0 0 0 0 1 0 0 0 1 0"/>
<feBlend mode="normal" in2="BackgroundImageFix" result="effect1_dropShadow_10_5"/>
<feBlend mode="normal" in="SourceGraphic" in2="effect1_dropShadow_10_5" result="shape"/>
</filter>
</defs>
</svg>
