<svg width="109" height="19" viewBox="0 0 109 19" fill="none" xmlns="http://www.w3.org/2000/svg">
<mask id="path-1-outside-1_22_2" maskUnits="userSpaceOnUse" x="0" y="0" width="109" height="19" fill="black">
<rect fill="white" width="109" height="19"/>
<path d="M7.615 14.18V8.75H6.265V7.4H4.9V4.535H6.415V7.25H7.765V8.615H8.995V7.25H10.345V4.535H11.875V7.4H10.495V8.75H9.145V14.18H7.615ZM13.9994 14.18V12.83H12.6344V8.615H13.9994V7.25H18.2294V8.615H19.6094V10.1H18.0794V8.75H14.1494V9.95H16.8794V11.465H14.1494V12.68H18.0794V11.3H19.6094V12.815H18.2294V14.18H13.9994ZM22.7884 14.18V12.83H21.4234V8.615H22.7884V7.25H27.0184V8.615H28.3984V10.1H26.8684V8.75H22.9384V9.95H25.6684V11.465H22.9384V12.68H26.8684V11.3H28.3984V12.815H27.0184V14.18H22.7884ZM32.9275 14.18V12.83H31.5775V8.75H30.2125V7.25H31.5775V4.535H33.0775V7.25H37.1875V8.75H33.0775V12.68H37.0375V11.315H38.5525V12.83H37.1875V14.18H32.9275ZM39.8089 11V9.485H44.0389V11H39.8089ZM48.074 14.18V12.83H46.724V8.75H45.359V7.25H46.724V4.535H48.224V7.25H52.334V8.75H48.224V12.68H52.184V11.315H53.699V12.83H52.334V14.18H48.074ZM55.2174 14.18V5.9H56.5824V4.535H60.8124V5.9H62.1924V7.4H60.6624V6.05H56.7324V8.615H59.4624V10.1H56.7324V14.18H55.2174ZM62.9518 14.18V7.25H68.5468V8.615H69.9268V14.18H68.3968V8.75H64.4668V14.18H62.9518ZM72.6517 14.18V12.83H71.2867V8.615H72.6517V7.25H76.8817V8.615H78.2617V12.83H76.8817V14.18H72.6517ZM72.8017 12.68H76.7317V8.75H72.8017V12.68ZM82.6558 14.18V12.83H81.2908V10.1H79.9258V7.25H81.4408V9.95H82.7908V12.68H84.0208V9.95H85.3708V7.25H86.9008V10.1H85.5208V12.83H84.1708V14.18H82.6558ZM90.0834 14.18V12.83H88.7184V9.95H90.0834V8.615H94.1634V6.05H90.2334V7.4H88.7184V5.9H90.0834V4.535H94.3134V5.9H95.6934V8.75H94.3134V10.1H90.2334V12.68H94.1634V11.315H95.6934V12.83H94.3134V14.18H90.0834ZM97.5074 14.18V4.535H99.0224V9.95H100.222V8.615H102.952V7.25H104.482V8.75H103.102V10.1H100.372V11.315H103.102V12.68H104.482V14.18H102.952V12.83H100.222V11.465H99.0224V14.18H97.5074Z"/>
</mask>
<path d="M7.615 14.18V8.75H6.265V7.4H4.9V4.535H6.415V7.25H7.765V8.615H8.995V7.25H10.345V4.535H11.875V7.4H10.495V8.75H9.145V14.18H7.615ZM13.9994 14.18V12.83H12.6344V8.615H13.9994V7.25H18.2294V8.615H19.6094V10.1H18.0794V8.75H14.1494V9.95H16.8794V11.465H14.1494V12.68H18.0794V11.3H19.6094V12.815H18.2294V14.18H13.9994ZM22.7884 14.18V12.83H21.4234V8.615H22.7884V7.25H27.0184V8.615H28.3984V10.1H26.8684V8.75H22.9384V9.95H25.6684V11.465H22.9384V12.68H26.8684V11.3H28.3984V12.815H27.0184V14.18H22.7884ZM32.9275 14.18V12.83H31.5775V8.75H30.2125V7.25H31.5775V4.535H33.0775V7.25H37.1875V8.75H33.0775V12.68H37.0375V11.315H38.5525V12.83H37.1875V14.18H32.9275ZM39.8089 11V9.485H44.0389V11H39.8089ZM48.074 14.18V12.83H46.724V8.75H45.359V7.25H46.724V4.535H48.224V7.25H52.334V8.75H48.224V12.68H52.184V11.315H53.699V12.83H52.334V14.18H48.074ZM55.2174 14.18V5.9H56.5824V4.535H60.8124V5.9H62.1924V7.4H60.6624V6.05H56.7324V8.615H59.4624V10.1H56.7324V14.18H55.2174ZM62.9518 14.18V7.25H68.5468V8.615H69.9268V14.18H68.3968V8.75H64.4668V14.18H62.9518ZM72.6517 14.18V12.83H71.2867V8.615H72.6517V7.25H76.8817V8.615H78.2617V12.83H76.8817V14.18H72.6517ZM72.8017 12.68H76.7317V8.75H72.8017V12.68ZM82.6558 14.18V12.83H81.2908V10.1H79.9258V7.25H81.4408V9.95H82.7908V12.68H84.0208V9.95H85.3708V7.25H86.9008V10.1H85.5208V12.83H84.1708V14.18H82.6558ZM90.0834 14.18V12.83H88.7184V9.95H90.0834V8.615H94.1634V6.05H90.2334V7.4H88.7184V5.9H90.0834V4.535H94.3134V5.9H95.6934V8.75H94.3134V10.1H90.2334V12.68H94.1634V11.315H95.6934V12.83H94.3134V14.18H90.0834ZM97.5074 14.18V4.535H99.0224V9.95H100.222V8.615H102.952V7.25H104.482V8.75H103.102V10.1H100.372V11.315H103.102V12.68H104.482V14.18H102.952V12.83H100.222V11.465H99.0224V14.18H97.5074Z" fill="#FEDDF2"/>
<path d="M7.615 14.18H3.615L7.615 18.18V14.18ZM7.615 8.75H11.615L7.615 4.75V8.75ZM6.265 8.75H2.265L6.265 12.75V8.75ZM6.265 7.4H10.265L6.265 3.4V7.4ZM4.9 7.4H0.9L4.9 11.4V7.4ZM4.9 4.535V0.534999L0.9 4.535H4.9ZM6.415 4.535H10.415L6.415 0.534999V4.535ZM6.415 7.25H2.415L6.415 11.25V7.25ZM7.765 7.25H11.765L7.765 3.25V7.25ZM7.765 8.615H3.765L7.765 12.615V8.615ZM8.995 8.615V12.615L12.995 8.615H8.995ZM8.995 7.25V3.25L4.995 7.25H8.995ZM10.345 7.25V11.25L14.345 7.25H10.345ZM10.345 4.535V0.534999L6.345 4.535H10.345ZM11.875 4.535H15.875L11.875 0.534999V4.535ZM11.875 7.4V11.4L15.875 7.4H11.875ZM10.495 7.4V3.4L6.495 7.4H10.495ZM10.495 8.75V12.75L14.495 8.75H10.495ZM9.145 8.75V4.75L5.145 8.75H9.145ZM9.145 14.18V18.18L13.145 14.18H9.145ZM11.615 14.18V8.75H3.615V14.18H11.615ZM7.615 4.75H6.265V12.75H7.615V4.75ZM10.265 8.75V7.4H2.265V8.75H10.265ZM6.265 3.4H4.9V11.4H6.265V3.4ZM8.9 7.4V4.535H0.9V7.4H8.9ZM4.9 8.535H6.415V0.534999H4.9V8.535ZM2.415 4.535V7.25H10.415V4.535H2.415ZM6.415 11.25H7.765V3.25H6.415V11.25ZM3.765 7.25V8.615H11.765V7.25H3.765ZM7.765 12.615H8.995V4.615H7.765V12.615ZM12.995 8.615V7.25H4.995V8.615H12.995ZM8.995 11.25H10.345V3.25H8.995V11.25ZM14.345 7.25V4.535H6.345V7.25H14.345ZM10.345 8.535H11.875V0.534999H10.345V8.535ZM7.875 4.535V7.4H15.875V4.535H7.875ZM11.875 3.4H10.495V11.4H11.875V3.4ZM6.495 7.4V8.75H14.495V7.4H6.495ZM10.495 4.75H9.145V12.75H10.495V4.75ZM5.145 8.75V14.18H13.145V8.75H5.145ZM9.145 10.18H7.615V18.18H9.145V10.18ZM13.9994 14.18H9.99938L13.9994 18.18V14.18ZM13.9994 12.83H17.9994L13.9994 8.83V12.83ZM12.6344 12.83H8.63438L12.6344 16.83V12.83ZM12.6344 8.615V4.615L8.63438 8.615H12.6344ZM13.9994 8.615V12.615L17.9994 8.615H13.9994ZM13.9994 7.25V3.25L9.99938 7.25H13.9994ZM18.2294 7.25H22.2294L18.2294 3.25V7.25ZM18.2294 8.615H14.2294L18.2294 12.615V8.615ZM19.6094 8.615H23.6094L19.6094 4.615V8.615ZM19.6094 10.1V14.1L23.6094 10.1H19.6094ZM18.0794 10.1H14.0794L18.0794 14.1V10.1ZM18.0794 8.75H22.0794L18.0794 4.75V8.75ZM14.1494 8.75V4.75L10.1494 8.75H14.1494ZM14.1494 9.95H10.1494L14.1494 13.95V9.95ZM16.8794 9.95H20.8794L16.8794 5.95V9.95ZM16.8794 11.465V15.465L20.8794 11.465H16.8794ZM14.1494 11.465V7.465L10.1494 11.465H14.1494ZM14.1494 12.68H10.1494L14.1494 16.68V12.68ZM18.0794 12.68V16.68L22.0794 12.68H18.0794ZM18.0794 11.3V7.3L14.0794 11.3H18.0794ZM19.6094 11.3H23.6094L19.6094 7.3V11.3ZM19.6094 12.815V16.815L23.6094 12.815H19.6094ZM18.2294 12.815V8.815L14.2294 12.815H18.2294ZM18.2294 14.18V18.18L22.2294 14.18H18.2294ZM17.9994 14.18V12.83H9.99938V14.18H17.9994ZM13.9994 8.83H12.6344V16.83H13.9994V8.83ZM16.6344 12.83V8.615H8.63438V12.83H16.6344ZM12.6344 12.615H13.9994V4.615H12.6344V12.615ZM17.9994 8.615V7.25H9.99938V8.615H17.9994ZM13.9994 11.25H18.2294V3.25H13.9994V11.25ZM14.2294 7.25V8.615H22.2294V7.25H14.2294ZM18.2294 12.615H19.6094V4.615H18.2294V12.615ZM15.6094 8.615V10.1H23.6094V8.615H15.6094ZM19.6094 6.1H18.0794V14.1H19.6094V6.1ZM22.0794 10.1V8.75H14.0794V10.1H22.0794ZM18.0794 4.75H14.1494V12.75H18.0794V4.75ZM10.1494 8.75V9.95H18.1494V8.75H10.1494ZM14.1494 13.95H16.8794V5.95H14.1494V13.95ZM12.8794 9.95V11.465H20.8794V9.95H12.8794ZM16.8794 7.465H14.1494V15.465H16.8794V7.465ZM10.1494 11.465V12.68H18.1494V11.465H10.1494ZM14.1494 16.68H18.0794V8.68H14.1494V16.68ZM22.0794 12.68V11.3H14.0794V12.68H22.0794ZM18.0794 15.3H19.6094V7.3H18.0794V15.3ZM15.6094 11.3V12.815H23.6094V11.3H15.6094ZM19.6094 8.815H18.2294V16.815H19.6094V8.815ZM14.2294 12.815V14.18H22.2294V12.815H14.2294ZM18.2294 10.18H13.9994V18.18H18.2294V10.18ZM22.7884 14.18H18.7884L22.7884 18.18V14.18ZM22.7884 12.83H26.7884L22.7884 8.83V12.83ZM21.4234 12.83H17.4234L21.4234 16.83V12.83ZM21.4234 8.615V4.615L17.4234 8.615H21.4234ZM22.7884 8.615V12.615L26.7884 8.615H22.7884ZM22.7884 7.25V3.25L18.7884 7.25H22.7884ZM27.0184 7.25H31.0184L27.0184 3.25V7.25ZM27.0184 8.615H23.0184L27.0184 12.615V8.615ZM28.3984 8.615H32.3984L28.3984 4.615V8.615ZM28.3984 10.1V14.1L32.3984 10.1H28.3984ZM26.8684 10.1H22.8684L26.8684 14.1V10.1ZM26.8684 8.75H30.8684L26.8684 4.75V8.75ZM22.9384 8.75V4.75L18.9384 8.75H22.9384ZM22.9384 9.95H18.9384L22.9384 13.95V9.95ZM25.6684 9.95H29.6684L25.6684 5.95V9.95ZM25.6684 11.465V15.465L29.6684 11.465H25.6684ZM22.9384 11.465V7.465L18.9384 11.465H22.9384ZM22.9384 12.68H18.9384L22.9384 16.68V12.68ZM26.8684 12.68V16.68L30.8684 12.68H26.8684ZM26.8684 11.3V7.3L22.8684 11.3H26.8684ZM28.3984 11.3H32.3984L28.3984 7.3V11.3ZM28.3984 12.815V16.815L32.3984 12.815H28.3984ZM27.0184 12.815V8.815L23.0184 12.815H27.0184ZM27.0184 14.18V18.18L31.0184 14.18H27.0184ZM26.7884 14.18V12.83H18.7884V14.18H26.7884ZM22.7884 8.83H21.4234V16.83H22.7884V8.83ZM25.4234 12.83V8.615H17.4234V12.83H25.4234ZM21.4234 12.615H22.7884V4.615H21.4234V12.615ZM26.7884 8.615V7.25H18.7884V8.615H26.7884ZM22.7884 11.25H27.0184V3.25H22.7884V11.25ZM23.0184 7.25V8.615H31.0184V7.25H23.0184ZM27.0184 12.615H28.3984V4.615H27.0184V12.615ZM24.3984 8.615V10.1H32.3984V8.615H24.3984ZM28.3984 6.1H26.8684V14.1H28.3984V6.1ZM30.8684 10.1V8.75H22.8684V10.1H30.8684ZM26.8684 4.75H22.9384V12.75H26.8684V4.75ZM18.9384 8.75V9.95H26.9384V8.75H18.9384ZM22.9384 13.95H25.6684V5.95H22.9384V13.95ZM21.6684 9.95V11.465H29.6684V9.95H21.6684ZM25.6684 7.465H22.9384V15.465H25.6684V7.465ZM18.9384 11.465V12.68H26.9384V11.465H18.9384ZM22.9384 16.68H26.8684V8.68H22.9384V16.68ZM30.8684 12.68V11.3H22.8684V12.68H30.8684ZM26.8684 15.3H28.3984V7.3H26.8684V15.3ZM24.3984 11.3V12.815H32.3984V11.3H24.3984ZM28.3984 8.815H27.0184V16.815H28.3984V8.815ZM23.0184 12.815V14.18H31.0184V12.815H23.0184ZM27.0184 10.18H22.7884V18.18H27.0184V10.18ZM32.9275 14.18H28.9275L32.9275 18.18V14.18ZM32.9275 12.83H36.9275L32.9275 8.83V12.83ZM31.5775 12.83H27.5775L31.5775 16.83V12.83ZM31.5775 8.75H35.5775L31.5775 4.75V8.75ZM30.2125 8.75H26.2125L30.2125 12.75V8.75ZM30.2125 7.25V3.25L26.2125 7.25H30.2125ZM31.5775 7.25V11.25L35.5775 7.25H31.5775ZM31.5775 4.535V0.534999L27.5775 4.535H31.5775ZM33.0775 4.535H37.0775L33.0775 0.534999V4.535ZM33.0775 7.25H29.0775L33.0775 11.25V7.25ZM37.1875 7.25H41.1875L37.1875 3.25V7.25ZM37.1875 8.75V12.75L41.1875 8.75H37.1875ZM33.0775 8.75V4.75L29.0775 8.75H33.0775ZM33.0775 12.68H29.0775L33.0775 16.68V12.68ZM37.0375 12.68V16.68L41.0375 12.68H37.0375ZM37.0375 11.315V7.315L33.0375 11.315H37.0375ZM38.5525 11.315H42.5525L38.5525 7.315V11.315ZM38.5525 12.83V16.83L42.5525 12.83H38.5525ZM37.1875 12.83V8.83L33.1875 12.83H37.1875ZM37.1875 14.18V18.18L41.1875 14.18H37.1875ZM36.9275 14.18V12.83H28.9275V14.18H36.9275ZM32.9275 8.83H31.5775V16.83H32.9275V8.83ZM35.5775 12.83V8.75H27.5775V12.83H35.5775ZM31.5775 4.75H30.2125V12.75H31.5775V4.75ZM34.2125 8.75V7.25H26.2125V8.75H34.2125ZM30.2125 11.25H31.5775V3.25H30.2125V11.25ZM35.5775 7.25V4.535H27.5775V7.25H35.5775ZM31.5775 8.535H33.0775V0.534999H31.5775V8.535ZM29.0775 4.535V7.25H37.0775V4.535H29.0775ZM33.0775 11.25H37.1875V3.25H33.0775V11.25ZM33.1875 7.25V8.75H41.1875V7.25H33.1875ZM37.1875 4.75H33.0775V12.75H37.1875V4.75ZM29.0775 8.75V12.68H37.0775V8.75H29.0775ZM33.0775 16.68H37.0375V8.68H33.0775V16.68ZM41.0375 12.68V11.315H33.0375V12.68H41.0375ZM37.0375 15.315H38.5525V7.315H37.0375V15.315ZM34.5525 11.315V12.83H42.5525V11.315H34.5525ZM38.5525 8.83H37.1875V16.83H38.5525V8.83ZM33.1875 12.83V14.18H41.1875V12.83H33.1875ZM37.1875 10.18H32.9275V18.18H37.1875V10.18ZM39.8089 11H35.8089L39.8089 15V11ZM39.8089 9.485V5.485L35.8089 9.485H39.8089ZM44.0389 9.485H48.0389L44.0389 5.485V9.485ZM44.0389 11V15L48.0389 11H44.0389ZM43.8089 11V9.485H35.8089V11H43.8089ZM39.8089 13.485H44.0389V5.485H39.8089V13.485ZM40.0389 9.485V11H48.0389V9.485H40.0389ZM44.0389 7H39.8089V15H44.0389V7ZM48.074 14.18H44.074L48.074 18.18V14.18ZM48.074 12.83H52.074L48.074 8.83V12.83ZM46.724 12.83H42.724L46.724 16.83V12.83ZM46.724 8.75H50.724L46.724 4.75V8.75ZM45.359 8.75H41.359L45.359 12.75V8.75ZM45.359 7.25V3.25L41.359 7.25H45.359ZM46.724 7.25V11.25L50.724 7.25H46.724ZM46.724 4.535V0.534999L42.724 4.535H46.724ZM48.224 4.535H52.224L48.224 0.534999V4.535ZM48.224 7.25H44.224L48.224 11.25V7.25ZM52.334 7.25H56.334L52.334 3.25V7.25ZM52.334 8.75V12.75L56.334 8.75H52.334ZM48.224 8.75V4.75L44.224 8.75H48.224ZM48.224 12.68H44.224L48.224 16.68V12.68ZM52.184 12.68V16.68L56.184 12.68H52.184ZM52.184 11.315V7.315L48.184 11.315H52.184ZM53.699 11.315H57.699L53.699 7.315V11.315ZM53.699 12.83V16.83L57.699 12.83H53.699ZM52.334 12.83V8.83L48.334 12.83H52.334ZM52.334 14.18V18.18L56.334 14.18H52.334ZM52.074 14.18V12.83H44.074V14.18H52.074ZM48.074 8.83H46.724V16.83H48.074V8.83ZM50.724 12.83V8.75H42.724V12.83H50.724ZM46.724 4.75H45.359V12.75H46.724V4.75ZM49.359 8.75V7.25H41.359V8.75H49.359ZM45.359 11.25H46.724V3.25H45.359V11.25ZM50.724 7.25V4.535H42.724V7.25H50.724ZM46.724 8.535H48.224V0.534999H46.724V8.535ZM44.224 4.535V7.25H52.224V4.535H44.224ZM48.224 11.25H52.334V3.25H48.224V11.25ZM48.334 7.25V8.75H56.334V7.25H48.334ZM52.334 4.75H48.224V12.75H52.334V4.75ZM44.224 8.75V12.68H52.224V8.75H44.224ZM48.224 16.68H52.184V8.68H48.224V16.68ZM56.184 12.68V11.315H48.184V12.68H56.184ZM52.184 15.315H53.699V7.315H52.184V15.315ZM49.699 11.315V12.83H57.699V11.315H49.699ZM53.699 8.83H52.334V16.83H53.699V8.83ZM48.334 12.83V14.18H56.334V12.83H48.334ZM52.334 10.18H48.074V18.18H52.334V10.18ZM55.2174 14.18H51.2174L55.2174 18.18V14.18ZM55.2174 5.9V1.9L51.2174 5.9H55.2174ZM56.5824 5.9V9.9L60.5824 5.9H56.5824ZM56.5824 4.535V0.534999L52.5824 4.535H56.5824ZM60.8124 4.535H64.8124L60.8124 0.534999V4.535ZM60.8124 5.9H56.8124L60.8124 9.9V5.9ZM62.1924 5.9H66.1924L62.1924 1.9V5.9ZM62.1924 7.4V11.4L66.1924 7.4H62.1924ZM60.6624 7.4H56.6624L60.6624 11.4V7.4ZM60.6624 6.05H64.6624L60.6624 2.05V6.05ZM56.7324 6.05V2.05L52.7324 6.05H56.7324ZM56.7324 8.615H52.7324L56.7324 12.615V8.615ZM59.4624 8.615H63.4624L59.4624 4.615V8.615ZM59.4624 10.1V14.1L63.4624 10.1H59.4624ZM56.7324 10.1V6.1L52.7324 10.1H56.7324ZM56.7324 14.18V18.18L60.7324 14.18H56.7324ZM59.2174 14.18V5.9H51.2174V14.18H59.2174ZM55.2174 9.9H56.5824V1.9H55.2174V9.9ZM60.5824 5.9V4.535H52.5824V5.9H60.5824ZM56.5824 8.535H60.8124V0.534999H56.5824V8.535ZM56.8124 4.535V5.9H64.8124V4.535H56.8124ZM60.8124 9.9H62.1924V1.9H60.8124V9.9ZM58.1924 5.9V7.4H66.1924V5.9H58.1924ZM62.1924 3.4H60.6624V11.4H62.1924V3.4ZM64.6624 7.4V6.05H56.6624V7.4H64.6624ZM60.6624 2.05H56.7324V10.05H60.6624V2.05ZM52.7324 6.05V8.615H60.7324V6.05H52.7324ZM56.7324 12.615H59.4624V4.615H56.7324V12.615ZM55.4624 8.615V10.1H63.4624V8.615H55.4624ZM59.4624 6.1H56.7324V14.1H59.4624V6.1ZM52.7324 10.1V14.18H60.7324V10.1H52.7324ZM56.7324 10.18H55.2174V18.18H56.7324V10.18ZM62.9518 14.18H58.9518L62.9518 18.18V14.18ZM62.9518 7.25V3.25L58.9518 7.25H62.9518ZM68.5468 7.25H72.5468L68.5468 3.25V7.25ZM68.5468 8.615H64.5468L68.5468 12.615V8.615ZM69.9268 8.615H73.9268L69.9268 4.615V8.615ZM69.9268 14.18V18.18L73.9268 14.18H69.9268ZM68.3968 14.18H64.3968L68.3968 18.18V14.18ZM68.3968 8.75H72.3968L68.3968 4.75V8.75ZM64.4668 8.75V4.75L60.4668 8.75H64.4668ZM64.4668 14.18V18.18L68.4668 14.18H64.4668ZM66.9518 14.18V7.25H58.9518V14.18H66.9518ZM62.9518 11.25H68.5468V3.25H62.9518V11.25ZM64.5468 7.25V8.615H72.5468V7.25H64.5468ZM68.5468 12.615H69.9268V4.615H68.5468V12.615ZM65.9268 8.615V14.18H73.9268V8.615H65.9268ZM69.9268 10.18H68.3968V18.18H69.9268V10.18ZM72.3968 14.18V8.75H64.3968V14.18H72.3968ZM68.3968 4.75H64.4668V12.75H68.3968V4.75ZM60.4668 8.75V14.18H68.4668V8.75H60.4668ZM64.4668 10.18H62.9518V18.18H64.4668V10.18ZM72.6517 14.18H68.6517L72.6517 18.18V14.18ZM72.6517 12.83H76.6517L72.6517 8.83V12.83ZM71.2867 12.83H67.2867L71.2867 16.83V12.83ZM71.2867 8.615V4.615L67.2867 8.615H71.2867ZM72.6517 8.615V12.615L76.6517 8.615H72.6517ZM72.6517 7.25V3.25L68.6517 7.25H72.6517ZM76.8817 7.25H80.8817L76.8817 3.25V7.25ZM76.8817 8.615H72.8817L76.8817 12.615V8.615ZM78.2617 8.615H82.2617L78.2617 4.615V8.615ZM78.2617 12.83V16.83L82.2617 12.83H78.2617ZM76.8817 12.83V8.83L72.8817 12.83H76.8817ZM76.8817 14.18V18.18L80.8817 14.18H76.8817ZM72.8017 12.68H68.8017L72.8017 16.68V12.68ZM76.7317 12.68V16.68L80.7317 12.68H76.7317ZM76.7317 8.75H80.7317L76.7317 4.75V8.75ZM72.8017 8.75V4.75L68.8017 8.75H72.8017ZM76.6517 14.18V12.83H68.6517V14.18H76.6517ZM72.6517 8.83H71.2867V16.83H72.6517V8.83ZM75.2867 12.83V8.615H67.2867V12.83H75.2867ZM71.2867 12.615H72.6517V4.615H71.2867V12.615ZM76.6517 8.615V7.25H68.6517V8.615H76.6517ZM72.6517 11.25H76.8817V3.25H72.6517V11.25ZM72.8817 7.25V8.615H80.8817V7.25H72.8817ZM76.8817 12.615H78.2617V4.615H76.8817V12.615ZM74.2617 8.615V12.83H82.2617V8.615H74.2617ZM78.2617 8.83H76.8817V16.83H78.2617V8.83ZM72.8817 12.83V14.18H80.8817V12.83H72.8817ZM76.8817 10.18H72.6517V18.18H76.8817V10.18ZM72.8017 16.68H76.7317V8.68H72.8017V16.68ZM80.7317 12.68V8.75H72.7317V12.68H80.7317ZM76.7317 4.75H72.8017V12.75H76.7317V4.75ZM68.8017 8.75V12.68H76.8017V8.75H68.8017ZM82.6558 14.18H78.6558L82.6558 18.18V14.18ZM82.6558 12.83H86.6558L82.6558 8.83V12.83ZM81.2908 12.83H77.2908L81.2908 16.83V12.83ZM81.2908 10.1H85.2908L81.2908 6.1V10.1ZM79.9258 10.1H75.9258L79.9258 14.1V10.1ZM79.9258 7.25V3.25L75.9258 7.25H79.9258ZM81.4408 7.25H85.4408L81.4408 3.25V7.25ZM81.4408 9.95H77.4408L81.4408 13.95V9.95ZM82.7908 9.95H86.7908L82.7908 5.95V9.95ZM82.7908 12.68H78.7908L82.7908 16.68V12.68ZM84.0208 12.68V16.68L88.0208 12.68H84.0208ZM84.0208 9.95V5.95L80.0208 9.95H84.0208ZM85.3708 9.95V13.95L89.3708 9.95H85.3708ZM85.3708 7.25V3.25L81.3708 7.25H85.3708ZM86.9008 7.25H90.9008L86.9008 3.25V7.25ZM86.9008 10.1V14.1L90.9008 10.1H86.9008ZM85.5208 10.1V6.1L81.5208 10.1H85.5208ZM85.5208 12.83V16.83L89.5208 12.83H85.5208ZM84.1708 12.83V8.83L80.1708 12.83H84.1708ZM84.1708 14.18V18.18L88.1708 14.18H84.1708ZM86.6558 14.18V12.83H78.6558V14.18H86.6558ZM82.6558 8.83H81.2908V16.83H82.6558V8.83ZM85.2908 12.83V10.1H77.2908V12.83H85.2908ZM81.2908 6.1H79.9258V14.1H81.2908V6.1ZM83.9258 10.1V7.25H75.9258V10.1H83.9258ZM79.9258 11.25H81.4408V3.25H79.9258V11.25ZM77.4408 7.25V9.95H85.4408V7.25H77.4408ZM81.4408 13.95H82.7908V5.95H81.4408V13.95ZM78.7908 9.95V12.68H86.7908V9.95H78.7908ZM82.7908 16.68H84.0208V8.68H82.7908V16.68ZM88.0208 12.68V9.95H80.0208V12.68H88.0208ZM84.0208 13.95H85.3708V5.95H84.0208V13.95ZM89.3708 9.95V7.25H81.3708V9.95H89.3708ZM85.3708 11.25H86.9008V3.25H85.3708V11.25ZM82.9008 7.25V10.1H90.9008V7.25H82.9008ZM86.9008 6.1H85.5208V14.1H86.9008V6.1ZM81.5208 10.1V12.83H89.5208V10.1H81.5208ZM85.5208 8.83H84.1708V16.83H85.5208V8.83ZM80.1708 12.83V14.18H88.1708V12.83H80.1708ZM84.1708 10.18H82.6558V18.18H84.1708V10.18ZM90.0834 14.18H86.0834L90.0834 18.18V14.18ZM90.0834 12.83H94.0834L90.0834 8.83V12.83ZM88.7184 12.83H84.7184L88.7184 16.83V12.83ZM88.7184 9.95V5.95L84.7184 9.95H88.7184ZM90.0834 9.95V13.95L94.0834 9.95H90.0834ZM90.0834 8.615V4.615L86.0834 8.615H90.0834ZM94.1634 8.615V12.615L98.1634 8.615H94.1634ZM94.1634 6.05H98.1634L94.1634 2.05V6.05ZM90.2334 6.05V2.05L86.2334 6.05H90.2334ZM90.2334 7.4V11.4L94.2334 7.4H90.2334ZM88.7184 7.4H84.7184L88.7184 11.4V7.4ZM88.7184 5.9V1.9L84.7184 5.9H88.7184ZM90.0834 5.9V9.9L94.0834 5.9H90.0834ZM90.0834 4.535V0.534999L86.0834 4.535H90.0834ZM94.3134 4.535H98.3134L94.3134 0.534999V4.535ZM94.3134 5.9H90.3134L94.3134 9.9V5.9ZM95.6934 5.9H99.6934L95.6934 1.9V5.9ZM95.6934 8.75V12.75L99.6934 8.75H95.6934ZM94.3134 8.75V4.75L90.3134 8.75H94.3134ZM94.3134 10.1V14.1L98.3134 10.1H94.3134ZM90.2334 10.1V6.1L86.2334 10.1H90.2334ZM90.2334 12.68H86.2334L90.2334 16.68V12.68ZM94.1634 12.68V16.68L98.1634 12.68H94.1634ZM94.1634 11.315V7.315L90.1634 11.315H94.1634ZM95.6934 11.315H99.6934L95.6934 7.315V11.315ZM95.6934 12.83V16.83L99.6934 12.83H95.6934ZM94.3134 12.83V8.83L90.3134 12.83H94.3134ZM94.3134 14.18V18.18L98.3134 14.18H94.3134ZM94.0834 14.18V12.83H86.0834V14.18H94.0834ZM90.0834 8.83H88.7184V16.83H90.0834V8.83ZM92.7184 12.83V9.95H84.7184V12.83H92.7184ZM88.7184 13.95H90.0834V5.95H88.7184V13.95ZM94.0834 9.95V8.615H86.0834V9.95H94.0834ZM90.0834 12.615H94.1634V4.615H90.0834V12.615ZM98.1634 8.615V6.05H90.1634V8.615H98.1634ZM94.1634 2.05H90.2334V10.05H94.1634V2.05ZM86.2334 6.05V7.4H94.2334V6.05H86.2334ZM90.2334 3.4H88.7184V11.4H90.2334V3.4ZM92.7184 7.4V5.9H84.7184V7.4H92.7184ZM88.7184 9.9H90.0834V1.9H88.7184V9.9ZM94.0834 5.9V4.535H86.0834V5.9H94.0834ZM90.0834 8.535H94.3134V0.534999H90.0834V8.535ZM90.3134 4.535V5.9H98.3134V4.535H90.3134ZM94.3134 9.9H95.6934V1.9H94.3134V9.9ZM91.6934 5.9V8.75H99.6934V5.9H91.6934ZM95.6934 4.75H94.3134V12.75H95.6934V4.75ZM90.3134 8.75V10.1H98.3134V8.75H90.3134ZM94.3134 6.1H90.2334V14.1H94.3134V6.1ZM86.2334 10.1V12.68H94.2334V10.1H86.2334ZM90.2334 16.68H94.1634V8.68H90.2334V16.68ZM98.1634 12.68V11.315H90.1634V12.68H98.1634ZM94.1634 15.315H95.6934V7.315H94.1634V15.315ZM91.6934 11.315V12.83H99.6934V11.315H91.6934ZM95.6934 8.83H94.3134V16.83H95.6934V8.83ZM90.3134 12.83V14.18H98.3134V12.83H90.3134ZM94.3134 10.18H90.0834V18.18H94.3134V10.18ZM97.5074 14.18H93.5074L97.5074 18.18V14.18ZM97.5074 4.535V0.534999L93.5074 4.535H97.5074ZM99.0224 4.535H103.022L99.0224 0.534999V4.535ZM99.0224 9.95H95.0224L99.0224 13.95V9.95ZM100.222 9.95V13.95L104.222 9.95H100.222ZM100.222 8.615V4.615L96.2224 8.615H100.222ZM102.952 8.615V12.615L106.952 8.615H102.952ZM102.952 7.25V3.25L98.9524 7.25H102.952ZM104.482 7.25H108.482L104.482 3.25V7.25ZM104.482 8.75V12.75L108.482 8.75H104.482ZM103.102 8.75V4.75L99.1024 8.75H103.102ZM103.102 10.1V14.1L107.102 10.1H103.102ZM100.372 10.1V6.1L96.3724 10.1H100.372ZM100.372 11.315H96.3724L100.372 15.315V11.315ZM103.102 11.315H107.102L103.102 7.315V11.315ZM103.102 12.68H99.1024L103.102 16.68V12.68ZM104.482 12.68H108.482L104.482 8.68V12.68ZM104.482 14.18V18.18L108.482 14.18H104.482ZM102.952 14.18H98.9524L102.952 18.18V14.18ZM102.952 12.83H106.952L102.952 8.83V12.83ZM100.222 12.83H96.2224L100.222 16.83V12.83ZM100.222 11.465H104.222L100.222 7.465V11.465ZM99.0224 11.465V7.465L95.0224 11.465H99.0224ZM99.0224 14.18V18.18L103.022 14.18H99.0224ZM101.507 14.18V4.535H93.5074V14.18H101.507ZM97.5074 8.535H99.0224V0.534999H97.5074V8.535ZM95.0224 4.535V9.95H103.022V4.535H95.0224ZM99.0224 13.95H100.222V5.95H99.0224V13.95ZM104.222 9.95V8.615H96.2224V9.95H104.222ZM100.222 12.615H102.952V4.615H100.222V12.615ZM106.952 8.615V7.25H98.9524V8.615H106.952ZM102.952 11.25H104.482V3.25H102.952V11.25ZM100.482 7.25V8.75H108.482V7.25H100.482ZM104.482 4.75H103.102V12.75H104.482V4.75ZM99.1024 8.75V10.1H107.102V8.75H99.1024ZM103.102 6.1H100.372V14.1H103.102V6.1ZM96.3724 10.1V11.315H104.372V10.1H96.3724ZM100.372 15.315H103.102V7.315H100.372V15.315ZM99.1024 11.315V12.68H107.102V11.315H99.1024ZM103.102 16.68H104.482V8.68H103.102V16.68ZM100.482 12.68V14.18H108.482V12.68H100.482ZM104.482 10.18H102.952V18.18H104.482V10.18ZM106.952 14.18V12.83H98.9524V14.18H106.952ZM102.952 8.83H100.222V16.83H102.952V8.83ZM104.222 12.83V11.465H96.2224V12.83H104.222ZM100.222 7.465H99.0224V15.465H100.222V7.465ZM95.0224 11.465V14.18H103.022V11.465H95.0224ZM99.0224 10.18H97.5074V18.18H99.0224V10.18Z" fill="#D9C0FB" mask="url(#path-1-outside-1_22_2)"/>
</svg>
