<svg width="151" height="30" viewBox="0 0 151 30" fill="none" xmlns="http://www.w3.org/2000/svg">
<mask id="path-1-outside-1_1_3" maskUnits="userSpaceOnUse" x="0" y="0" width="151" height="30" fill="black">
<rect fill="white" width="151" height="30"/>
<path d="M7.832 25.384V22.504H4.92V4.808H8.152V22.184H16.536V19.272H19.8V22.504H16.856V25.384H7.832ZM25.6133 25.384V22.504H22.7013V13.512H25.6133V10.6H34.6373V13.512H37.5813V22.504H34.6373V25.384H25.6133ZM25.9333 22.184H34.3173V13.8H25.9333V22.184ZM44.3633 25.384V22.504H41.4513V13.512H44.3633V10.6H53.3873V13.512H56.3313V16.68H53.0673V13.8H44.6833V22.184H53.0673V19.272H56.3313V22.504H53.3873V25.384H44.3633ZM62.1445 25.384V22.504H59.2325V13.512H62.1445V10.6H71.1685V13.512H74.1125V22.184H77.0245V25.384H73.7925V22.504H71.1685V25.384H62.1445ZM62.4645 22.184H70.8485V13.8H62.4645V22.184ZM83.1495 25.384V22.504H80.2695V13.8H77.3575V10.6H80.2695V4.808H83.4695V10.6H92.2375V13.8H83.4695V22.184H91.9175V19.272H95.1495V22.504H92.2375V25.384H83.1495ZM99.0138 25.384V10.6H102.246V25.384H99.0138ZM99.0138 8.04V4.808H102.246V8.04H99.0138ZM108.395 25.384V22.504H105.483V13.512H108.395V10.6H117.419V13.512H120.363V22.504H117.419V25.384H108.395ZM108.715 22.184H117.099V13.8H108.715V22.184ZM124.233 25.384V10.6H136.169V13.512H139.113V25.384H135.849V13.8H127.465V25.384H124.233ZM142.983 22.408V19.176H146.215V22.408H142.983ZM142.983 16.712V13.512H146.215V16.712H142.983Z"/>
</mask>
<path d="M7.832 25.384V22.504H4.92V4.808H8.152V22.184H16.536V19.272H19.8V22.504H16.856V25.384H7.832ZM25.6133 25.384V22.504H22.7013V13.512H25.6133V10.6H34.6373V13.512H37.5813V22.504H34.6373V25.384H25.6133ZM25.9333 22.184H34.3173V13.8H25.9333V22.184ZM44.3633 25.384V22.504H41.4513V13.512H44.3633V10.6H53.3873V13.512H56.3313V16.68H53.0673V13.8H44.6833V22.184H53.0673V19.272H56.3313V22.504H53.3873V25.384H44.3633ZM62.1445 25.384V22.504H59.2325V13.512H62.1445V10.6H71.1685V13.512H74.1125V22.184H77.0245V25.384H73.7925V22.504H71.1685V25.384H62.1445ZM62.4645 22.184H70.8485V13.8H62.4645V22.184ZM83.1495 25.384V22.504H80.2695V13.8H77.3575V10.6H80.2695V4.808H83.4695V10.6H92.2375V13.8H83.4695V22.184H91.9175V19.272H95.1495V22.504H92.2375V25.384H83.1495ZM99.0138 25.384V10.6H102.246V25.384H99.0138ZM99.0138 8.04V4.808H102.246V8.04H99.0138ZM108.395 25.384V22.504H105.483V13.512H108.395V10.6H117.419V13.512H120.363V22.504H117.419V25.384H108.395ZM108.715 22.184H117.099V13.8H108.715V22.184ZM124.233 25.384V10.6H136.169V13.512H139.113V25.384H135.849V13.8H127.465V25.384H124.233ZM142.983 22.408V19.176H146.215V22.408H142.983ZM142.983 16.712V13.512H146.215V16.712H142.983Z" fill="#DEE5FF"/>
<path d="M7.832 25.384H3.832L7.832 29.384V25.384ZM7.832 22.504H11.832L7.832 18.504V22.504ZM4.92 22.504H0.92L4.92 26.504V22.504ZM4.92 4.808V0.807999L0.92 4.808H4.92ZM8.152 4.808H12.152L8.152 0.807999V4.808ZM8.152 22.184H4.152L8.152 26.184V22.184ZM16.536 22.184V26.184L20.536 22.184H16.536ZM16.536 19.272V15.272L12.536 19.272H16.536ZM19.8 19.272H23.8L19.8 15.272V19.272ZM19.8 22.504V26.504L23.8 22.504H19.8ZM16.856 22.504V18.504L12.856 22.504H16.856ZM16.856 25.384V29.384L20.856 25.384H16.856ZM11.832 25.384V22.504H3.832V25.384H11.832ZM7.832 18.504H4.92V26.504H7.832V18.504ZM8.92 22.504V4.808H0.92V22.504H8.92ZM4.92 8.808H8.152V0.807999H4.92V8.808ZM4.152 4.808V22.184H12.152V4.808H4.152ZM8.152 26.184H16.536V18.184H8.152V26.184ZM20.536 22.184V19.272H12.536V22.184H20.536ZM16.536 23.272H19.8V15.272H16.536V23.272ZM15.8 19.272V22.504H23.8V19.272H15.8ZM19.8 18.504H16.856V26.504H19.8V18.504ZM12.856 22.504V25.384H20.856V22.504H12.856ZM16.856 21.384H7.832V29.384H16.856V21.384ZM25.6133 25.384H21.6133L25.6133 29.384V25.384ZM25.6133 22.504H29.6133L25.6133 18.504V22.504ZM22.7013 22.504H18.7013L22.7013 26.504V22.504ZM22.7013 13.512V9.512L18.7013 13.512H22.7013ZM25.6133 13.512V17.512L29.6133 13.512H25.6133ZM25.6133 10.6V6.6L21.6133 10.6H25.6133ZM34.6373 10.6H38.6373L34.6373 6.6V10.6ZM34.6373 13.512H30.6373L34.6373 17.512V13.512ZM37.5813 13.512H41.5813L37.5813 9.512V13.512ZM37.5813 22.504V26.504L41.5813 22.504H37.5813ZM34.6373 22.504V18.504L30.6373 22.504H34.6373ZM34.6373 25.384V29.384L38.6373 25.384H34.6373ZM25.9333 22.184H21.9333L25.9333 26.184V22.184ZM34.3173 22.184V26.184L38.3173 22.184H34.3173ZM34.3173 13.8H38.3173L34.3173 9.8V13.8ZM25.9333 13.8V9.8L21.9333 13.8H25.9333ZM29.6133 25.384V22.504H21.6133V25.384H29.6133ZM25.6133 18.504H22.7013V26.504H25.6133V18.504ZM26.7013 22.504V13.512H18.7013V22.504H26.7013ZM22.7013 17.512H25.6133V9.512H22.7013V17.512ZM29.6133 13.512V10.6H21.6133V13.512H29.6133ZM25.6133 14.6H34.6373V6.6H25.6133V14.6ZM30.6373 10.6V13.512H38.6373V10.6H30.6373ZM34.6373 17.512H37.5813V9.512H34.6373V17.512ZM33.5813 13.512V22.504H41.5813V13.512H33.5813ZM37.5813 18.504H34.6373V26.504H37.5813V18.504ZM30.6373 22.504V25.384H38.6373V22.504H30.6373ZM34.6373 21.384H25.6133V29.384H34.6373V21.384ZM25.9333 26.184H34.3173V18.184H25.9333V26.184ZM38.3173 22.184V13.8H30.3173V22.184H38.3173ZM34.3173 9.8H25.9333V17.8H34.3173V9.8ZM21.9333 13.8V22.184H29.9333V13.8H21.9333ZM44.3633 25.384H40.3633L44.3633 29.384V25.384ZM44.3633 22.504H48.3633L44.3633 18.504V22.504ZM41.4513 22.504H37.4513L41.4513 26.504V22.504ZM41.4513 13.512V9.512L37.4513 13.512H41.4513ZM44.3633 13.512V17.512L48.3633 13.512H44.3633ZM44.3633 10.6V6.6L40.3633 10.6H44.3633ZM53.3873 10.6H57.3873L53.3873 6.6V10.6ZM53.3873 13.512H49.3873L53.3873 17.512V13.512ZM56.3313 13.512H60.3313L56.3313 9.512V13.512ZM56.3313 16.68V20.68L60.3313 16.68H56.3313ZM53.0673 16.68H49.0673L53.0673 20.68V16.68ZM53.0673 13.8H57.0673L53.0673 9.8V13.8ZM44.6833 13.8V9.8L40.6833 13.8H44.6833ZM44.6833 22.184H40.6833L44.6833 26.184V22.184ZM53.0673 22.184V26.184L57.0673 22.184H53.0673ZM53.0673 19.272V15.272L49.0673 19.272H53.0673ZM56.3313 19.272H60.3313L56.3313 15.272V19.272ZM56.3313 22.504V26.504L60.3313 22.504H56.3313ZM53.3873 22.504V18.504L49.3873 22.504H53.3873ZM53.3873 25.384V29.384L57.3873 25.384H53.3873ZM48.3633 25.384V22.504H40.3633V25.384H48.3633ZM44.3633 18.504H41.4513V26.504H44.3633V18.504ZM45.4513 22.504V13.512H37.4513V22.504H45.4513ZM41.4513 17.512H44.3633V9.512H41.4513V17.512ZM48.3633 13.512V10.6H40.3633V13.512H48.3633ZM44.3633 14.6H53.3873V6.6H44.3633V14.6ZM49.3873 10.6V13.512H57.3873V10.6H49.3873ZM53.3873 17.512H56.3313V9.512H53.3873V17.512ZM52.3313 13.512V16.68H60.3313V13.512H52.3313ZM56.3313 12.68H53.0673V20.68H56.3313V12.68ZM57.0673 16.68V13.8H49.0673V16.68H57.0673ZM53.0673 9.8H44.6833V17.8H53.0673V9.8ZM40.6833 13.8V22.184H48.6833V13.8H40.6833ZM44.6833 26.184H53.0673V18.184H44.6833V26.184ZM57.0673 22.184V19.272H49.0673V22.184H57.0673ZM53.0673 23.272H56.3313V15.272H53.0673V23.272ZM52.3313 19.272V22.504H60.3313V19.272H52.3313ZM56.3313 18.504H53.3873V26.504H56.3313V18.504ZM49.3873 22.504V25.384H57.3873V22.504H49.3873ZM53.3873 21.384H44.3633V29.384H53.3873V21.384ZM62.1445 25.384H58.1445L62.1445 29.384V25.384ZM62.1445 22.504H66.1445L62.1445 18.504V22.504ZM59.2325 22.504H55.2325L59.2325 26.504V22.504ZM59.2325 13.512V9.512L55.2325 13.512H59.2325ZM62.1445 13.512V17.512L66.1445 13.512H62.1445ZM62.1445 10.6V6.6L58.1445 10.6H62.1445ZM71.1685 10.6H75.1685L71.1685 6.6V10.6ZM71.1685 13.512H67.1685L71.1685 17.512V13.512ZM74.1125 13.512H78.1125L74.1125 9.512V13.512ZM74.1125 22.184H70.1125L74.1125 26.184V22.184ZM77.0245 22.184H81.0245L77.0245 18.184V22.184ZM77.0245 25.384V29.384L81.0245 25.384H77.0245ZM73.7925 25.384H69.7925L73.7925 29.384V25.384ZM73.7925 22.504H77.7925L73.7925 18.504V22.504ZM71.1685 22.504V18.504L67.1685 22.504H71.1685ZM71.1685 25.384V29.384L75.1685 25.384H71.1685ZM62.4645 22.184H58.4645L62.4645 26.184V22.184ZM70.8485 22.184V26.184L74.8485 22.184H70.8485ZM70.8485 13.8H74.8485L70.8485 9.8V13.8ZM62.4645 13.8V9.8L58.4645 13.8H62.4645ZM66.1445 25.384V22.504H58.1445V25.384H66.1445ZM62.1445 18.504H59.2325V26.504H62.1445V18.504ZM63.2325 22.504V13.512H55.2325V22.504H63.2325ZM59.2325 17.512H62.1445V9.512H59.2325V17.512ZM66.1445 13.512V10.6H58.1445V13.512H66.1445ZM62.1445 14.6H71.1685V6.6H62.1445V14.6ZM67.1685 10.6V13.512H75.1685V10.6H67.1685ZM71.1685 17.512H74.1125V9.512H71.1685V17.512ZM70.1125 13.512V22.184H78.1125V13.512H70.1125ZM74.1125 26.184H77.0245V18.184H74.1125V26.184ZM73.0245 22.184V25.384H81.0245V22.184H73.0245ZM77.0245 21.384H73.7925V29.384H77.0245V21.384ZM77.7925 25.384V22.504H69.7925V25.384H77.7925ZM73.7925 18.504H71.1685V26.504H73.7925V18.504ZM67.1685 22.504V25.384H75.1685V22.504H67.1685ZM71.1685 21.384H62.1445V29.384H71.1685V21.384ZM62.4645 26.184H70.8485V18.184H62.4645V26.184ZM74.8485 22.184V13.8H66.8485V22.184H74.8485ZM70.8485 9.8H62.4645V17.8H70.8485V9.8ZM58.4645 13.8V22.184H66.4645V13.8H58.4645ZM83.1495 25.384H79.1495L83.1495 29.384V25.384ZM83.1495 22.504H87.1495L83.1495 18.504V22.504ZM80.2695 22.504H76.2695L80.2695 26.504V22.504ZM80.2695 13.8H84.2695L80.2695 9.8V13.8ZM77.3575 13.8H73.3575L77.3575 17.8V13.8ZM77.3575 10.6V6.6L73.3575 10.6H77.3575ZM80.2695 10.6V14.6L84.2695 10.6H80.2695ZM80.2695 4.808V0.807999L76.2695 4.808H80.2695ZM83.4695 4.808H87.4695L83.4695 0.807999V4.808ZM83.4695 10.6H79.4695L83.4695 14.6V10.6ZM92.2375 10.6H96.2375L92.2375 6.6V10.6ZM92.2375 13.8V17.8L96.2375 13.8H92.2375ZM83.4695 13.8V9.8L79.4695 13.8H83.4695ZM83.4695 22.184H79.4695L83.4695 26.184V22.184ZM91.9175 22.184V26.184L95.9175 22.184H91.9175ZM91.9175 19.272V15.272L87.9175 19.272H91.9175ZM95.1495 19.272H99.1495L95.1495 15.272V19.272ZM95.1495 22.504V26.504L99.1495 22.504H95.1495ZM92.2375 22.504V18.504L88.2375 22.504H92.2375ZM92.2375 25.384V29.384L96.2375 25.384H92.2375ZM87.1495 25.384V22.504H79.1495V25.384H87.1495ZM83.1495 18.504H80.2695V26.504H83.1495V18.504ZM84.2695 22.504V13.8H76.2695V22.504H84.2695ZM80.2695 9.8H77.3575V17.8H80.2695V9.8ZM81.3575 13.8V10.6H73.3575V13.8H81.3575ZM77.3575 14.6H80.2695V6.6H77.3575V14.6ZM84.2695 10.6V4.808H76.2695V10.6H84.2695ZM80.2695 8.808H83.4695V0.807999H80.2695V8.808ZM79.4695 4.808V10.6H87.4695V4.808H79.4695ZM83.4695 14.6H92.2375V6.6H83.4695V14.6ZM88.2375 10.6V13.8H96.2375V10.6H88.2375ZM92.2375 9.8H83.4695V17.8H92.2375V9.8ZM79.4695 13.8V22.184H87.4695V13.8H79.4695ZM83.4695 26.184H91.9175V18.184H83.4695V26.184ZM95.9175 22.184V19.272H87.9175V22.184H95.9175ZM91.9175 23.272H95.1495V15.272H91.9175V23.272ZM91.1495 19.272V22.504H99.1495V19.272H91.1495ZM95.1495 18.504H92.2375V26.504H95.1495V18.504ZM88.2375 22.504V25.384H96.2375V22.504H88.2375ZM92.2375 21.384H83.1495V29.384H92.2375V21.384ZM99.0138 25.384H95.0138L99.0138 29.384V25.384ZM99.0138 10.6V6.6L95.0138 10.6H99.0138ZM102.246 10.6H106.246L102.246 6.6V10.6ZM102.246 25.384V29.384L106.246 25.384H102.246ZM99.0138 8.04H95.0138L99.0138 12.04V8.04ZM99.0138 4.808V0.807999L95.0138 4.808H99.0138ZM102.246 4.808H106.246L102.246 0.807999V4.808ZM102.246 8.04V12.04L106.246 8.04H102.246ZM103.014 25.384V10.6H95.0138V25.384H103.014ZM99.0138 14.6H102.246V6.6H99.0138V14.6ZM98.2458 10.6V25.384H106.246V10.6H98.2458ZM102.246 21.384H99.0138V29.384H102.246V21.384ZM103.014 8.04V4.808H95.0138V8.04H103.014ZM99.0138 8.808H102.246V0.807999H99.0138V8.808ZM98.2458 4.808V8.04H106.246V4.808H98.2458ZM102.246 4.04H99.0138V12.04H102.246V4.04ZM108.395 25.384H104.395L108.395 29.384V25.384ZM108.395 22.504H112.395L108.395 18.504V22.504ZM105.483 22.504H101.483L105.483 26.504V22.504ZM105.483 13.512V9.512L101.483 13.512H105.483ZM108.395 13.512V17.512L112.395 13.512H108.395ZM108.395 10.6V6.6L104.395 10.6H108.395ZM117.419 10.6H121.419L117.419 6.6V10.6ZM117.419 13.512H113.419L117.419 17.512V13.512ZM120.363 13.512H124.363L120.363 9.512V13.512ZM120.363 22.504V26.504L124.363 22.504H120.363ZM117.419 22.504V18.504L113.419 22.504H117.419ZM117.419 25.384V29.384L121.419 25.384H117.419ZM108.715 22.184H104.715L108.715 26.184V22.184ZM117.099 22.184V26.184L121.099 22.184H117.099ZM117.099 13.8H121.099L117.099 9.8V13.8ZM108.715 13.8V9.8L104.715 13.8H108.715ZM112.395 25.384V22.504H104.395V25.384H112.395ZM108.395 18.504H105.483V26.504H108.395V18.504ZM109.483 22.504V13.512H101.483V22.504H109.483ZM105.483 17.512H108.395V9.512H105.483V17.512ZM112.395 13.512V10.6H104.395V13.512H112.395ZM108.395 14.6H117.419V6.6H108.395V14.6ZM113.419 10.6V13.512H121.419V10.6H113.419ZM117.419 17.512H120.363V9.512H117.419V17.512ZM116.363 13.512V22.504H124.363V13.512H116.363ZM120.363 18.504H117.419V26.504H120.363V18.504ZM113.419 22.504V25.384H121.419V22.504H113.419ZM117.419 21.384H108.395V29.384H117.419V21.384ZM108.715 26.184H117.099V18.184H108.715V26.184ZM121.099 22.184V13.8H113.099V22.184H121.099ZM117.099 9.8H108.715V17.8H117.099V9.8ZM104.715 13.8V22.184H112.715V13.8H104.715ZM124.233 25.384H120.233L124.233 29.384V25.384ZM124.233 10.6V6.6L120.233 10.6H124.233ZM136.169 10.6H140.169L136.169 6.6V10.6ZM136.169 13.512H132.169L136.169 17.512V13.512ZM139.113 13.512H143.113L139.113 9.512V13.512ZM139.113 25.384V29.384L143.113 25.384H139.113ZM135.849 25.384H131.849L135.849 29.384V25.384ZM135.849 13.8H139.849L135.849 9.8V13.8ZM127.465 13.8V9.8L123.465 13.8H127.465ZM127.465 25.384V29.384L131.465 25.384H127.465ZM128.233 25.384V10.6H120.233V25.384H128.233ZM124.233 14.6H136.169V6.6H124.233V14.6ZM132.169 10.6V13.512H140.169V10.6H132.169ZM136.169 17.512H139.113V9.512H136.169V17.512ZM135.113 13.512V25.384H143.113V13.512H135.113ZM139.113 21.384H135.849V29.384H139.113V21.384ZM139.849 25.384V13.8H131.849V25.384H139.849ZM135.849 9.8H127.465V17.8H135.849V9.8ZM123.465 13.8V25.384H131.465V13.8H123.465ZM127.465 21.384H124.233V29.384H127.465V21.384ZM142.983 22.408H138.983L142.983 26.408V22.408ZM142.983 19.176V15.176L138.983 19.176H142.983ZM146.215 19.176H150.215L146.215 15.176V19.176ZM146.215 22.408V26.408L150.215 22.408H146.215ZM142.983 16.712H138.983L142.983 20.712V16.712ZM142.983 13.512V9.512L138.983 13.512H142.983ZM146.215 13.512H150.215L146.215 9.512V13.512ZM146.215 16.712V20.712L150.215 16.712H146.215ZM146.983 22.408V19.176H138.983V22.408H146.983ZM142.983 23.176H146.215V15.176H142.983V23.176ZM142.215 19.176V22.408H150.215V19.176H142.215ZM146.215 18.408H142.983V26.408H146.215V18.408ZM146.983 16.712V13.512H138.983V16.712H146.983ZM142.983 17.512H146.215V9.512H142.983V17.512ZM142.215 13.512V16.712H150.215V13.512H142.215ZM146.215 12.712H142.983V20.712H146.215V12.712Z" fill="#819EF5" mask="url(#path-1-outside-1_1_3)"/>
</svg>
