<svg width="307" height="32" viewBox="0 0 307 32" fill="none" xmlns="http://www.w3.org/2000/svg">
<mask id="path-1-outside-1_1_39" maskUnits="userSpaceOnUse" x="0" y="0" width="307" height="32" fill="black">
<rect fill="white" width="307" height="32"/>
<path d="M7.436 27.432V24.192H4.16V4.284H7.796V23.832H10.676V17.28H13.988V7.56H17.588V17.28H20.9V23.832H23.816V4.284H27.416V24.192H24.176V27.432H20.54V24.192H17.228V17.64H14.348V24.192H11.036V27.432H7.436ZM33.9438 27.432V24.192H30.6678V14.076H33.9438V10.8H44.0958V14.076H47.4078V17.64H43.7358V14.4H34.3038V17.28H40.8558V20.916H34.3038V23.832H43.7358V20.52H47.4078V24.156H44.0958V27.432H33.9438ZM55.0376 27.432V24.192H51.7616V14.076H55.0376V10.8H65.1896V14.076H68.5016V23.832H71.7776V27.432H68.1416V24.192H65.1896V27.432H55.0376ZM55.3976 23.832H64.8296V14.4H55.3976V23.832ZM78.6682 27.432V24.192H75.4282V14.4H72.1522V10.8H75.4282V4.284H79.0282V10.8H88.8922V14.4H79.0282V23.832H88.5322V20.556H92.1682V24.192H88.8922V27.432H78.6682ZM95.8123 27.432V4.284H99.4483V14.076H102.328V10.8H109.24V14.076H112.552V27.432H108.88V14.4H102.688V17.64H99.4483V27.432H95.8123ZM119.479 27.432V24.192H116.203V14.076H119.479V10.8H129.631V14.076H132.943V17.64H129.271V14.4H119.839V17.28H126.391V20.916H119.839V23.832H129.271V20.52H132.943V24.156H129.631V27.432H119.479ZM137.297 27.432V14.076H140.573V10.8H150.725V14.076H154.037V17.64H150.365V14.4H140.933V27.432H137.297ZM172.114 27.432V7.92H169.234V11.16H165.598V7.56H168.874V4.284H179.026V7.56H182.338V11.16H178.666V7.92H175.786V27.432H172.114ZM183.105 27.432V14.076H186.381V10.8H196.533V14.076H199.845V17.64H196.173V14.4H186.741V27.432H183.105ZM206.385 27.432V24.192H203.109V14.076H206.385V10.8H216.537V14.076H219.849V23.832H223.125V27.432H219.489V24.192H216.537V27.432H206.385ZM206.745 23.832H216.177V14.4H206.745V23.832ZM228.956 27.432V24.192H225.68V14.076H228.956V10.8H239.108V14.076H242.42V17.64H238.748V14.4H229.316V23.832H238.748V20.556H242.42V24.192H239.108V27.432H228.956ZM246.07 27.432V4.284H249.706V17.28H252.586V14.076H259.138V10.8H262.81V14.4H259.498V17.64H252.946V20.556H259.498V23.832H262.81V27.432H259.138V24.192H252.586V20.916H249.706V27.432H246.07ZM268.295 27.432V24.192H265.019V14.076H268.295V10.8H278.447V14.076H281.759V17.64H278.087V14.4H268.655V17.28H275.207V20.916H268.655V23.832H278.087V20.52H281.759V24.156H278.447V27.432H268.295ZM286.113 27.432V14.076H289.389V10.8H299.541V14.076H302.853V17.64H299.181V14.4H289.749V27.432H286.113Z"/>
</mask>
<path d="M7.436 27.432V24.192H4.16V4.284H7.796V23.832H10.676V17.28H13.988V7.56H17.588V17.28H20.9V23.832H23.816V4.284H27.416V24.192H24.176V27.432H20.54V24.192H17.228V17.64H14.348V24.192H11.036V27.432H7.436ZM33.9438 27.432V24.192H30.6678V14.076H33.9438V10.8H44.0958V14.076H47.4078V17.64H43.7358V14.4H34.3038V17.28H40.8558V20.916H34.3038V23.832H43.7358V20.52H47.4078V24.156H44.0958V27.432H33.9438ZM55.0376 27.432V24.192H51.7616V14.076H55.0376V10.8H65.1896V14.076H68.5016V23.832H71.7776V27.432H68.1416V24.192H65.1896V27.432H55.0376ZM55.3976 23.832H64.8296V14.4H55.3976V23.832ZM78.6682 27.432V24.192H75.4282V14.4H72.1522V10.8H75.4282V4.284H79.0282V10.8H88.8922V14.4H79.0282V23.832H88.5322V20.556H92.1682V24.192H88.8922V27.432H78.6682ZM95.8123 27.432V4.284H99.4483V14.076H102.328V10.8H109.24V14.076H112.552V27.432H108.88V14.4H102.688V17.64H99.4483V27.432H95.8123ZM119.479 27.432V24.192H116.203V14.076H119.479V10.8H129.631V14.076H132.943V17.64H129.271V14.4H119.839V17.28H126.391V20.916H119.839V23.832H129.271V20.52H132.943V24.156H129.631V27.432H119.479ZM137.297 27.432V14.076H140.573V10.8H150.725V14.076H154.037V17.64H150.365V14.4H140.933V27.432H137.297ZM172.114 27.432V7.92H169.234V11.16H165.598V7.56H168.874V4.284H179.026V7.56H182.338V11.16H178.666V7.92H175.786V27.432H172.114ZM183.105 27.432V14.076H186.381V10.8H196.533V14.076H199.845V17.64H196.173V14.4H186.741V27.432H183.105ZM206.385 27.432V24.192H203.109V14.076H206.385V10.8H216.537V14.076H219.849V23.832H223.125V27.432H219.489V24.192H216.537V27.432H206.385ZM206.745 23.832H216.177V14.4H206.745V23.832ZM228.956 27.432V24.192H225.68V14.076H228.956V10.8H239.108V14.076H242.42V17.64H238.748V14.4H229.316V23.832H238.748V20.556H242.42V24.192H239.108V27.432H228.956ZM246.07 27.432V4.284H249.706V17.28H252.586V14.076H259.138V10.8H262.81V14.4H259.498V17.64H252.946V20.556H259.498V23.832H262.81V27.432H259.138V24.192H252.586V20.916H249.706V27.432H246.07ZM268.295 27.432V24.192H265.019V14.076H268.295V10.8H278.447V14.076H281.759V17.64H278.087V14.4H268.655V17.28H275.207V20.916H268.655V23.832H278.087V20.52H281.759V24.156H278.447V27.432H268.295ZM286.113 27.432V14.076H289.389V10.8H299.541V14.076H302.853V17.64H299.181V14.4H289.749V27.432H286.113Z" fill="#BA76E7"/>
<path d="M7.436 27.432V24.192H4.16V4.284H7.796V23.832H10.676V17.28H13.988V7.56H17.588V17.28H20.9V23.832H23.816V4.284H27.416V24.192H24.176V27.432H20.54V24.192H17.228V17.64H14.348V24.192H11.036V27.432H7.436ZM33.9438 27.432V24.192H30.6678V14.076H33.9438V10.8H44.0958V14.076H47.4078V17.64H43.7358V14.4H34.3038V17.28H40.8558V20.916H34.3038V23.832H43.7358V20.52H47.4078V24.156H44.0958V27.432H33.9438ZM55.0376 27.432V24.192H51.7616V14.076H55.0376V10.8H65.1896V14.076H68.5016V23.832H71.7776V27.432H68.1416V24.192H65.1896V27.432H55.0376ZM55.3976 23.832H64.8296V14.4H55.3976V23.832ZM78.6682 27.432V24.192H75.4282V14.4H72.1522V10.8H75.4282V4.284H79.0282V10.8H88.8922V14.4H79.0282V23.832H88.5322V20.556H92.1682V24.192H88.8922V27.432H78.6682ZM95.8123 27.432V4.284H99.4483V14.076H102.328V10.8H109.24V14.076H112.552V27.432H108.88V14.4H102.688V17.64H99.4483V27.432H95.8123ZM119.479 27.432V24.192H116.203V14.076H119.479V10.8H129.631V14.076H132.943V17.64H129.271V14.4H119.839V17.28H126.391V20.916H119.839V23.832H129.271V20.52H132.943V24.156H129.631V27.432H119.479ZM137.297 27.432V14.076H140.573V10.8H150.725V14.076H154.037V17.64H150.365V14.4H140.933V27.432H137.297ZM172.114 27.432V7.92H169.234V11.16H165.598V7.56H168.874V4.284H179.026V7.56H182.338V11.16H178.666V7.92H175.786V27.432H172.114ZM183.105 27.432V14.076H186.381V10.8H196.533V14.076H199.845V17.64H196.173V14.4H186.741V27.432H183.105ZM206.385 27.432V24.192H203.109V14.076H206.385V10.8H216.537V14.076H219.849V23.832H223.125V27.432H219.489V24.192H216.537V27.432H206.385ZM206.745 23.832H216.177V14.4H206.745V23.832ZM228.956 27.432V24.192H225.68V14.076H228.956V10.8H239.108V14.076H242.42V17.64H238.748V14.4H229.316V23.832H238.748V20.556H242.42V24.192H239.108V27.432H228.956ZM246.07 27.432V4.284H249.706V17.28H252.586V14.076H259.138V10.8H262.81V14.4H259.498V17.64H252.946V20.556H259.498V23.832H262.81V27.432H259.138V24.192H252.586V20.916H249.706V27.432H246.07ZM268.295 27.432V24.192H265.019V14.076H268.295V10.8H278.447V14.076H281.759V17.64H278.087V14.4H268.655V17.28H275.207V20.916H268.655V23.832H278.087V20.52H281.759V24.156H278.447V27.432H268.295ZM286.113 27.432V14.076H289.389V10.8H299.541V14.076H302.853V17.64H299.181V14.4H289.749V27.432H286.113Z" fill="#FEDDF2"/>
<path d="M7.436 27.432H3.436L7.436 31.432V27.432ZM7.436 24.192H11.436L7.436 20.192V24.192ZM4.16 24.192H0.16L4.16 28.192V24.192ZM4.16 4.284V0.283998L0.16 4.284H4.16ZM7.796 4.284H11.796L7.796 0.283998V4.284ZM7.796 23.832H3.796L7.796 27.832V23.832ZM10.676 23.832V27.832L14.676 23.832H10.676ZM10.676 17.28V13.28L6.676 17.28H10.676ZM13.988 17.28V21.28L17.988 17.28H13.988ZM13.988 7.56V3.56L9.988 7.56H13.988ZM17.588 7.56H21.588L17.588 3.56V7.56ZM17.588 17.28H13.588L17.588 21.28V17.28ZM20.9 17.28H24.9L20.9 13.28V17.28ZM20.9 23.832H16.9L20.9 27.832V23.832ZM23.816 23.832V27.832L27.816 23.832H23.816ZM23.816 4.284V0.283998L19.816 4.284H23.816ZM27.416 4.284H31.416L27.416 0.283998V4.284ZM27.416 24.192V28.192L31.416 24.192H27.416ZM24.176 24.192V20.192L20.176 24.192H24.176ZM24.176 27.432V31.432L28.176 27.432H24.176ZM20.54 27.432H16.54L20.54 31.432V27.432ZM20.54 24.192H24.54L20.54 20.192V24.192ZM17.228 24.192H13.228L17.228 28.192V24.192ZM17.228 17.64H21.228L17.228 13.64V17.64ZM14.348 17.64V13.64L10.348 17.64H14.348ZM14.348 24.192V28.192L18.348 24.192H14.348ZM11.036 24.192V20.192L7.036 24.192H11.036ZM11.036 27.432V31.432L15.036 27.432H11.036ZM11.436 27.432V24.192H3.436V27.432H11.436ZM7.436 20.192H4.16V28.192H7.436V20.192ZM8.16 24.192V4.284H0.16V24.192H8.16ZM4.16 8.284H7.796V0.283998H4.16V8.284ZM3.796 4.284V23.832H11.796V4.284H3.796ZM7.796 27.832H10.676V19.832H7.796V27.832ZM14.676 23.832V17.28H6.676V23.832H14.676ZM10.676 21.28H13.988V13.28H10.676V21.28ZM17.988 17.28V7.56H9.988V17.28H17.988ZM13.988 11.56H17.588V3.56H13.988V11.56ZM13.588 7.56V17.28H21.588V7.56H13.588ZM17.588 21.28H20.9V13.28H17.588V21.28ZM16.9 17.28V23.832H24.9V17.28H16.9ZM20.9 27.832H23.816V19.832H20.9V27.832ZM27.816 23.832V4.284H19.816V23.832H27.816ZM23.816 8.284H27.416V0.283998H23.816V8.284ZM23.416 4.284V24.192H31.416V4.284H23.416ZM27.416 20.192H24.176V28.192H27.416V20.192ZM20.176 24.192V27.432H28.176V24.192H20.176ZM24.176 23.432H20.54V31.432H24.176V23.432ZM24.54 27.432V24.192H16.54V27.432H24.54ZM20.54 20.192H17.228V28.192H20.54V20.192ZM21.228 24.192V17.64H13.228V24.192H21.228ZM17.228 13.64H14.348V21.64H17.228V13.64ZM10.348 17.64V24.192H18.348V17.64H10.348ZM14.348 20.192H11.036V28.192H14.348V20.192ZM7.036 24.192V27.432H15.036V24.192H7.036ZM11.036 23.432H7.436V31.432H11.036V23.432ZM33.9438 27.432H29.9438L33.9438 31.432V27.432ZM33.9438 24.192H37.9438L33.9438 20.192V24.192ZM30.6678 24.192H26.6678L30.6678 28.192V24.192ZM30.6678 14.076V10.076L26.6678 14.076H30.6678ZM33.9438 14.076V18.076L37.9438 14.076H33.9438ZM33.9438 10.8V6.8L29.9438 10.8H33.9438ZM44.0958 10.8H48.0958L44.0958 6.8V10.8ZM44.0958 14.076H40.0958L44.0958 18.076V14.076ZM47.4078 14.076H51.4078L47.4078 10.076V14.076ZM47.4078 17.64V21.64L51.4078 17.64H47.4078ZM43.7358 17.64H39.7358L43.7358 21.64V17.64ZM43.7358 14.4H47.7358L43.7358 10.4V14.4ZM34.3038 14.4V10.4L30.3038 14.4H34.3038ZM34.3038 17.28H30.3038L34.3038 21.28V17.28ZM40.8558 17.28H44.8558L40.8558 13.28V17.28ZM40.8558 20.916V24.916L44.8558 20.916H40.8558ZM34.3038 20.916V16.916L30.3038 20.916H34.3038ZM34.3038 23.832H30.3038L34.3038 27.832V23.832ZM43.7358 23.832V27.832L47.7358 23.832H43.7358ZM43.7358 20.52V16.52L39.7358 20.52H43.7358ZM47.4078 20.52H51.4078L47.4078 16.52V20.52ZM47.4078 24.156V28.156L51.4078 24.156H47.4078ZM44.0958 24.156V20.156L40.0958 24.156H44.0958ZM44.0958 27.432V31.432L48.0958 27.432H44.0958ZM37.9438 27.432V24.192H29.9438V27.432H37.9438ZM33.9438 20.192H30.6678V28.192H33.9438V20.192ZM34.6678 24.192V14.076H26.6678V24.192H34.6678ZM30.6678 18.076H33.9438V10.076H30.6678V18.076ZM37.9438 14.076V10.8H29.9438V14.076H37.9438ZM33.9438 14.8H44.0958V6.8H33.9438V14.8ZM40.0958 10.8V14.076H48.0958V10.8H40.0958ZM44.0958 18.076H47.4078V10.076H44.0958V18.076ZM43.4078 14.076V17.64H51.4078V14.076H43.4078ZM47.4078 13.64H43.7358V21.64H47.4078V13.64ZM47.7358 17.64V14.4H39.7358V17.64H47.7358ZM43.7358 10.4H34.3038V18.4H43.7358V10.4ZM30.3038 14.4V17.28H38.3038V14.4H30.3038ZM34.3038 21.28H40.8558V13.28H34.3038V21.28ZM36.8558 17.28V20.916H44.8558V17.28H36.8558ZM40.8558 16.916H34.3038V24.916H40.8558V16.916ZM30.3038 20.916V23.832H38.3038V20.916H30.3038ZM34.3038 27.832H43.7358V19.832H34.3038V27.832ZM47.7358 23.832V20.52H39.7358V23.832H47.7358ZM43.7358 24.52H47.4078V16.52H43.7358V24.52ZM43.4078 20.52V24.156H51.4078V20.52H43.4078ZM47.4078 20.156H44.0958V28.156H47.4078V20.156ZM40.0958 24.156V27.432H48.0958V24.156H40.0958ZM44.0958 23.432H33.9438V31.432H44.0958V23.432ZM55.0376 27.432H51.0376L55.0376 31.432V27.432ZM55.0376 24.192H59.0376L55.0376 20.192V24.192ZM51.7616 24.192H47.7616L51.7616 28.192V24.192ZM51.7616 14.076V10.076L47.7616 14.076H51.7616ZM55.0376 14.076V18.076L59.0376 14.076H55.0376ZM55.0376 10.8V6.8L51.0376 10.8H55.0376ZM65.1896 10.8H69.1896L65.1896 6.8V10.8ZM65.1896 14.076H61.1896L65.1896 18.076V14.076ZM68.5016 14.076H72.5016L68.5016 10.076V14.076ZM68.5016 23.832H64.5016L68.5016 27.832V23.832ZM71.7776 23.832H75.7776L71.7776 19.832V23.832ZM71.7776 27.432V31.432L75.7776 27.432H71.7776ZM68.1416 27.432H64.1416L68.1416 31.432V27.432ZM68.1416 24.192H72.1416L68.1416 20.192V24.192ZM65.1896 24.192V20.192L61.1896 24.192H65.1896ZM65.1896 27.432V31.432L69.1896 27.432H65.1896ZM55.3976 23.832H51.3976L55.3976 27.832V23.832ZM64.8296 23.832V27.832L68.8296 23.832H64.8296ZM64.8296 14.4H68.8296L64.8296 10.4V14.4ZM55.3976 14.4V10.4L51.3976 14.4H55.3976ZM59.0376 27.432V24.192H51.0376V27.432H59.0376ZM55.0376 20.192H51.7616V28.192H55.0376V20.192ZM55.7616 24.192V14.076H47.7616V24.192H55.7616ZM51.7616 18.076H55.0376V10.076H51.7616V18.076ZM59.0376 14.076V10.8H51.0376V14.076H59.0376ZM55.0376 14.8H65.1896V6.8H55.0376V14.8ZM61.1896 10.8V14.076H69.1896V10.8H61.1896ZM65.1896 18.076H68.5016V10.076H65.1896V18.076ZM64.5016 14.076V23.832H72.5016V14.076H64.5016ZM68.5016 27.832H71.7776V19.832H68.5016V27.832ZM67.7776 23.832V27.432H75.7776V23.832H67.7776ZM71.7776 23.432H68.1416V31.432H71.7776V23.432ZM72.1416 27.432V24.192H64.1416V27.432H72.1416ZM68.1416 20.192H65.1896V28.192H68.1416V20.192ZM61.1896 24.192V27.432H69.1896V24.192H61.1896ZM65.1896 23.432H55.0376V31.432H65.1896V23.432ZM55.3976 27.832H64.8296V19.832H55.3976V27.832ZM68.8296 23.832V14.4H60.8296V23.832H68.8296ZM64.8296 10.4H55.3976V18.4H64.8296V10.4ZM51.3976 14.4V23.832H59.3976V14.4H51.3976ZM78.6682 27.432H74.6682L78.6682 31.432V27.432ZM78.6682 24.192H82.6682L78.6682 20.192V24.192ZM75.4282 24.192H71.4282L75.4282 28.192V24.192ZM75.4282 14.4H79.4282L75.4282 10.4V14.4ZM72.1522 14.4H68.1522L72.1522 18.4V14.4ZM72.1522 10.8V6.8L68.1522 10.8H72.1522ZM75.4282 10.8V14.8L79.4282 10.8H75.4282ZM75.4282 4.284V0.283998L71.4282 4.284H75.4282ZM79.0282 4.284H83.0282L79.0282 0.283998V4.284ZM79.0282 10.8H75.0282L79.0282 14.8V10.8ZM88.8922 10.8H92.8922L88.8922 6.8V10.8ZM88.8922 14.4V18.4L92.8922 14.4H88.8922ZM79.0282 14.4V10.4L75.0282 14.4H79.0282ZM79.0282 23.832H75.0282L79.0282 27.832V23.832ZM88.5322 23.832V27.832L92.5322 23.832H88.5322ZM88.5322 20.556V16.556L84.5322 20.556H88.5322ZM92.1682 20.556H96.1682L92.1682 16.556V20.556ZM92.1682 24.192V28.192L96.1682 24.192H92.1682ZM88.8922 24.192V20.192L84.8922 24.192H88.8922ZM88.8922 27.432V31.432L92.8922 27.432H88.8922ZM82.6682 27.432V24.192H74.6682V27.432H82.6682ZM78.6682 20.192H75.4282V28.192H78.6682V20.192ZM79.4282 24.192V14.4H71.4282V24.192H79.4282ZM75.4282 10.4H72.1522V18.4H75.4282V10.4ZM76.1522 14.4V10.8H68.1522V14.4H76.1522ZM72.1522 14.8H75.4282V6.8H72.1522V14.8ZM79.4282 10.8V4.284H71.4282V10.8H79.4282ZM75.4282 8.284H79.0282V0.283998H75.4282V8.284ZM75.0282 4.284V10.8H83.0282V4.284H75.0282ZM79.0282 14.8H88.8922V6.8H79.0282V14.8ZM84.8922 10.8V14.4H92.8922V10.8H84.8922ZM88.8922 10.4H79.0282V18.4H88.8922V10.4ZM75.0282 14.4V23.832H83.0282V14.4H75.0282ZM79.0282 27.832H88.5322V19.832H79.0282V27.832ZM92.5322 23.832V20.556H84.5322V23.832H92.5322ZM88.5322 24.556H92.1682V16.556H88.5322V24.556ZM88.1682 20.556V24.192H96.1682V20.556H88.1682ZM92.1682 20.192H88.8922V28.192H92.1682V20.192ZM84.8922 24.192V27.432H92.8922V24.192H84.8922ZM88.8922 23.432H78.6682V31.432H88.8922V23.432ZM95.8123 27.432H91.8123L95.8123 31.432V27.432ZM95.8123 4.284V0.283998L91.8123 4.284H95.8123ZM99.4483 4.284H103.448L99.4483 0.283998V4.284ZM99.4483 14.076H95.4483L99.4483 18.076V14.076ZM102.328 14.076V18.076L106.328 14.076H102.328ZM102.328 10.8V6.8L98.3283 10.8H102.328ZM109.24 10.8H113.24L109.24 6.8V10.8ZM109.24 14.076H105.24L109.24 18.076V14.076ZM112.552 14.076H116.552L112.552 10.076V14.076ZM112.552 27.432V31.432L116.552 27.432H112.552ZM108.88 27.432H104.88L108.88 31.432V27.432ZM108.88 14.4H112.88L108.88 10.4V14.4ZM102.688 14.4V10.4L98.6883 14.4H102.688ZM102.688 17.64V21.64L106.688 17.64H102.688ZM99.4483 17.64V13.64L95.4483 17.64H99.4483ZM99.4483 27.432V31.432L103.448 27.432H99.4483ZM99.8123 27.432V4.284H91.8123V27.432H99.8123ZM95.8123 8.284H99.4483V0.283998H95.8123V8.284ZM95.4483 4.284V14.076H103.448V4.284H95.4483ZM99.4483 18.076H102.328V10.076H99.4483V18.076ZM106.328 14.076V10.8H98.3283V14.076H106.328ZM102.328 14.8H109.24V6.8H102.328V14.8ZM105.24 10.8V14.076H113.24V10.8H105.24ZM109.24 18.076H112.552V10.076H109.24V18.076ZM108.552 14.076V27.432H116.552V14.076H108.552ZM112.552 23.432H108.88V31.432H112.552V23.432ZM112.88 27.432V14.4H104.88V27.432H112.88ZM108.88 10.4H102.688V18.4H108.88V10.4ZM98.6883 14.4V17.64H106.688V14.4H98.6883ZM102.688 13.64H99.4483V21.64H102.688V13.64ZM95.4483 17.64V27.432H103.448V17.64H95.4483ZM99.4483 23.432H95.8123V31.432H99.4483V23.432ZM119.479 27.432H115.479L119.479 31.432V27.432ZM119.479 24.192H123.479L119.479 20.192V24.192ZM116.203 24.192H112.203L116.203 28.192V24.192ZM116.203 14.076V10.076L112.203 14.076H116.203ZM119.479 14.076V18.076L123.479 14.076H119.479ZM119.479 10.8V6.8L115.479 10.8H119.479ZM129.631 10.8H133.631L129.631 6.8V10.8ZM129.631 14.076H125.631L129.631 18.076V14.076ZM132.943 14.076H136.943L132.943 10.076V14.076ZM132.943 17.64V21.64L136.943 17.64H132.943ZM129.271 17.64H125.271L129.271 21.64V17.64ZM129.271 14.4H133.271L129.271 10.4V14.4ZM119.839 14.4V10.4L115.839 14.4H119.839ZM119.839 17.28H115.839L119.839 21.28V17.28ZM126.391 17.28H130.391L126.391 13.28V17.28ZM126.391 20.916V24.916L130.391 20.916H126.391ZM119.839 20.916V16.916L115.839 20.916H119.839ZM119.839 23.832H115.839L119.839 27.832V23.832ZM129.271 23.832V27.832L133.271 23.832H129.271ZM129.271 20.52V16.52L125.271 20.52H129.271ZM132.943 20.52H136.943L132.943 16.52V20.52ZM132.943 24.156V28.156L136.943 24.156H132.943ZM129.631 24.156V20.156L125.631 24.156H129.631ZM129.631 27.432V31.432L133.631 27.432H129.631ZM123.479 27.432V24.192H115.479V27.432H123.479ZM119.479 20.192H116.203V28.192H119.479V20.192ZM120.203 24.192V14.076H112.203V24.192H120.203ZM116.203 18.076H119.479V10.076H116.203V18.076ZM123.479 14.076V10.8H115.479V14.076H123.479ZM119.479 14.8H129.631V6.8H119.479V14.8ZM125.631 10.8V14.076H133.631V10.8H125.631ZM129.631 18.076H132.943V10.076H129.631V18.076ZM128.943 14.076V17.64H136.943V14.076H128.943ZM132.943 13.64H129.271V21.64H132.943V13.64ZM133.271 17.64V14.4H125.271V17.64H133.271ZM129.271 10.4H119.839V18.4H129.271V10.4ZM115.839 14.4V17.28H123.839V14.4H115.839ZM119.839 21.28H126.391V13.28H119.839V21.28ZM122.391 17.28V20.916H130.391V17.28H122.391ZM126.391 16.916H119.839V24.916H126.391V16.916ZM115.839 20.916V23.832H123.839V20.916H115.839ZM119.839 27.832H129.271V19.832H119.839V27.832ZM133.271 23.832V20.52H125.271V23.832H133.271ZM129.271 24.52H132.943V16.52H129.271V24.52ZM128.943 20.52V24.156H136.943V20.52H128.943ZM132.943 20.156H129.631V28.156H132.943V20.156ZM125.631 24.156V27.432H133.631V24.156H125.631ZM129.631 23.432H119.479V31.432H129.631V23.432ZM137.297 27.432H133.297L137.297 31.432V27.432ZM137.297 14.076V10.076L133.297 14.076H137.297ZM140.573 14.076V18.076L144.573 14.076H140.573ZM140.573 10.8V6.8L136.573 10.8H140.573ZM150.725 10.8H154.725L150.725 6.8V10.8ZM150.725 14.076H146.725L150.725 18.076V14.076ZM154.037 14.076H158.037L154.037 10.076V14.076ZM154.037 17.64V21.64L158.037 17.64H154.037ZM150.365 17.64H146.365L150.365 21.64V17.64ZM150.365 14.4H154.365L150.365 10.4V14.4ZM140.933 14.4V10.4L136.933 14.4H140.933ZM140.933 27.432V31.432L144.933 27.432H140.933ZM141.297 27.432V14.076H133.297V27.432H141.297ZM137.297 18.076H140.573V10.076H137.297V18.076ZM144.573 14.076V10.8H136.573V14.076H144.573ZM140.573 14.8H150.725V6.8H140.573V14.8ZM146.725 10.8V14.076H154.725V10.8H146.725ZM150.725 18.076H154.037V10.076H150.725V18.076ZM150.037 14.076V17.64H158.037V14.076H150.037ZM154.037 13.64H150.365V21.64H154.037V13.64ZM154.365 17.64V14.4H146.365V17.64H154.365ZM150.365 10.4H140.933V18.4H150.365V10.4ZM136.933 14.4V27.432H144.933V14.4H136.933ZM140.933 23.432H137.297V31.432H140.933V23.432ZM172.114 27.432H168.114L172.114 31.432V27.432ZM172.114 7.92H176.114L172.114 3.92V7.92ZM169.234 7.92V3.92L165.234 7.92H169.234ZM169.234 11.16V15.16L173.234 11.16H169.234ZM165.598 11.16H161.598L165.598 15.16V11.16ZM165.598 7.56V3.56L161.598 7.56H165.598ZM168.874 7.56V11.56L172.874 7.56H168.874ZM168.874 4.284V0.283998L164.874 4.284H168.874ZM179.026 4.284H183.026L179.026 0.283998V4.284ZM179.026 7.56H175.026L179.026 11.56V7.56ZM182.338 7.56H186.338L182.338 3.56V7.56ZM182.338 11.16V15.16L186.338 11.16H182.338ZM178.666 11.16H174.666L178.666 15.16V11.16ZM178.666 7.92H182.666L178.666 3.92V7.92ZM175.786 7.92V3.92L171.786 7.92H175.786ZM175.786 27.432V31.432L179.786 27.432H175.786ZM176.114 27.432V7.92H168.114V27.432H176.114ZM172.114 3.92H169.234V11.92H172.114V3.92ZM165.234 7.92V11.16H173.234V7.92H165.234ZM169.234 7.16H165.598V15.16H169.234V7.16ZM169.598 11.16V7.56H161.598V11.16H169.598ZM165.598 11.56H168.874V3.56H165.598V11.56ZM172.874 7.56V4.284H164.874V7.56H172.874ZM168.874 8.284H179.026V0.283998H168.874V8.284ZM175.026 4.284V7.56H183.026V4.284H175.026ZM179.026 11.56H182.338V3.56H179.026V11.56ZM178.338 7.56V11.16H186.338V7.56H178.338ZM182.338 7.16H178.666V15.16H182.338V7.16ZM182.666 11.16V7.92H174.666V11.16H182.666ZM178.666 3.92H175.786V11.92H178.666V3.92ZM171.786 7.92V27.432H179.786V7.92H171.786ZM175.786 23.432H172.114V31.432H175.786V23.432ZM183.105 27.432H179.105L183.105 31.432V27.432ZM183.105 14.076V10.076L179.105 14.076H183.105ZM186.381 14.076V18.076L190.381 14.076H186.381ZM186.381 10.8V6.8L182.381 10.8H186.381ZM196.533 10.8H200.533L196.533 6.8V10.8ZM196.533 14.076H192.533L196.533 18.076V14.076ZM199.845 14.076H203.845L199.845 10.076V14.076ZM199.845 17.64V21.64L203.845 17.64H199.845ZM196.173 17.64H192.173L196.173 21.64V17.64ZM196.173 14.4H200.173L196.173 10.4V14.4ZM186.741 14.4V10.4L182.741 14.4H186.741ZM186.741 27.432V31.432L190.741 27.432H186.741ZM187.105 27.432V14.076H179.105V27.432H187.105ZM183.105 18.076H186.381V10.076H183.105V18.076ZM190.381 14.076V10.8H182.381V14.076H190.381ZM186.381 14.8H196.533V6.8H186.381V14.8ZM192.533 10.8V14.076H200.533V10.8H192.533ZM196.533 18.076H199.845V10.076H196.533V18.076ZM195.845 14.076V17.64H203.845V14.076H195.845ZM199.845 13.64H196.173V21.64H199.845V13.64ZM200.173 17.64V14.4H192.173V17.64H200.173ZM196.173 10.4H186.741V18.4H196.173V10.4ZM182.741 14.4V27.432H190.741V14.4H182.741ZM186.741 23.432H183.105V31.432H186.741V23.432ZM206.385 27.432H202.385L206.385 31.432V27.432ZM206.385 24.192H210.385L206.385 20.192V24.192ZM203.109 24.192H199.109L203.109 28.192V24.192ZM203.109 14.076V10.076L199.109 14.076H203.109ZM206.385 14.076V18.076L210.385 14.076H206.385ZM206.385 10.8V6.8L202.385 10.8H206.385ZM216.537 10.8H220.537L216.537 6.8V10.8ZM216.537 14.076H212.537L216.537 18.076V14.076ZM219.849 14.076H223.849L219.849 10.076V14.076ZM219.849 23.832H215.849L219.849 27.832V23.832ZM223.125 23.832H227.125L223.125 19.832V23.832ZM223.125 27.432V31.432L227.125 27.432H223.125ZM219.489 27.432H215.489L219.489 31.432V27.432ZM219.489 24.192H223.489L219.489 20.192V24.192ZM216.537 24.192V20.192L212.537 24.192H216.537ZM216.537 27.432V31.432L220.537 27.432H216.537ZM206.745 23.832H202.745L206.745 27.832V23.832ZM216.177 23.832V27.832L220.177 23.832H216.177ZM216.177 14.4H220.177L216.177 10.4V14.4ZM206.745 14.4V10.4L202.745 14.4H206.745ZM210.385 27.432V24.192H202.385V27.432H210.385ZM206.385 20.192H203.109V28.192H206.385V20.192ZM207.109 24.192V14.076H199.109V24.192H207.109ZM203.109 18.076H206.385V10.076H203.109V18.076ZM210.385 14.076V10.8H202.385V14.076H210.385ZM206.385 14.8H216.537V6.8H206.385V14.8ZM212.537 10.8V14.076H220.537V10.8H212.537ZM216.537 18.076H219.849V10.076H216.537V18.076ZM215.849 14.076V23.832H223.849V14.076H215.849ZM219.849 27.832H223.125V19.832H219.849V27.832ZM219.125 23.832V27.432H227.125V23.832H219.125ZM223.125 23.432H219.489V31.432H223.125V23.432ZM223.489 27.432V24.192H215.489V27.432H223.489ZM219.489 20.192H216.537V28.192H219.489V20.192ZM212.537 24.192V27.432H220.537V24.192H212.537ZM216.537 23.432H206.385V31.432H216.537V23.432ZM206.745 27.832H216.177V19.832H206.745V27.832ZM220.177 23.832V14.4H212.177V23.832H220.177ZM216.177 10.4H206.745V18.4H216.177V10.4ZM202.745 14.4V23.832H210.745V14.4H202.745ZM228.956 27.432H224.956L228.956 31.432V27.432ZM228.956 24.192H232.956L228.956 20.192V24.192ZM225.68 24.192H221.68L225.68 28.192V24.192ZM225.68 14.076V10.076L221.68 14.076H225.68ZM228.956 14.076V18.076L232.956 14.076H228.956ZM228.956 10.8V6.8L224.956 10.8H228.956ZM239.108 10.8H243.108L239.108 6.8V10.8ZM239.108 14.076H235.108L239.108 18.076V14.076ZM242.42 14.076H246.42L242.42 10.076V14.076ZM242.42 17.64V21.64L246.42 17.64H242.42ZM238.748 17.64H234.748L238.748 21.64V17.64ZM238.748 14.4H242.748L238.748 10.4V14.4ZM229.316 14.4V10.4L225.316 14.4H229.316ZM229.316 23.832H225.316L229.316 27.832V23.832ZM238.748 23.832V27.832L242.748 23.832H238.748ZM238.748 20.556V16.556L234.748 20.556H238.748ZM242.42 20.556H246.42L242.42 16.556V20.556ZM242.42 24.192V28.192L246.42 24.192H242.42ZM239.108 24.192V20.192L235.108 24.192H239.108ZM239.108 27.432V31.432L243.108 27.432H239.108ZM232.956 27.432V24.192H224.956V27.432H232.956ZM228.956 20.192H225.68V28.192H228.956V20.192ZM229.68 24.192V14.076H221.68V24.192H229.68ZM225.68 18.076H228.956V10.076H225.68V18.076ZM232.956 14.076V10.8H224.956V14.076H232.956ZM228.956 14.8H239.108V6.8H228.956V14.8ZM235.108 10.8V14.076H243.108V10.8H235.108ZM239.108 18.076H242.42V10.076H239.108V18.076ZM238.42 14.076V17.64H246.42V14.076H238.42ZM242.42 13.64H238.748V21.64H242.42V13.64ZM242.748 17.64V14.4H234.748V17.64H242.748ZM238.748 10.4H229.316V18.4H238.748V10.4ZM225.316 14.4V23.832H233.316V14.4H225.316ZM229.316 27.832H238.748V19.832H229.316V27.832ZM242.748 23.832V20.556H234.748V23.832H242.748ZM238.748 24.556H242.42V16.556H238.748V24.556ZM238.42 20.556V24.192H246.42V20.556H238.42ZM242.42 20.192H239.108V28.192H242.42V20.192ZM235.108 24.192V27.432H243.108V24.192H235.108ZM239.108 23.432H228.956V31.432H239.108V23.432ZM246.07 27.432H242.07L246.07 31.432V27.432ZM246.07 4.284V0.283998L242.07 4.284H246.07ZM249.706 4.284H253.706L249.706 0.283998V4.284ZM249.706 17.28H245.706L249.706 21.28V17.28ZM252.586 17.28V21.28L256.586 17.28H252.586ZM252.586 14.076V10.076L248.586 14.076H252.586ZM259.138 14.076V18.076L263.138 14.076H259.138ZM259.138 10.8V6.8L255.138 10.8H259.138ZM262.81 10.8H266.81L262.81 6.8V10.8ZM262.81 14.4V18.4L266.81 14.4H262.81ZM259.498 14.4V10.4L255.498 14.4H259.498ZM259.498 17.64V21.64L263.498 17.64H259.498ZM252.946 17.64V13.64L248.946 17.64H252.946ZM252.946 20.556H248.946L252.946 24.556V20.556ZM259.498 20.556H263.498L259.498 16.556V20.556ZM259.498 23.832H255.498L259.498 27.832V23.832ZM262.81 23.832H266.81L262.81 19.832V23.832ZM262.81 27.432V31.432L266.81 27.432H262.81ZM259.138 27.432H255.138L259.138 31.432V27.432ZM259.138 24.192H263.138L259.138 20.192V24.192ZM252.586 24.192H248.586L252.586 28.192V24.192ZM252.586 20.916H256.586L252.586 16.916V20.916ZM249.706 20.916V16.916L245.706 20.916H249.706ZM249.706 27.432V31.432L253.706 27.432H249.706ZM250.07 27.432V4.284H242.07V27.432H250.07ZM246.07 8.284H249.706V0.283998H246.07V8.284ZM245.706 4.284V17.28H253.706V4.284H245.706ZM249.706 21.28H252.586V13.28H249.706V21.28ZM256.586 17.28V14.076H248.586V17.28H256.586ZM252.586 18.076H259.138V10.076H252.586V18.076ZM263.138 14.076V10.8H255.138V14.076H263.138ZM259.138 14.8H262.81V6.8H259.138V14.8ZM258.81 10.8V14.4H266.81V10.8H258.81ZM262.81 10.4H259.498V18.4H262.81V10.4ZM255.498 14.4V17.64H263.498V14.4H255.498ZM259.498 13.64H252.946V21.64H259.498V13.64ZM248.946 17.64V20.556H256.946V17.64H248.946ZM252.946 24.556H259.498V16.556H252.946V24.556ZM255.498 20.556V23.832H263.498V20.556H255.498ZM259.498 27.832H262.81V19.832H259.498V27.832ZM258.81 23.832V27.432H266.81V23.832H258.81ZM262.81 23.432H259.138V31.432H262.81V23.432ZM263.138 27.432V24.192H255.138V27.432H263.138ZM259.138 20.192H252.586V28.192H259.138V20.192ZM256.586 24.192V20.916H248.586V24.192H256.586ZM252.586 16.916H249.706V24.916H252.586V16.916ZM245.706 20.916V27.432H253.706V20.916H245.706ZM249.706 23.432H246.07V31.432H249.706V23.432ZM268.295 27.432H264.295L268.295 31.432V27.432ZM268.295 24.192H272.295L268.295 20.192V24.192ZM265.019 24.192H261.019L265.019 28.192V24.192ZM265.019 14.076V10.076L261.019 14.076H265.019ZM268.295 14.076V18.076L272.295 14.076H268.295ZM268.295 10.8V6.8L264.295 10.8H268.295ZM278.447 10.8H282.447L278.447 6.8V10.8ZM278.447 14.076H274.447L278.447 18.076V14.076ZM281.759 14.076H285.759L281.759 10.076V14.076ZM281.759 17.64V21.64L285.759 17.64H281.759ZM278.087 17.64H274.087L278.087 21.64V17.64ZM278.087 14.4H282.087L278.087 10.4V14.4ZM268.655 14.4V10.4L264.655 14.4H268.655ZM268.655 17.28H264.655L268.655 21.28V17.28ZM275.207 17.28H279.207L275.207 13.28V17.28ZM275.207 20.916V24.916L279.207 20.916H275.207ZM268.655 20.916V16.916L264.655 20.916H268.655ZM268.655 23.832H264.655L268.655 27.832V23.832ZM278.087 23.832V27.832L282.087 23.832H278.087ZM278.087 20.52V16.52L274.087 20.52H278.087ZM281.759 20.52H285.759L281.759 16.52V20.52ZM281.759 24.156V28.156L285.759 24.156H281.759ZM278.447 24.156V20.156L274.447 24.156H278.447ZM278.447 27.432V31.432L282.447 27.432H278.447ZM272.295 27.432V24.192H264.295V27.432H272.295ZM268.295 20.192H265.019V28.192H268.295V20.192ZM269.019 24.192V14.076H261.019V24.192H269.019ZM265.019 18.076H268.295V10.076H265.019V18.076ZM272.295 14.076V10.8H264.295V14.076H272.295ZM268.295 14.8H278.447V6.8H268.295V14.8ZM274.447 10.8V14.076H282.447V10.8H274.447ZM278.447 18.076H281.759V10.076H278.447V18.076ZM277.759 14.076V17.64H285.759V14.076H277.759ZM281.759 13.64H278.087V21.64H281.759V13.64ZM282.087 17.64V14.4H274.087V17.64H282.087ZM278.087 10.4H268.655V18.4H278.087V10.4ZM264.655 14.4V17.28H272.655V14.4H264.655ZM268.655 21.28H275.207V13.28H268.655V21.28ZM271.207 17.28V20.916H279.207V17.28H271.207ZM275.207 16.916H268.655V24.916H275.207V16.916ZM264.655 20.916V23.832H272.655V20.916H264.655ZM268.655 27.832H278.087V19.832H268.655V27.832ZM282.087 23.832V20.52H274.087V23.832H282.087ZM278.087 24.52H281.759V16.52H278.087V24.52ZM277.759 20.52V24.156H285.759V20.52H277.759ZM281.759 20.156H278.447V28.156H281.759V20.156ZM274.447 24.156V27.432H282.447V24.156H274.447ZM278.447 23.432H268.295V31.432H278.447V23.432ZM286.113 27.432H282.113L286.113 31.432V27.432ZM286.113 14.076V10.076L282.113 14.076H286.113ZM289.389 14.076V18.076L293.389 14.076H289.389ZM289.389 10.8V6.8L285.389 10.8H289.389ZM299.541 10.8H303.541L299.541 6.8V10.8ZM299.541 14.076H295.541L299.541 18.076V14.076ZM302.853 14.076H306.853L302.853 10.076V14.076ZM302.853 17.64V21.64L306.853 17.64H302.853ZM299.181 17.64H295.181L299.181 21.64V17.64ZM299.181 14.4H303.181L299.181 10.4V14.4ZM289.749 14.4V10.4L285.749 14.4H289.749ZM289.749 27.432V31.432L293.749 27.432H289.749ZM290.113 27.432V14.076H282.113V27.432H290.113ZM286.113 18.076H289.389V10.076H286.113V18.076ZM293.389 14.076V10.8H285.389V14.076H293.389ZM289.389 14.8H299.541V6.8H289.389V14.8ZM295.541 10.8V14.076H303.541V10.8H295.541ZM299.541 18.076H302.853V10.076H299.541V18.076ZM298.853 14.076V17.64H306.853V14.076H298.853ZM302.853 13.64H299.181V21.64H302.853V13.64ZM303.181 17.64V14.4H295.181V17.64H303.181ZM299.181 10.4H289.749V18.4H299.181V10.4ZM285.749 14.4V27.432H293.749V14.4H285.749ZM289.749 23.432H286.113V31.432H289.749V23.432Z" fill="#D9C0FB" mask="url(#path-1-outside-1_1_39)"/>
</svg>
