<svg width="495" height="35" viewBox="0 0 495 35" fill="none" xmlns="http://www.w3.org/2000/svg">
<mask id="path-1-outside-1_3_4" maskUnits="userSpaceOnUse" x="0" y="0" width="495" height="35" fill="black">
<rect fill="white" width="495" height="35"/>
<path d="M8.04 30.48V26.88H4.4V4.76H8.44V26.48H11.64V19.2H15.32V8.4H19.32V19.2H23V26.48H26.24V4.76H30.24V26.88H26.64V30.48H22.6V26.88H18.92V19.6H15.72V26.88H12.04V30.48H8.04ZM35.0641 30.48V4.76H39.1041V15.64H42.3041V12H49.9841V15.64H53.6641V30.48H49.5841V16H42.7041V19.6H39.1041V30.48H35.0641ZM61.3603 30.48V26.88H57.7203V15.64H61.3603V12H72.6403V15.64H76.3203V26.48H79.9603V30.48H75.9203V26.88H72.6403V30.48H61.3603ZM61.7603 26.48H72.2403V16H61.7603V26.48ZM87.6166 30.48V26.88H84.0166V16H80.3766V12H84.0166V4.76H88.0166V12H98.9766V16H88.0166V26.48H98.5766V22.84H102.617V26.88H98.9766V30.48H87.6166ZM109.247 12.4V10.16H111.087V8.8H107.447V4.76H111.487V8.4H113.287V10.56H111.487V12.4H109.247ZM118.111 30.48V26.48H132.631V23.24H121.751V19.6H118.111V15.64H121.751V12H136.711V16H122.151V19.2H133.031V22.84H136.711V26.88H133.031V30.48H118.111ZM156.796 30.48V26.88H153.196V16H149.556V12H153.196V4.76H157.196V12H168.156V16H157.196V26.48H167.756V22.84H171.796V26.88H168.156V30.48H156.796ZM175.845 30.48V4.76H179.885V15.64H183.085V12H190.765V15.64H194.445V30.48H190.365V16H183.485V19.6H179.885V30.48H175.845ZM202.142 30.48V26.88H198.502V15.64H202.142V12H213.422V15.64H217.102V19.6H213.022V16H202.542V19.2H209.822V23.24H202.542V26.48H213.022V22.8H217.102V26.84H213.422V30.48H202.142ZM229.947 30.48V12H233.987V26.48H240.867V12H244.867V26.48H251.787V12H255.787V26.88H252.187V30.48H244.467V26.88H241.267V30.48H229.947ZM263.04 30.48V26.88H259.4V15.64H263.04V12H274.32V15.64H278V19.6H273.92V16H263.44V19.2H270.72V23.24H263.44V26.48H273.92V22.8H278V26.84H274.32V30.48H263.04ZM286.478 30.48V26.88H282.838V15.64H286.478V12H297.758V15.64H301.438V26.48H305.078V30.48H301.038V26.88H297.758V30.48H286.478ZM286.878 26.48H297.358V16H286.878V26.48ZM312.734 30.48V26.88H309.134V16H305.494V12H309.134V4.76H313.134V12H324.094V16H313.134V26.48H323.694V22.84H327.734V26.88H324.094V30.48H312.734ZM331.783 30.48V4.76H335.823V15.64H339.023V12H346.703V15.64H350.383V30.48H346.303V16H339.423V19.6H335.823V30.48H331.783ZM358.079 30.48V26.88H354.439V15.64H358.079V12H369.359V15.64H373.039V19.6H368.959V16H358.479V19.2H365.759V23.24H358.479V26.48H368.959V22.8H373.039V26.84H369.359V30.48H358.079ZM377.877 30.48V15.64H381.517V12H392.797V15.64H396.477V19.6H392.397V16H381.917V30.48H377.877ZM409.322 30.48V4.76H413.362V30.48H409.322ZM418.189 30.48V12H422.229V30.48H418.189ZM418.189 8.8V4.76H422.229V8.8H418.189ZM427.056 30.48V4.76H431.096V19.2H434.296V15.64H441.576V12H445.656V16H441.976V19.6H434.696V22.84H441.976V26.48H445.656V30.48H441.576V26.88H434.296V23.24H431.096V30.48H427.056ZM451.751 30.48V26.88H448.111V15.64H451.751V12H463.031V15.64H466.711V19.6H462.631V16H452.151V19.2H459.431V23.24H452.151V26.48H462.631V22.8H466.711V26.84H463.031V30.48H451.751ZM478.788 23.24V15.64H486.068V8.8H475.588V16H471.548V8.4H475.188V4.76H486.468V8.4H490.148V16H486.468V19.6H482.868V23.24H478.788ZM478.788 30.48V26.48H482.868V30.48H478.788Z"/>
</mask>
<path d="M8.04 30.48V26.88H4.4V4.76H8.44V26.48H11.64V19.2H15.32V8.4H19.32V19.2H23V26.48H26.24V4.76H30.24V26.88H26.64V30.48H22.6V26.88H18.92V19.6H15.72V26.88H12.04V30.48H8.04ZM35.0641 30.48V4.76H39.1041V15.64H42.3041V12H49.9841V15.64H53.6641V30.48H49.5841V16H42.7041V19.6H39.1041V30.48H35.0641ZM61.3603 30.48V26.88H57.7203V15.64H61.3603V12H72.6403V15.64H76.3203V26.48H79.9603V30.48H75.9203V26.88H72.6403V30.48H61.3603ZM61.7603 26.48H72.2403V16H61.7603V26.48ZM87.6166 30.48V26.88H84.0166V16H80.3766V12H84.0166V4.76H88.0166V12H98.9766V16H88.0166V26.48H98.5766V22.84H102.617V26.88H98.9766V30.48H87.6166ZM109.247 12.4V10.16H111.087V8.8H107.447V4.76H111.487V8.4H113.287V10.56H111.487V12.4H109.247ZM118.111 30.48V26.48H132.631V23.24H121.751V19.6H118.111V15.64H121.751V12H136.711V16H122.151V19.2H133.031V22.84H136.711V26.88H133.031V30.48H118.111ZM156.796 30.48V26.88H153.196V16H149.556V12H153.196V4.76H157.196V12H168.156V16H157.196V26.48H167.756V22.84H171.796V26.88H168.156V30.48H156.796ZM175.845 30.48V4.76H179.885V15.64H183.085V12H190.765V15.64H194.445V30.48H190.365V16H183.485V19.6H179.885V30.48H175.845ZM202.142 30.48V26.88H198.502V15.64H202.142V12H213.422V15.64H217.102V19.6H213.022V16H202.542V19.2H209.822V23.24H202.542V26.48H213.022V22.8H217.102V26.84H213.422V30.48H202.142ZM229.947 30.48V12H233.987V26.48H240.867V12H244.867V26.48H251.787V12H255.787V26.88H252.187V30.48H244.467V26.88H241.267V30.48H229.947ZM263.04 30.48V26.88H259.4V15.64H263.04V12H274.32V15.64H278V19.6H273.92V16H263.44V19.2H270.72V23.24H263.44V26.48H273.92V22.8H278V26.84H274.32V30.48H263.04ZM286.478 30.48V26.88H282.838V15.64H286.478V12H297.758V15.64H301.438V26.48H305.078V30.48H301.038V26.88H297.758V30.48H286.478ZM286.878 26.48H297.358V16H286.878V26.48ZM312.734 30.48V26.88H309.134V16H305.494V12H309.134V4.76H313.134V12H324.094V16H313.134V26.48H323.694V22.84H327.734V26.88H324.094V30.48H312.734ZM331.783 30.48V4.76H335.823V15.64H339.023V12H346.703V15.64H350.383V30.48H346.303V16H339.423V19.6H335.823V30.48H331.783ZM358.079 30.48V26.88H354.439V15.64H358.079V12H369.359V15.64H373.039V19.6H368.959V16H358.479V19.2H365.759V23.24H358.479V26.48H368.959V22.8H373.039V26.84H369.359V30.48H358.079ZM377.877 30.48V15.64H381.517V12H392.797V15.64H396.477V19.6H392.397V16H381.917V30.48H377.877ZM409.322 30.48V4.76H413.362V30.48H409.322ZM418.189 30.48V12H422.229V30.48H418.189ZM418.189 8.8V4.76H422.229V8.8H418.189ZM427.056 30.48V4.76H431.096V19.2H434.296V15.64H441.576V12H445.656V16H441.976V19.6H434.696V22.84H441.976V26.48H445.656V30.48H441.576V26.88H434.296V23.24H431.096V30.48H427.056ZM451.751 30.48V26.88H448.111V15.64H451.751V12H463.031V15.64H466.711V19.6H462.631V16H452.151V19.2H459.431V23.24H452.151V26.48H462.631V22.8H466.711V26.84H463.031V30.48H451.751ZM478.788 23.24V15.64H486.068V8.8H475.588V16H471.548V8.4H475.188V4.76H486.468V8.4H490.148V16H486.468V19.6H482.868V23.24H478.788ZM478.788 30.48V26.48H482.868V30.48H478.788Z" fill="#FCCF6A"/>
<path d="M8.04 30.48H4.04L8.04 34.48V30.48ZM8.04 26.88H12.04L8.04 22.88V26.88ZM4.4 26.88H0.4L4.4 30.88V26.88ZM4.4 4.76V0.759998L0.4 4.76H4.4ZM8.44 4.76H12.44L8.44 0.759998V4.76ZM8.44 26.48H4.44L8.44 30.48V26.48ZM11.64 26.48V30.48L15.64 26.48H11.64ZM11.64 19.2V15.2L7.64 19.2H11.64ZM15.32 19.2V23.2L19.32 19.2H15.32ZM15.32 8.4V4.4L11.32 8.4H15.32ZM19.32 8.4H23.32L19.32 4.4V8.4ZM19.32 19.2H15.32L19.32 23.2V19.2ZM23 19.2H27L23 15.2V19.2ZM23 26.48H19L23 30.48V26.48ZM26.24 26.48V30.48L30.24 26.48H26.24ZM26.24 4.76V0.759998L22.24 4.76H26.24ZM30.24 4.76H34.24L30.24 0.759998V4.76ZM30.24 26.88V30.88L34.24 26.88H30.24ZM26.64 26.88V22.88L22.64 26.88H26.64ZM26.64 30.48V34.48L30.64 30.48H26.64ZM22.6 30.48H18.6L22.6 34.48V30.48ZM22.6 26.88H26.6L22.6 22.88V26.88ZM18.92 26.88H14.92L18.92 30.88V26.88ZM18.92 19.6H22.92L18.92 15.6V19.6ZM15.72 19.6V15.6L11.72 19.6H15.72ZM15.72 26.88V30.88L19.72 26.88H15.72ZM12.04 26.88V22.88L8.04 26.88H12.04ZM12.04 30.48V34.48L16.04 30.48H12.04ZM12.04 30.48V26.88H4.04V30.48H12.04ZM8.04 22.88H4.4V30.88H8.04V22.88ZM8.4 26.88V4.76H0.4V26.88H8.4ZM4.4 8.76H8.44V0.759998H4.4V8.76ZM4.44 4.76V26.48H12.44V4.76H4.44ZM8.44 30.48H11.64V22.48H8.44V30.48ZM15.64 26.48V19.2H7.64V26.48H15.64ZM11.64 23.2H15.32V15.2H11.64V23.2ZM19.32 19.2V8.4H11.32V19.2H19.32ZM15.32 12.4H19.32V4.4H15.32V12.4ZM15.32 8.4V19.2H23.32V8.4H15.32ZM19.32 23.2H23V15.2H19.32V23.2ZM19 19.2V26.48H27V19.2H19ZM23 30.48H26.24V22.48H23V30.48ZM30.24 26.48V4.76H22.24V26.48H30.24ZM26.24 8.76H30.24V0.759998H26.24V8.76ZM26.24 4.76V26.88H34.24V4.76H26.24ZM30.24 22.88H26.64V30.88H30.24V22.88ZM22.64 26.88V30.48H30.64V26.88H22.64ZM26.64 26.48H22.6V34.48H26.64V26.48ZM26.6 30.48V26.88H18.6V30.48H26.6ZM22.6 22.88H18.92V30.88H22.6V22.88ZM22.92 26.88V19.6H14.92V26.88H22.92ZM18.92 15.6H15.72V23.6H18.92V15.6ZM11.72 19.6V26.88H19.72V19.6H11.72ZM15.72 22.88H12.04V30.88H15.72V22.88ZM8.04 26.88V30.48H16.04V26.88H8.04ZM12.04 26.48H8.04V34.48H12.04V26.48ZM35.0641 30.48H31.0641L35.0641 34.48V30.48ZM35.0641 4.76V0.759998L31.0641 4.76H35.0641ZM39.1041 4.76H43.1041L39.1041 0.759998V4.76ZM39.1041 15.64H35.1041L39.1041 19.64V15.64ZM42.3041 15.64V19.64L46.3041 15.64H42.3041ZM42.3041 12V8L38.3041 12H42.3041ZM49.9841 12H53.9841L49.9841 8V12ZM49.9841 15.64H45.9841L49.9841 19.64V15.64ZM53.6641 15.64H57.6641L53.6641 11.64V15.64ZM53.6641 30.48V34.48L57.6641 30.48H53.6641ZM49.5841 30.48H45.5841L49.5841 34.48V30.48ZM49.5841 16H53.5841L49.5841 12V16ZM42.7041 16V12L38.7041 16H42.7041ZM42.7041 19.6V23.6L46.7041 19.6H42.7041ZM39.1041 19.6V15.6L35.1041 19.6H39.1041ZM39.1041 30.48V34.48L43.1041 30.48H39.1041ZM39.0641 30.48V4.76H31.0641V30.48H39.0641ZM35.0641 8.76H39.1041V0.759998H35.0641V8.76ZM35.1041 4.76V15.64H43.1041V4.76H35.1041ZM39.1041 19.64H42.3041V11.64H39.1041V19.64ZM46.3041 15.64V12H38.3041V15.64H46.3041ZM42.3041 16H49.9841V8H42.3041V16ZM45.9841 12V15.64H53.9841V12H45.9841ZM49.9841 19.64H53.6641V11.64H49.9841V19.64ZM49.6641 15.64V30.48H57.6641V15.64H49.6641ZM53.6641 26.48H49.5841V34.48H53.6641V26.48ZM53.5841 30.48V16H45.5841V30.48H53.5841ZM49.5841 12H42.7041V20H49.5841V12ZM38.7041 16V19.6H46.7041V16H38.7041ZM42.7041 15.6H39.1041V23.6H42.7041V15.6ZM35.1041 19.6V30.48H43.1041V19.6H35.1041ZM39.1041 26.48H35.0641V34.48H39.1041V26.48ZM61.3603 30.48H57.3603L61.3603 34.48V30.48ZM61.3603 26.88H65.3603L61.3603 22.88V26.88ZM57.7203 26.88H53.7203L57.7203 30.88V26.88ZM57.7203 15.64V11.64L53.7203 15.64H57.7203ZM61.3603 15.64V19.64L65.3603 15.64H61.3603ZM61.3603 12V8L57.3603 12H61.3603ZM72.6403 12H76.6403L72.6403 8V12ZM72.6403 15.64H68.6403L72.6403 19.64V15.64ZM76.3203 15.64H80.3203L76.3203 11.64V15.64ZM76.3203 26.48H72.3203L76.3203 30.48V26.48ZM79.9603 26.48H83.9603L79.9603 22.48V26.48ZM79.9603 30.48V34.48L83.9603 30.48H79.9603ZM75.9203 30.48H71.9203L75.9203 34.48V30.48ZM75.9203 26.88H79.9203L75.9203 22.88V26.88ZM72.6403 26.88V22.88L68.6403 26.88H72.6403ZM72.6403 30.48V34.48L76.6403 30.48H72.6403ZM61.7603 26.48H57.7603L61.7603 30.48V26.48ZM72.2403 26.48V30.48L76.2403 26.48H72.2403ZM72.2403 16H76.2403L72.2403 12V16ZM61.7603 16V12L57.7603 16H61.7603ZM65.3603 30.48V26.88H57.3603V30.48H65.3603ZM61.3603 22.88H57.7203V30.88H61.3603V22.88ZM61.7203 26.88V15.64H53.7203V26.88H61.7203ZM57.7203 19.64H61.3603V11.64H57.7203V19.64ZM65.3603 15.64V12H57.3603V15.64H65.3603ZM61.3603 16H72.6403V8H61.3603V16ZM68.6403 12V15.64H76.6403V12H68.6403ZM72.6403 19.64H76.3203V11.64H72.6403V19.64ZM72.3203 15.64V26.48H80.3203V15.64H72.3203ZM76.3203 30.48H79.9603V22.48H76.3203V30.48ZM75.9603 26.48V30.48H83.9603V26.48H75.9603ZM79.9603 26.48H75.9203V34.48H79.9603V26.48ZM79.9203 30.48V26.88H71.9203V30.48H79.9203ZM75.9203 22.88H72.6403V30.88H75.9203V22.88ZM68.6403 26.88V30.48H76.6403V26.88H68.6403ZM72.6403 26.48H61.3603V34.48H72.6403V26.48ZM61.7603 30.48H72.2403V22.48H61.7603V30.48ZM76.2403 26.48V16H68.2403V26.48H76.2403ZM72.2403 12H61.7603V20H72.2403V12ZM57.7603 16V26.48H65.7603V16H57.7603ZM87.6166 30.48H83.6166L87.6166 34.48V30.48ZM87.6166 26.88H91.6166L87.6166 22.88V26.88ZM84.0166 26.88H80.0166L84.0166 30.88V26.88ZM84.0166 16H88.0166L84.0166 12V16ZM80.3766 16H76.3766L80.3766 20V16ZM80.3766 12V8L76.3766 12H80.3766ZM84.0166 12V16L88.0166 12H84.0166ZM84.0166 4.76V0.759998L80.0166 4.76H84.0166ZM88.0166 4.76H92.0166L88.0166 0.759998V4.76ZM88.0166 12H84.0166L88.0166 16V12ZM98.9766 12H102.977L98.9766 8V12ZM98.9766 16V20L102.977 16H98.9766ZM88.0166 16V12L84.0166 16H88.0166ZM88.0166 26.48H84.0166L88.0166 30.48V26.48ZM98.5766 26.48V30.48L102.577 26.48H98.5766ZM98.5766 22.84V18.84L94.5766 22.84H98.5766ZM102.617 22.84H106.617L102.617 18.84V22.84ZM102.617 26.88V30.88L106.617 26.88H102.617ZM98.9766 26.88V22.88L94.9766 26.88H98.9766ZM98.9766 30.48V34.48L102.977 30.48H98.9766ZM91.6166 30.48V26.88H83.6166V30.48H91.6166ZM87.6166 22.88H84.0166V30.88H87.6166V22.88ZM88.0166 26.88V16H80.0166V26.88H88.0166ZM84.0166 12H80.3766V20H84.0166V12ZM84.3766 16V12H76.3766V16H84.3766ZM80.3766 16H84.0166V8H80.3766V16ZM88.0166 12V4.76H80.0166V12H88.0166ZM84.0166 8.76H88.0166V0.759998H84.0166V8.76ZM84.0166 4.76V12H92.0166V4.76H84.0166ZM88.0166 16H98.9766V8H88.0166V16ZM94.9766 12V16H102.977V12H94.9766ZM98.9766 12H88.0166V20H98.9766V12ZM84.0166 16V26.48H92.0166V16H84.0166ZM88.0166 30.48H98.5766V22.48H88.0166V30.48ZM102.577 26.48V22.84H94.5766V26.48H102.577ZM98.5766 26.84H102.617V18.84H98.5766V26.84ZM98.6166 22.84V26.88H106.617V22.84H98.6166ZM102.617 22.88H98.9766V30.88H102.617V22.88ZM94.9766 26.88V30.48H102.977V26.88H94.9766ZM98.9766 26.48H87.6166V34.48H98.9766V26.48ZM109.247 12.4H105.247L109.247 16.4V12.4ZM109.247 10.16V6.16L105.247 10.16H109.247ZM111.087 10.16V14.16L115.087 10.16H111.087ZM111.087 8.8H115.087L111.087 4.8V8.8ZM107.447 8.8H103.447L107.447 12.8V8.8ZM107.447 4.76V0.759998L103.447 4.76H107.447ZM111.487 4.76H115.487L111.487 0.759998V4.76ZM111.487 8.4H107.487L111.487 12.4V8.4ZM113.287 8.4H117.287L113.287 4.4V8.4ZM113.287 10.56V14.56L117.287 10.56H113.287ZM111.487 10.56V6.56L107.487 10.56H111.487ZM111.487 12.4V16.4L115.487 12.4H111.487ZM113.247 12.4V10.16H105.247V12.4H113.247ZM109.247 14.16H111.087V6.16H109.247V14.16ZM115.087 10.16V8.8H107.087V10.16H115.087ZM111.087 4.8H107.447V12.8H111.087V4.8ZM111.447 8.8V4.76H103.447V8.8H111.447ZM107.447 8.76H111.487V0.759998H107.447V8.76ZM107.487 4.76V8.4H115.487V4.76H107.487ZM111.487 12.4H113.287V4.4H111.487V12.4ZM109.287 8.4V10.56H117.287V8.4H109.287ZM113.287 6.56H111.487V14.56H113.287V6.56ZM107.487 10.56V12.4H115.487V10.56H107.487ZM111.487 8.4H109.247V16.4H111.487V8.4ZM118.111 30.48H114.111L118.111 34.48V30.48ZM118.111 26.48V22.48L114.111 26.48H118.111ZM132.631 26.48V30.48L136.631 26.48H132.631ZM132.631 23.24H136.631L132.631 19.24V23.24ZM121.751 23.24H117.751L121.751 27.24V23.24ZM121.751 19.6H125.751L121.751 15.6V19.6ZM118.111 19.6H114.111L118.111 23.6V19.6ZM118.111 15.64V11.64L114.111 15.64H118.111ZM121.751 15.64V19.64L125.751 15.64H121.751ZM121.751 12V8L117.751 12H121.751ZM136.711 12H140.711L136.711 8V12ZM136.711 16V20L140.711 16H136.711ZM122.151 16V12L118.151 16H122.151ZM122.151 19.2H118.151L122.151 23.2V19.2ZM133.031 19.2H137.031L133.031 15.2V19.2ZM133.031 22.84H129.031L133.031 26.84V22.84ZM136.711 22.84H140.711L136.711 18.84V22.84ZM136.711 26.88V30.88L140.711 26.88H136.711ZM133.031 26.88V22.88L129.031 26.88H133.031ZM133.031 30.48V34.48L137.031 30.48H133.031ZM122.111 30.48V26.48H114.111V30.48H122.111ZM118.111 30.48H132.631V22.48H118.111V30.48ZM136.631 26.48V23.24H128.631V26.48H136.631ZM132.631 19.24H121.751V27.24H132.631V19.24ZM125.751 23.24V19.6H117.751V23.24H125.751ZM121.751 15.6H118.111V23.6H121.751V15.6ZM122.111 19.6V15.64H114.111V19.6H122.111ZM118.111 19.64H121.751V11.64H118.111V19.64ZM125.751 15.64V12H117.751V15.64H125.751ZM121.751 16H136.711V8H121.751V16ZM132.711 12V16H140.711V12H132.711ZM136.711 12H122.151V20H136.711V12ZM118.151 16V19.2H126.151V16H118.151ZM122.151 23.2H133.031V15.2H122.151V23.2ZM129.031 19.2V22.84H137.031V19.2H129.031ZM133.031 26.84H136.711V18.84H133.031V26.84ZM132.711 22.84V26.88H140.711V22.84H132.711ZM136.711 22.88H133.031V30.88H136.711V22.88ZM129.031 26.88V30.48H137.031V26.88H129.031ZM133.031 26.48H118.111V34.48H133.031V26.48ZM156.796 30.48H152.796L156.796 34.48V30.48ZM156.796 26.88H160.796L156.796 22.88V26.88ZM153.196 26.88H149.196L153.196 30.88V26.88ZM153.196 16H157.196L153.196 12V16ZM149.556 16H145.556L149.556 20V16ZM149.556 12V8L145.556 12H149.556ZM153.196 12V16L157.196 12H153.196ZM153.196 4.76V0.759998L149.196 4.76H153.196ZM157.196 4.76H161.196L157.196 0.759998V4.76ZM157.196 12H153.196L157.196 16V12ZM168.156 12H172.156L168.156 8V12ZM168.156 16V20L172.156 16H168.156ZM157.196 16V12L153.196 16H157.196ZM157.196 26.48H153.196L157.196 30.48V26.48ZM167.756 26.48V30.48L171.756 26.48H167.756ZM167.756 22.84V18.84L163.756 22.84H167.756ZM171.796 22.84H175.796L171.796 18.84V22.84ZM171.796 26.88V30.88L175.796 26.88H171.796ZM168.156 26.88V22.88L164.156 26.88H168.156ZM168.156 30.48V34.48L172.156 30.48H168.156ZM160.796 30.48V26.88H152.796V30.48H160.796ZM156.796 22.88H153.196V30.88H156.796V22.88ZM157.196 26.88V16H149.196V26.88H157.196ZM153.196 12H149.556V20H153.196V12ZM153.556 16V12H145.556V16H153.556ZM149.556 16H153.196V8H149.556V16ZM157.196 12V4.76H149.196V12H157.196ZM153.196 8.76H157.196V0.759998H153.196V8.76ZM153.196 4.76V12H161.196V4.76H153.196ZM157.196 16H168.156V8H157.196V16ZM164.156 12V16H172.156V12H164.156ZM168.156 12H157.196V20H168.156V12ZM153.196 16V26.48H161.196V16H153.196ZM157.196 30.48H167.756V22.48H157.196V30.48ZM171.756 26.48V22.84H163.756V26.48H171.756ZM167.756 26.84H171.796V18.84H167.756V26.84ZM167.796 22.84V26.88H175.796V22.84H167.796ZM171.796 22.88H168.156V30.88H171.796V22.88ZM164.156 26.88V30.48H172.156V26.88H164.156ZM168.156 26.48H156.796V34.48H168.156V26.48ZM175.845 30.48H171.845L175.845 34.48V30.48ZM175.845 4.76V0.759998L171.845 4.76H175.845ZM179.885 4.76H183.885L179.885 0.759998V4.76ZM179.885 15.64H175.885L179.885 19.64V15.64ZM183.085 15.64V19.64L187.085 15.64H183.085ZM183.085 12V8L179.085 12H183.085ZM190.765 12H194.765L190.765 8V12ZM190.765 15.64H186.765L190.765 19.64V15.64ZM194.445 15.64H198.445L194.445 11.64V15.64ZM194.445 30.48V34.48L198.445 30.48H194.445ZM190.365 30.48H186.365L190.365 34.48V30.48ZM190.365 16H194.365L190.365 12V16ZM183.485 16V12L179.485 16H183.485ZM183.485 19.6V23.6L187.485 19.6H183.485ZM179.885 19.6V15.6L175.885 19.6H179.885ZM179.885 30.48V34.48L183.885 30.48H179.885ZM179.845 30.48V4.76H171.845V30.48H179.845ZM175.845 8.76H179.885V0.759998H175.845V8.76ZM175.885 4.76V15.64H183.885V4.76H175.885ZM179.885 19.64H183.085V11.64H179.885V19.64ZM187.085 15.64V12H179.085V15.64H187.085ZM183.085 16H190.765V8H183.085V16ZM186.765 12V15.64H194.765V12H186.765ZM190.765 19.64H194.445V11.64H190.765V19.64ZM190.445 15.64V30.48H198.445V15.64H190.445ZM194.445 26.48H190.365V34.48H194.445V26.48ZM194.365 30.48V16H186.365V30.48H194.365ZM190.365 12H183.485V20H190.365V12ZM179.485 16V19.6H187.485V16H179.485ZM183.485 15.6H179.885V23.6H183.485V15.6ZM175.885 19.6V30.48H183.885V19.6H175.885ZM179.885 26.48H175.845V34.48H179.885V26.48ZM202.142 30.48H198.142L202.142 34.48V30.48ZM202.142 26.88H206.142L202.142 22.88V26.88ZM198.502 26.88H194.502L198.502 30.88V26.88ZM198.502 15.64V11.64L194.502 15.64H198.502ZM202.142 15.64V19.64L206.142 15.64H202.142ZM202.142 12V8L198.142 12H202.142ZM213.422 12H217.422L213.422 8V12ZM213.422 15.64H209.422L213.422 19.64V15.64ZM217.102 15.64H221.102L217.102 11.64V15.64ZM217.102 19.6V23.6L221.102 19.6H217.102ZM213.022 19.6H209.022L213.022 23.6V19.6ZM213.022 16H217.022L213.022 12V16ZM202.542 16V12L198.542 16H202.542ZM202.542 19.2H198.542L202.542 23.2V19.2ZM209.822 19.2H213.822L209.822 15.2V19.2ZM209.822 23.24V27.24L213.822 23.24H209.822ZM202.542 23.24V19.24L198.542 23.24H202.542ZM202.542 26.48H198.542L202.542 30.48V26.48ZM213.022 26.48V30.48L217.022 26.48H213.022ZM213.022 22.8V18.8L209.022 22.8H213.022ZM217.102 22.8H221.102L217.102 18.8V22.8ZM217.102 26.84V30.84L221.102 26.84H217.102ZM213.422 26.84V22.84L209.422 26.84H213.422ZM213.422 30.48V34.48L217.422 30.48H213.422ZM206.142 30.48V26.88H198.142V30.48H206.142ZM202.142 22.88H198.502V30.88H202.142V22.88ZM202.502 26.88V15.64H194.502V26.88H202.502ZM198.502 19.64H202.142V11.64H198.502V19.64ZM206.142 15.64V12H198.142V15.64H206.142ZM202.142 16H213.422V8H202.142V16ZM209.422 12V15.64H217.422V12H209.422ZM213.422 19.64H217.102V11.64H213.422V19.64ZM213.102 15.64V19.6H221.102V15.64H213.102ZM217.102 15.6H213.022V23.6H217.102V15.6ZM217.022 19.6V16H209.022V19.6H217.022ZM213.022 12H202.542V20H213.022V12ZM198.542 16V19.2H206.542V16H198.542ZM202.542 23.2H209.822V15.2H202.542V23.2ZM205.822 19.2V23.24H213.822V19.2H205.822ZM209.822 19.24H202.542V27.24H209.822V19.24ZM198.542 23.24V26.48H206.542V23.24H198.542ZM202.542 30.48H213.022V22.48H202.542V30.48ZM217.022 26.48V22.8H209.022V26.48H217.022ZM213.022 26.8H217.102V18.8H213.022V26.8ZM213.102 22.8V26.84H221.102V22.8H213.102ZM217.102 22.84H213.422V30.84H217.102V22.84ZM209.422 26.84V30.48H217.422V26.84H209.422ZM213.422 26.48H202.142V34.48H213.422V26.48ZM229.947 30.48H225.947L229.947 34.48V30.48ZM229.947 12V8L225.947 12H229.947ZM233.987 12H237.987L233.987 8V12ZM233.987 26.48H229.987L233.987 30.48V26.48ZM240.867 26.48V30.48L244.867 26.48H240.867ZM240.867 12V8L236.867 12H240.867ZM244.867 12H248.867L244.867 8V12ZM244.867 26.48H240.867L244.867 30.48V26.48ZM251.787 26.48V30.48L255.787 26.48H251.787ZM251.787 12V8L247.787 12H251.787ZM255.787 12H259.787L255.787 8V12ZM255.787 26.88V30.88L259.787 26.88H255.787ZM252.187 26.88V22.88L248.187 26.88H252.187ZM252.187 30.48V34.48L256.187 30.48H252.187ZM244.467 30.48H240.467L244.467 34.48V30.48ZM244.467 26.88H248.467L244.467 22.88V26.88ZM241.267 26.88V22.88L237.267 26.88H241.267ZM241.267 30.48V34.48L245.267 30.48H241.267ZM233.947 30.48V12H225.947V30.48H233.947ZM229.947 16H233.987V8H229.947V16ZM229.987 12V26.48H237.987V12H229.987ZM233.987 30.48H240.867V22.48H233.987V30.48ZM244.867 26.48V12H236.867V26.48H244.867ZM240.867 16H244.867V8H240.867V16ZM240.867 12V26.48H248.867V12H240.867ZM244.867 30.48H251.787V22.48H244.867V30.48ZM255.787 26.48V12H247.787V26.48H255.787ZM251.787 16H255.787V8H251.787V16ZM251.787 12V26.88H259.787V12H251.787ZM255.787 22.88H252.187V30.88H255.787V22.88ZM248.187 26.88V30.48H256.187V26.88H248.187ZM252.187 26.48H244.467V34.48H252.187V26.48ZM248.467 30.48V26.88H240.467V30.48H248.467ZM244.467 22.88H241.267V30.88H244.467V22.88ZM237.267 26.88V30.48H245.267V26.88H237.267ZM241.267 26.48H229.947V34.48H241.267V26.48ZM263.04 30.48H259.04L263.04 34.48V30.48ZM263.04 26.88H267.04L263.04 22.88V26.88ZM259.4 26.88H255.4L259.4 30.88V26.88ZM259.4 15.64V11.64L255.4 15.64H259.4ZM263.04 15.64V19.64L267.04 15.64H263.04ZM263.04 12V8L259.04 12H263.04ZM274.32 12H278.32L274.32 8V12ZM274.32 15.64H270.32L274.32 19.64V15.64ZM278 15.64H282L278 11.64V15.64ZM278 19.6V23.6L282 19.6H278ZM273.92 19.6H269.92L273.92 23.6V19.6ZM273.92 16H277.92L273.92 12V16ZM263.44 16V12L259.44 16H263.44ZM263.44 19.2H259.44L263.44 23.2V19.2ZM270.72 19.2H274.72L270.72 15.2V19.2ZM270.72 23.24V27.24L274.72 23.24H270.72ZM263.44 23.24V19.24L259.44 23.24H263.44ZM263.44 26.48H259.44L263.44 30.48V26.48ZM273.92 26.48V30.48L277.92 26.48H273.92ZM273.92 22.8V18.8L269.92 22.8H273.92ZM278 22.8H282L278 18.8V22.8ZM278 26.84V30.84L282 26.84H278ZM274.32 26.84V22.84L270.32 26.84H274.32ZM274.32 30.48V34.48L278.32 30.48H274.32ZM267.04 30.48V26.88H259.04V30.48H267.04ZM263.04 22.88H259.4V30.88H263.04V22.88ZM263.4 26.88V15.64H255.4V26.88H263.4ZM259.4 19.64H263.04V11.64H259.4V19.64ZM267.04 15.64V12H259.04V15.64H267.04ZM263.04 16H274.32V8H263.04V16ZM270.32 12V15.64H278.32V12H270.32ZM274.32 19.64H278V11.64H274.32V19.64ZM274 15.64V19.6H282V15.64H274ZM278 15.6H273.92V23.6H278V15.6ZM277.92 19.6V16H269.92V19.6H277.92ZM273.92 12H263.44V20H273.92V12ZM259.44 16V19.2H267.44V16H259.44ZM263.44 23.2H270.72V15.2H263.44V23.2ZM266.72 19.2V23.24H274.72V19.2H266.72ZM270.72 19.24H263.44V27.24H270.72V19.24ZM259.44 23.24V26.48H267.44V23.24H259.44ZM263.44 30.48H273.92V22.48H263.44V30.48ZM277.92 26.48V22.8H269.92V26.48H277.92ZM273.92 26.8H278V18.8H273.92V26.8ZM274 22.8V26.84H282V22.8H274ZM278 22.84H274.32V30.84H278V22.84ZM270.32 26.84V30.48H278.32V26.84H270.32ZM274.32 26.48H263.04V34.48H274.32V26.48ZM286.478 30.48H282.478L286.478 34.48V30.48ZM286.478 26.88H290.478L286.478 22.88V26.88ZM282.837 26.88H278.837L282.837 30.88V26.88ZM282.837 15.64V11.64L278.837 15.64H282.837ZM286.478 15.64V19.64L290.478 15.64H286.478ZM286.478 12V8L282.478 12H286.478ZM297.758 12H301.758L297.758 8V12ZM297.758 15.64H293.758L297.758 19.64V15.64ZM301.438 15.64H305.438L301.438 11.64V15.64ZM301.438 26.48H297.438L301.438 30.48V26.48ZM305.078 26.48H309.078L305.078 22.48V26.48ZM305.078 30.48V34.48L309.078 30.48H305.078ZM301.038 30.48H297.038L301.038 34.48V30.48ZM301.038 26.88H305.038L301.038 22.88V26.88ZM297.758 26.88V22.88L293.758 26.88H297.758ZM297.758 30.48V34.48L301.758 30.48H297.758ZM286.878 26.48H282.878L286.878 30.48V26.48ZM297.358 26.48V30.48L301.358 26.48H297.358ZM297.358 16H301.358L297.358 12V16ZM286.878 16V12L282.878 16H286.878ZM290.478 30.48V26.88H282.478V30.48H290.478ZM286.478 22.88H282.837V30.88H286.478V22.88ZM286.837 26.88V15.64H278.837V26.88H286.837ZM282.837 19.64H286.478V11.64H282.837V19.64ZM290.478 15.64V12H282.478V15.64H290.478ZM286.478 16H297.758V8H286.478V16ZM293.758 12V15.64H301.758V12H293.758ZM297.758 19.64H301.438V11.64H297.758V19.64ZM297.438 15.64V26.48H305.438V15.64H297.438ZM301.438 30.48H305.078V22.48H301.438V30.48ZM301.078 26.48V30.48H309.078V26.48H301.078ZM305.078 26.48H301.038V34.48H305.078V26.48ZM305.038 30.48V26.88H297.038V30.48H305.038ZM301.038 22.88H297.758V30.88H301.038V22.88ZM293.758 26.88V30.48H301.758V26.88H293.758ZM297.758 26.48H286.478V34.48H297.758V26.48ZM286.878 30.48H297.358V22.48H286.878V30.48ZM301.358 26.48V16H293.358V26.48H301.358ZM297.358 12H286.878V20H297.358V12ZM282.878 16V26.48H290.878V16H282.878ZM312.734 30.48H308.734L312.734 34.48V30.48ZM312.734 26.88H316.734L312.734 22.88V26.88ZM309.134 26.88H305.134L309.134 30.88V26.88ZM309.134 16H313.134L309.134 12V16ZM305.494 16H301.494L305.494 20V16ZM305.494 12V8L301.494 12H305.494ZM309.134 12V16L313.134 12H309.134ZM309.134 4.76V0.759998L305.134 4.76H309.134ZM313.134 4.76H317.134L313.134 0.759998V4.76ZM313.134 12H309.134L313.134 16V12ZM324.094 12H328.094L324.094 8V12ZM324.094 16V20L328.094 16H324.094ZM313.134 16V12L309.134 16H313.134ZM313.134 26.48H309.134L313.134 30.48V26.48ZM323.694 26.48V30.48L327.694 26.48H323.694ZM323.694 22.84V18.84L319.694 22.84H323.694ZM327.734 22.84H331.734L327.734 18.84V22.84ZM327.734 26.88V30.88L331.734 26.88H327.734ZM324.094 26.88V22.88L320.094 26.88H324.094ZM324.094 30.48V34.48L328.094 30.48H324.094ZM316.734 30.48V26.88H308.734V30.48H316.734ZM312.734 22.88H309.134V30.88H312.734V22.88ZM313.134 26.88V16H305.134V26.88H313.134ZM309.134 12H305.494V20H309.134V12ZM309.494 16V12H301.494V16H309.494ZM305.494 16H309.134V8H305.494V16ZM313.134 12V4.76H305.134V12H313.134ZM309.134 8.76H313.134V0.759998H309.134V8.76ZM309.134 4.76V12H317.134V4.76H309.134ZM313.134 16H324.094V8H313.134V16ZM320.094 12V16H328.094V12H320.094ZM324.094 12H313.134V20H324.094V12ZM309.134 16V26.48H317.134V16H309.134ZM313.134 30.48H323.694V22.48H313.134V30.48ZM327.694 26.48V22.84H319.694V26.48H327.694ZM323.694 26.84H327.734V18.84H323.694V26.84ZM323.734 22.84V26.88H331.734V22.84H323.734ZM327.734 22.88H324.094V30.88H327.734V22.88ZM320.094 26.88V30.48H328.094V26.88H320.094ZM324.094 26.48H312.734V34.48H324.094V26.48ZM331.783 30.48H327.783L331.783 34.48V30.48ZM331.783 4.76V0.759998L327.783 4.76H331.783ZM335.823 4.76H339.823L335.823 0.759998V4.76ZM335.823 15.64H331.823L335.823 19.64V15.64ZM339.023 15.64V19.64L343.023 15.64H339.023ZM339.023 12V8L335.023 12H339.023ZM346.703 12H350.703L346.703 8V12ZM346.703 15.64H342.703L346.703 19.64V15.64ZM350.383 15.64H354.383L350.383 11.64V15.64ZM350.383 30.48V34.48L354.383 30.48H350.383ZM346.303 30.48H342.303L346.303 34.48V30.48ZM346.303 16H350.303L346.303 12V16ZM339.423 16V12L335.423 16H339.423ZM339.423 19.6V23.6L343.423 19.6H339.423ZM335.823 19.6V15.6L331.823 19.6H335.823ZM335.823 30.48V34.48L339.823 30.48H335.823ZM335.783 30.48V4.76H327.783V30.48H335.783ZM331.783 8.76H335.823V0.759998H331.783V8.76ZM331.823 4.76V15.64H339.823V4.76H331.823ZM335.823 19.64H339.023V11.64H335.823V19.64ZM343.023 15.64V12H335.023V15.64H343.023ZM339.023 16H346.703V8H339.023V16ZM342.703 12V15.64H350.703V12H342.703ZM346.703 19.64H350.383V11.64H346.703V19.64ZM346.383 15.64V30.48H354.383V15.64H346.383ZM350.383 26.48H346.303V34.48H350.383V26.48ZM350.303 30.48V16H342.303V30.48H350.303ZM346.303 12H339.423V20H346.303V12ZM335.423 16V19.6H343.423V16H335.423ZM339.423 15.6H335.823V23.6H339.423V15.6ZM331.823 19.6V30.48H339.823V19.6H331.823ZM335.823 26.48H331.783V34.48H335.823V26.48ZM358.079 30.48H354.079L358.079 34.48V30.48ZM358.079 26.88H362.079L358.079 22.88V26.88ZM354.439 26.88H350.439L354.439 30.88V26.88ZM354.439 15.64V11.64L350.439 15.64H354.439ZM358.079 15.64V19.64L362.079 15.64H358.079ZM358.079 12V8L354.079 12H358.079ZM369.359 12H373.359L369.359 8V12ZM369.359 15.64H365.359L369.359 19.64V15.64ZM373.039 15.64H377.039L373.039 11.64V15.64ZM373.039 19.6V23.6L377.039 19.6H373.039ZM368.959 19.6H364.959L368.959 23.6V19.6ZM368.959 16H372.959L368.959 12V16ZM358.479 16V12L354.479 16H358.479ZM358.479 19.2H354.479L358.479 23.2V19.2ZM365.759 19.2H369.759L365.759 15.2V19.2ZM365.759 23.24V27.24L369.759 23.24H365.759ZM358.479 23.24V19.24L354.479 23.24H358.479ZM358.479 26.48H354.479L358.479 30.48V26.48ZM368.959 26.48V30.48L372.959 26.48H368.959ZM368.959 22.8V18.8L364.959 22.8H368.959ZM373.039 22.8H377.039L373.039 18.8V22.8ZM373.039 26.84V30.84L377.039 26.84H373.039ZM369.359 26.84V22.84L365.359 26.84H369.359ZM369.359 30.48V34.48L373.359 30.48H369.359ZM362.079 30.48V26.88H354.079V30.48H362.079ZM358.079 22.88H354.439V30.88H358.079V22.88ZM358.439 26.88V15.64H350.439V26.88H358.439ZM354.439 19.64H358.079V11.64H354.439V19.64ZM362.079 15.64V12H354.079V15.64H362.079ZM358.079 16H369.359V8H358.079V16ZM365.359 12V15.64H373.359V12H365.359ZM369.359 19.64H373.039V11.64H369.359V19.64ZM369.039 15.64V19.6H377.039V15.64H369.039ZM373.039 15.6H368.959V23.6H373.039V15.6ZM372.959 19.6V16H364.959V19.6H372.959ZM368.959 12H358.479V20H368.959V12ZM354.479 16V19.2H362.479V16H354.479ZM358.479 23.2H365.759V15.2H358.479V23.2ZM361.759 19.2V23.24H369.759V19.2H361.759ZM365.759 19.24H358.479V27.24H365.759V19.24ZM354.479 23.24V26.48H362.479V23.24H354.479ZM358.479 30.48H368.959V22.48H358.479V30.48ZM372.959 26.48V22.8H364.959V26.48H372.959ZM368.959 26.8H373.039V18.8H368.959V26.8ZM369.039 22.8V26.84H377.039V22.8H369.039ZM373.039 22.84H369.359V30.84H373.039V22.84ZM365.359 26.84V30.48H373.359V26.84H365.359ZM369.359 26.48H358.079V34.48H369.359V26.48ZM377.877 30.48H373.877L377.877 34.48V30.48ZM377.877 15.64V11.64L373.877 15.64H377.877ZM381.517 15.64V19.64L385.517 15.64H381.517ZM381.517 12V8L377.517 12H381.517ZM392.797 12H396.797L392.797 8V12ZM392.797 15.64H388.797L392.797 19.64V15.64ZM396.477 15.64H400.477L396.477 11.64V15.64ZM396.477 19.6V23.6L400.477 19.6H396.477ZM392.397 19.6H388.397L392.397 23.6V19.6ZM392.397 16H396.397L392.397 12V16ZM381.917 16V12L377.917 16H381.917ZM381.917 30.48V34.48L385.917 30.48H381.917ZM381.877 30.48V15.64H373.877V30.48H381.877ZM377.877 19.64H381.517V11.64H377.877V19.64ZM385.517 15.64V12H377.517V15.64H385.517ZM381.517 16H392.797V8H381.517V16ZM388.797 12V15.64H396.797V12H388.797ZM392.797 19.64H396.477V11.64H392.797V19.64ZM392.477 15.64V19.6H400.477V15.64H392.477ZM396.477 15.6H392.397V23.6H396.477V15.6ZM396.397 19.6V16H388.397V19.6H396.397ZM392.397 12H381.917V20H392.397V12ZM377.917 16V30.48H385.917V16H377.917ZM381.917 26.48H377.877V34.48H381.917V26.48ZM409.322 30.48H405.322L409.322 34.48V30.48ZM409.322 4.76V0.759998L405.322 4.76H409.322ZM413.362 4.76H417.362L413.362 0.759998V4.76ZM413.362 30.48V34.48L417.362 30.48H413.362ZM413.322 30.48V4.76H405.322V30.48H413.322ZM409.322 8.76H413.362V0.759998H409.322V8.76ZM409.362 4.76V30.48H417.362V4.76H409.362ZM413.362 26.48H409.322V34.48H413.362V26.48ZM418.189 30.48H414.189L418.189 34.48V30.48ZM418.189 12V8L414.189 12H418.189ZM422.229 12H426.229L422.229 8V12ZM422.229 30.48V34.48L426.229 30.48H422.229ZM418.189 8.8H414.189L418.189 12.8V8.8ZM418.189 4.76V0.759998L414.189 4.76H418.189ZM422.229 4.76H426.229L422.229 0.759998V4.76ZM422.229 8.8V12.8L426.229 8.8H422.229ZM422.189 30.48V12H414.189V30.48H422.189ZM418.189 16H422.229V8H418.189V16ZM418.229 12V30.48H426.229V12H418.229ZM422.229 26.48H418.189V34.48H422.229V26.48ZM422.189 8.8V4.76H414.189V8.8H422.189ZM418.189 8.76H422.229V0.759998H418.189V8.76ZM418.229 4.76V8.8H426.229V4.76H418.229ZM422.229 4.8H418.189V12.8H422.229V4.8ZM427.056 30.48H423.056L427.056 34.48V30.48ZM427.056 4.76V0.759998L423.056 4.76H427.056ZM431.096 4.76H435.096L431.096 0.759998V4.76ZM431.096 19.2H427.096L431.096 23.2V19.2ZM434.296 19.2V23.2L438.296 19.2H434.296ZM434.296 15.64V11.64L430.296 15.64H434.296ZM441.576 15.64V19.64L445.576 15.64H441.576ZM441.576 12V8L437.576 12H441.576ZM445.656 12H449.656L445.656 8V12ZM445.656 16V20L449.656 16H445.656ZM441.976 16V12L437.976 16H441.976ZM441.976 19.6V23.6L445.976 19.6H441.976ZM434.696 19.6V15.6L430.696 19.6H434.696ZM434.696 22.84H430.696L434.696 26.84V22.84ZM441.976 22.84H445.976L441.976 18.84V22.84ZM441.976 26.48H437.976L441.976 30.48V26.48ZM445.656 26.48H449.656L445.656 22.48V26.48ZM445.656 30.48V34.48L449.656 30.48H445.656ZM441.576 30.48H437.576L441.576 34.48V30.48ZM441.576 26.88H445.576L441.576 22.88V26.88ZM434.296 26.88H430.296L434.296 30.88V26.88ZM434.296 23.24H438.296L434.296 19.24V23.24ZM431.096 23.24V19.24L427.096 23.24H431.096ZM431.096 30.48V34.48L435.096 30.48H431.096ZM431.056 30.48V4.76H423.056V30.48H431.056ZM427.056 8.76H431.096V0.759998H427.056V8.76ZM427.096 4.76V19.2H435.096V4.76H427.096ZM431.096 23.2H434.296V15.2H431.096V23.2ZM438.296 19.2V15.64H430.296V19.2H438.296ZM434.296 19.64H441.576V11.64H434.296V19.64ZM445.576 15.64V12H437.576V15.64H445.576ZM441.576 16H445.656V8H441.576V16ZM441.656 12V16H449.656V12H441.656ZM445.656 12H441.976V20H445.656V12ZM437.976 16V19.6H445.976V16H437.976ZM441.976 15.6H434.696V23.6H441.976V15.6ZM430.696 19.6V22.84H438.696V19.6H430.696ZM434.696 26.84H441.976V18.84H434.696V26.84ZM437.976 22.84V26.48H445.976V22.84H437.976ZM441.976 30.48H445.656V22.48H441.976V30.48ZM441.656 26.48V30.48H449.656V26.48H441.656ZM445.656 26.48H441.576V34.48H445.656V26.48ZM445.576 30.48V26.88H437.576V30.48H445.576ZM441.576 22.88H434.296V30.88H441.576V22.88ZM438.296 26.88V23.24H430.296V26.88H438.296ZM434.296 19.24H431.096V27.24H434.296V19.24ZM427.096 23.24V30.48H435.096V23.24H427.096ZM431.096 26.48H427.056V34.48H431.096V26.48ZM451.751 30.48H447.751L451.751 34.48V30.48ZM451.751 26.88H455.751L451.751 22.88V26.88ZM448.111 26.88H444.111L448.111 30.88V26.88ZM448.111 15.64V11.64L444.111 15.64H448.111ZM451.751 15.64V19.64L455.751 15.64H451.751ZM451.751 12V8L447.751 12H451.751ZM463.031 12H467.031L463.031 8V12ZM463.031 15.64H459.031L463.031 19.64V15.64ZM466.711 15.64H470.711L466.711 11.64V15.64ZM466.711 19.6V23.6L470.711 19.6H466.711ZM462.631 19.6H458.631L462.631 23.6V19.6ZM462.631 16H466.631L462.631 12V16ZM452.151 16V12L448.151 16H452.151ZM452.151 19.2H448.151L452.151 23.2V19.2ZM459.431 19.2H463.431L459.431 15.2V19.2ZM459.431 23.24V27.24L463.431 23.24H459.431ZM452.151 23.24V19.24L448.151 23.24H452.151ZM452.151 26.48H448.151L452.151 30.48V26.48ZM462.631 26.48V30.48L466.631 26.48H462.631ZM462.631 22.8V18.8L458.631 22.8H462.631ZM466.711 22.8H470.711L466.711 18.8V22.8ZM466.711 26.84V30.84L470.711 26.84H466.711ZM463.031 26.84V22.84L459.031 26.84H463.031ZM463.031 30.48V34.48L467.031 30.48H463.031ZM455.751 30.48V26.88H447.751V30.48H455.751ZM451.751 22.88H448.111V30.88H451.751V22.88ZM452.111 26.88V15.64H444.111V26.88H452.111ZM448.111 19.64H451.751V11.64H448.111V19.64ZM455.751 15.64V12H447.751V15.64H455.751ZM451.751 16H463.031V8H451.751V16ZM459.031 12V15.64H467.031V12H459.031ZM463.031 19.64H466.711V11.64H463.031V19.64ZM462.711 15.64V19.6H470.711V15.64H462.711ZM466.711 15.6H462.631V23.6H466.711V15.6ZM466.631 19.6V16H458.631V19.6H466.631ZM462.631 12H452.151V20H462.631V12ZM448.151 16V19.2H456.151V16H448.151ZM452.151 23.2H459.431V15.2H452.151V23.2ZM455.431 19.2V23.24H463.431V19.2H455.431ZM459.431 19.24H452.151V27.24H459.431V19.24ZM448.151 23.24V26.48H456.151V23.24H448.151ZM452.151 30.48H462.631V22.48H452.151V30.48ZM466.631 26.48V22.8H458.631V26.48H466.631ZM462.631 26.8H466.711V18.8H462.631V26.8ZM462.711 22.8V26.84H470.711V22.8H462.711ZM466.711 22.84H463.031V30.84H466.711V22.84ZM459.031 26.84V30.48H467.031V26.84H459.031ZM463.031 26.48H451.751V34.48H463.031V26.48ZM478.788 23.24H474.788L478.788 27.24V23.24ZM478.788 15.64V11.64L474.788 15.64H478.788ZM486.068 15.64V19.64L490.068 15.64H486.068ZM486.068 8.8H490.068L486.068 4.8V8.8ZM475.588 8.8V4.8L471.588 8.8H475.588ZM475.588 16V20L479.588 16H475.588ZM471.548 16H467.548L471.548 20V16ZM471.548 8.4V4.4L467.548 8.4H471.548ZM475.188 8.4V12.4L479.188 8.4H475.188ZM475.188 4.76V0.759998L471.188 4.76H475.188ZM486.468 4.76H490.468L486.468 0.759998V4.76ZM486.468 8.4H482.468L486.468 12.4V8.4ZM490.148 8.4H494.148L490.148 4.4V8.4ZM490.148 16V20L494.148 16H490.148ZM486.468 16V12L482.468 16H486.468ZM486.468 19.6V23.6L490.468 19.6H486.468ZM482.868 19.6V15.6L478.868 19.6H482.868ZM482.868 23.24V27.24L486.868 23.24H482.868ZM478.788 30.48H474.788L478.788 34.48V30.48ZM478.788 26.48V22.48L474.788 26.48H478.788ZM482.868 26.48H486.868L482.868 22.48V26.48ZM482.868 30.48V34.48L486.868 30.48H482.868ZM482.788 23.24V15.64H474.788V23.24H482.788ZM478.788 19.64H486.068V11.64H478.788V19.64ZM490.068 15.64V8.8H482.068V15.64H490.068ZM486.068 4.8H475.588V12.8H486.068V4.8ZM471.588 8.8V16H479.588V8.8H471.588ZM475.588 12H471.548V20H475.588V12ZM475.548 16V8.4H467.548V16H475.548ZM471.548 12.4H475.188V4.4H471.548V12.4ZM479.188 8.4V4.76H471.188V8.4H479.188ZM475.188 8.76H486.468V0.759998H475.188V8.76ZM482.468 4.76V8.4H490.468V4.76H482.468ZM486.468 12.4H490.148V4.4H486.468V12.4ZM486.148 8.4V16H494.148V8.4H486.148ZM490.148 12H486.468V20H490.148V12ZM482.468 16V19.6H490.468V16H482.468ZM486.468 15.6H482.868V23.6H486.468V15.6ZM478.868 19.6V23.24H486.868V19.6H478.868ZM482.868 19.24H478.788V27.24H482.868V19.24ZM482.788 30.48V26.48H474.788V30.48H482.788ZM478.788 30.48H482.868V22.48H478.788V30.48ZM478.868 26.48V30.48H486.868V26.48H478.868ZM482.868 26.48H478.788V34.48H482.868V26.48Z" fill="#F59120" mask="url(#path-1-outside-1_3_4)"/>
</svg>
